{
.appVersion = "1153";
DisplayStrings = (
h,
"/jdotless",
"",
P,
"ð",
Z,
Y,
U,
T,
S,
R,
Q,
u,
"Æ",
"Ð",
"D/Dcroat",
"/Dcroat",
F,
G,
J,
K,
L,
M,
"/Eng",
"/OE E",
"Þ",
"/Germandbls",
"/Schwa",
"/Tbar",
V,
W,
X,
"æ",
b,
d,
e,
"/schwa",
f,
g,
"/kgreenlandic",
m,
"/eng",
p,
"þ",
q,
"ß",
t,
y,
w
);
copyright = "Copyright (c) 2012, Sorkin Type Co (www.sorkintype.com), with Reserved Font Name 'Gelasio'";
customParameters = (
{
name = macintoshFONDFamilyID;
value = 128;
},
{
name = macintoshFONDName;
value = Gelasio;
},
{
name = openTypeNameUniqueID;
value = "EbenSorkin: Gelasio: 2012";
},
{
name = codePageRanges;
value = (
1252,
1250,
1251,
1253,
1254,
1257
);
},
{
name = openTypeOS2FamilyClass;
value = (
4,
3
);
},
{
name = vendorID;
value = STC;
},
{
name = blueFuzz;
value = 1;
},
{
name = blueScale;
value = 0.03963;
},
{
name = blueShift;
value = 7;
},
{
name = trademark;
value = "";
}
);
date = "2018-05-24 13:58:06 +0000";
designer = "Eben Sorkin";
designerURL = sorkintype.com;
disablesNiceNames = 1;
familyName = Gelasio;
featurePrefixes = (
{
automatic = 1;
code = "languagesystem DFLT dflt;\012languagesystem latn dflt;\012languagesystem latn LTH;\012languagesystem latn ROM;\012";
name = Languagesystems;
}
);
features = (
{
code = "  feature locl;";
name = aalt;
},
{
code = " # Localized Forms\012 script latn; # Latin\012 language LTH  exclude_dflt; # Lithuanian\012    sub iacute by dottediacute;\012 language ROM  exclude_dflt; # Romanian\012    sub [Scedilla scedilla Tcedilla tcedilla] by [Scommaaccent scommaaccent Tcommaaccent tcommaaccent];";
name = locl;
}
);
fontMaster = (
{
alignmentZones = (
"{1549, 25}",
"{1419, 31}",
"{994, 21}",
"{0, -20}",
"{-444, -8}"
);
ascender = 1889;
capHeight = 1419;
customParameters = (
{
name = typoAscender;
value = 1889;
},
{
name = typoDescender;
value = -671;
},
{
name = typoLineGap;
value = 0;
},
{
name = hheaAscender;
value = 1889;
},
{
name = hheaDescender;
value = -671;
},
{
name = hheaLineGap;
value = 0;
},
{

glyphs = (
{
color = 4;
glyphname = A;
lastChange = "2018-05-24 15:38:56 +0000";
layers = (
{
anchors = (
{
name = btm;
position = "{689, -200}";
},
{
name = top;
position = "{689, 2000}";
}
);
guideLines = (
{
angle = 109.0197;
position = "{1001, 132}";
},
{
angle = 109.0197;
position = "{1226, 132}";
}
);
layerId = "DD6F9F34-BC40-4E8F-B1D3-DF3B42A9710F";
paths = (
{
closed = 1;
nodes = (
"431 0 LINE SMOOTH",
"454 0 OFFCURVE",
"465 36 OFFCURVE",
"465 51 CURVE SMOOTH",
"465 72 OFFCURVE",
"458 85 OFFCURVE",
"432 88 CURVE",
"341 93 OFFCURVE",
"272 85 OFFCURVE",
"288 132 CURVE SMOOTH",
"424 537 LINE",
"365 494 LINE",
"921 494 LINE",
"861 537 LINE",
"1001 132 LINE SMOOTH",
"1018 85 OFFCURVE",
"958 93 OFFCURVE",
"867 88 CURVE",
"841 85 OFFCURVE",
"834 72 OFFCURVE",
"834 51 CURVE SMOOTH",
"834 36 OFFCURVE",
"845 0 OFFCURVE",
"868 0 CURVE SMOOTH",
"1369 0 LINE SMOOTH",
"1391 0 OFFCURVE",
"1403 36 OFFCURVE",
"1403 51 CURVE SMOOTH",
"1403 81 OFFCURVE",
"1395 85 OFFCURVE",
"1367 88 CURVE SMOOTH",
"1318 93 OFFCURVE",
"1247 77 OFFCURVE",
"1216 165 CURVE SMOOTH",
"761 1441 LINE",
"601 1441 LINE",
"163 165 LINE SMOOTH",
"132 76 OFFCURVE",
"59 93 OFFCURVE",
"10 88 CURVE SMOOTH",
"-18 85 OFFCURVE",
"-26 81 OFFCURVE",
"-26 51 CURVE SMOOTH",
"-26 24 OFFCURVE",
"-14 0 OFFCURVE",
"8 0 CURVE SMOOTH"
);
},
{
closed = 1;
nodes = (
"640 1187 LINE",
"861 537 LINE",
"891 580 LINE",
"394 580 LINE",
"425 537 LINE"
);
}
);
width = 1374;
},
{
anchors = (
{
name = btm;
position = "{750, -200}";
},
{
name = top;
position = "{752, 2000}";
}
);
background = {
paths = (
{
closed = 1;
nodes = (
"467 0 LINE SMOOTH",
"490 0 OFFCURVE",
"491 36 OFFCURVE",
"491 51 CURVE SMOOTH",
"491 72 OFFCURVE",
"484 86 OFFCURVE",
"458 88 CURVE SMOOTH",
"365 96 OFFCURVE",
"283 101 OFFCURVE",
"295 132 CURVE SMOOTH",
"389 379 LINE",
"922 379 LINE",
"1015 160 LINE SMOOTH",
"1049 73 OFFCURVE",
"990 92 OFFCURVE",
"873 88 CURVE SMOOTH",
"847 87 OFFCURVE",
"840 72 OFFCURVE",
"840 51 CURVE SMOOTH",
"840 36 OFFCURVE",
"851 0 OFFCURVE",
"874 0 CURVE SMOOTH",
"1545 0 LINE SMOOTH",
"1567 0 OFFCURVE",
"1579 36 OFFCURVE",
"1579 51 CURVE SMOOTH",
"1579 82 OFFCURVE",
"1560 88 OFFCURVE",
"1534 90 CURVE SMOOTH",
"1491 93 OFFCURVE",
"1427 88 OFFCURVE",
"1392 165 CURVE SMOOTH {name = hr02;}",
"784 1452 LINE",
"710 1452 LINE",
"169 165 LINE SMOOTH",
"117 38 OFFCURVE",
"-20 131 OFFCURVE",
"-20 51 CURVE SMOOTH {name = hr03;}",
"-20 36 OFFCURVE",
"-18 0 OFFCURVE",
"4 0 CURVE SMOOTH {name = hr01;}"
);
},
{
closed = 1;
nodes = (
"654 1040 LINE",
"872 495 LINE",
"433 495 LINE"
);
}
);
};
guideLines = (
{
angle = 67.1056;
position = "{412, 762}";
},
{
angle = 67.1056;
position = "{538, 728}";
},
{
angle = 110.477;
position = "{794, 700}";
},
{
angle = 110.477;
position = "{1152, 700}";
},
{
angle = 270;
position = "{750, 755}";
}
);
layerId = "62CA62AF-CD91-478A-AB8B-28A62CC47DA0";
paths = (
{
closed = 1;
nodes = (
"447 0 LINE SMOOTH",
"470 0 OFFCURVE",
"481 36 OFFCURVE",
"481 51 CURVE SMOOTH",
"481 72 OFFCURVE",
"474 85 OFFCURVE",
"448 88 CURVE",
"357 93 OFFCURVE",
"286 86 OFFCURVE",
"304 132 CURVE SMOOTH",
"466 537 LINE",
"404 495 LINE",
"934 494 LINE",
"873 536 LINE",
"1022 132 LINE SMOOTH",
"1039 85 OFFCURVE",
"989 93 OFFCURVE",
"898 88 CURVE",
"872 85 OFFCURVE",
"865 72 OFFCURVE",
"865 51 CURVE SMOOTH",
"865 36 OFFCURVE",
"876 0 OFFCURVE",
"899 0 CURVE SMOOTH",
"1531 0 LINE SMOOTH",
"1553 0 OFFCURVE",
"1565 36 OFFCURVE",
"1565 51 CURVE SMOOTH",
"1565 81 OFFCURVE",
"1557 85 OFFCURVE",
"1529 88 CURVE SMOOTH",
"1480 93 OFFCURVE",
"1404 75 OFFCURVE",
"1368 165 CURVE SMOOTH",
"853 1441 LINE",
"677 1441 LINE",
"179 165 LINE SMOOTH",
"145 79 OFFCURVE",
"75 93 OFFCURVE",
"26 88 CURVE SMOOTH",
"-2 85 OFFCURVE",
"-10 81 OFFCURVE",
"-10 51 CURVE SMOOTH",
"-10 24 OFFCURVE",
"2 0 OFFCURVE",
"24 0 CURVE SMOOTH"
);
},
{
closed = 1;
nodes = (
"674 1055 LINE",
"872 538 LINE",
"901 580 LINE",
"446 580 LINE",
"473 539 LINE"
);
}
);
width = 1552;
}
);
leftKerningGroup = A;
rightKerningGroup = A;
unicode = 0041;
},
{
glyphname = Aogonek;
lastChange = "2018-05-24 13:54:47 +0000";
layers = (
{
components = (
{
name = A;
}
);
layerId = "DD6F9F34-BC40-4E8F-B1D3-DF3B42A9710F";
paths = (
{
closed = 1;
nodes = (
"956 -120 OFFCURVE",
"1035 -36 OFFCURVE",
"1136 23 CURVE",
"1136 23 OFFCURVE",
"1214 16 OFFCURVE",
"1214 16 CURVE",
"1145 -36 OFFCURVE",
"1104 -125 OFFCURVE",
"1104 -198 CURVE SMOOTH",
"1104 -381 OFFCURVE",
"1303 -346 OFFCURVE",
"1351 -349 CURVE SMOOTH",
"1368 -350 OFFCURVE",
"1372 -367 OFFCURVE",
"1367 -393 CURVE SMOOTH",
"1364 -408 OFFCURVE",
"1352 -418 OFFCURVE",
"1337 -422 CURVE SMOOTH",
"1280 -438 OFFCURVE",
"1227 -448 OFFCURVE",
"1176 -448 CURVE SMOOTH",
"1049 -448 OFFCURVE",
"956 -345 OFFCURVE",
"956 -238 CURVE SMOOTH"
);
}
);
width = 1374;
},
{
layerId = "62CA62AF-CD91-478A-AB8B-28A62CC47DA0";
paths = (
{
closed = 1;
nodes = (
"467 0 LINE SMOOTH",
"490 0 OFFCURVE",
"491 36 OFFCURVE",
"491 51 CURVE SMOOTH",
"491 72 OFFCURVE",
"484 86 OFFCURVE",
"458 88 CURVE SMOOTH",
"375 95 OFFCURVE",
"293 86 OFFCURVE",
"293 120 CURVE SMOOTH",
"293 124 OFFCURVE",
"293 128 OFFCURVE",
"295 132 CURVE SMOOTH",
"389 379 LINE",
"922 379 LINE",
"1015 160 LINE SMOOTH",
"1022 142 OFFCURVE",
"1030 130 OFFCURVE",
"1030 116 CURVE SMOOTH",
"1030 93 OFFCURVE",
"959 91 OFFCURVE",
"873 88 CURVE SMOOTH",
"847 87 OFFCURVE",
"840 72 OFFCURVE",
"840 51 CURVE SMOOTH",
"840 36 OFFCURVE",
"851 0 OFFCURVE",
"874 0 CURVE SMOOTH",
"1176 0 LINE",
"1052 -53 OFFCURVE",
"917 -143 OFFCURVE",
"917 -273 CURVE SMOOTH {name = hr02;}",
"917 -365 OFFCURVE",
"995 -452 OFFCURVE",
"1147 -452 CURVE SMOOTH",
"1222 -452 OFFCURVE",
"1319 -437 OFFCURVE",
"1403 -394 CURVE",
"1417 -383 OFFCURVE",
"1390 -298 OFFCURVE",
"1380 -304 CURVE",
"1354 -315 OFFCURVE",
"1308 -330 OFFCURVE",
"1265 -330 CURVE SMOOTH",
"1208 -330 OFFCURVE",
"1155 -313 OFFCURVE",
"1155 -228 CURVE SMOOTH",
"1155 -162 OFFCURVE",
"1210 -67 OFFCURVE",
"1357 0 CURVE",
"1545 0 LINE SMOOTH",
"1567 0 OFFCURVE",
"1579 36 OFFCURVE",
"1579 51 CURVE SMOOTH",
"1579 132 OFFCURVE",
"1449 40 OFFCURVE",
"1392 165 CURVE SMOOTH {name = hr03;}",
"790 1482 LINE",
"705 1482 LINE",
"169 165 LINE SMOOTH",
"117 38 OFFCURVE",
"-20 131 OFFCURVE",
"-20 51 CURVE SMOOTH {name = hr04;}",
"-20 36 OFFCURVE",
"-18 0 OFFCURVE",
"4 0 CURVE SMOOTH {name = hr01;}"
);
},
{
closed = 1;
nodes = (
"641 1040 LINE",
"872 495 LINE",
"433 495 LINE"
);
}
);
width = 1552;
}
);
leftKerningGroup = A;
rightKerningGroup = A;
unicode = 0104;
},
{
glyphname = AE;
lastChange = "2018-07-10 04:21:37 +0000";
layers = (
{
anchors = (
{
name = btm;
position = "{963, -200}";
},
{
name = top;
position = "{1161, 2000}";
}
);
layerId = "DD6F9F34-BC40-4E8F-B1D3-DF3B42A9710F";
paths = (
{
closed = 1;
nodes = (
"474 0 LINE SMOOTH",
"497 0 OFFCURVE",
"508 36 OFFCURVE",
"508 51 CURVE SMOOTH",
"508 72 OFFCURVE",
"501 85 OFFCURVE",
"475 88 CURVE",
"354 93 OFFCURVE",
"294 98 OFFCURVE",
"317 142 CURVE SMOOTH",
"582 657 LINE",
"954 657 LINE",
"954 152 LINE SMOOTH",
"954 108 OFFCURVE",
"863 93 OFFCURVE",
"799 88 CURVE",
"773 85 OFFCURVE",
"766 72 OFFCURVE",
"766 51 CURVE SMOOTH",
"766 36 OFFCURVE",
"777 0 OFFCURVE",
"800 0 CURVE SMOOTH",
"1898 1 LINE",
"1941 412 LINE",
"1941 435 OFFCURVE",
"1915 446 OFFCURVE",
"1900 446 CURVE SMOOTH",
"1879 446 OFFCURVE",
"1856 439 OFFCURVE",
"1853 413 CURVE SMOOTH",
"1848 364 OFFCURVE",
"1722 101 OFFCURVE",
"1629 101 CURVE SMOOTH",
"1250 101 LINE",
"1206 105 OFFCURVE",
"1161 124 OFFCURVE",
"1161 197 CURVE SMOOTH",
"1161 657 LINE",
"1418 657 LINE SMOOTH",
"1474 657 OFFCURVE",
"1514 516 OFFCURVE",
"1519 473 CURVE SMOOTH",
"1522 447 OFFCURVE",
"1555 440 OFFCURVE",
"1576 440 CURVE SMOOTH",
"1591 440 OFFCURVE",
"1617 451 OFFCURVE",
"1617 474 CURVE SMOOTH",
"1617 917 LINE SMOOTH",
"1617 940 OFFCURVE",
"1591 951 OFFCURVE",
"1576 951 CURVE SMOOTH",
"1555 951 OFFCURVE",
"1522 944 OFFCURVE",
"1519 918 CURVE SMOOTH",
"1514 878 OFFCURVE",
"1476 750 OFFCURVE",
"1424 743 CURVE",
"1161 743 LINE",
"1162 1320 LINE",
"1559 1320 LINE SMOOTH",
"1667 1320 OFFCURVE",
"1760 1102 OFFCURVE",
"1765 1053 CURVE SMOOTH",
"1768 1027 OFFCURVE",
"1791 1020 OFFCURVE",
"1812 1020 CURVE SMOOTH",
"1827 1020 OFFCURVE",
"1853 1031 OFFCURVE",
"1853 1054 CURVE",
"1818 1418 LINE",
"577 1419 LINE SMOOTH",
"554 1419 OFFCURVE",
"543 1393 OFFCURVE",
"543 1378 CURVE SMOOTH",
"543 1348 OFFCURVE",
"551 1333 OFFCURVE",
"579 1331 CURVE SMOOTH",
"636 1326 OFFCURVE",
"729 1322 OFFCURVE",
"812 1318 CURVE",
"183 165 LINE SMOOTH",
"137 83 OFFCURVE",
"71 93 OFFCURVE",
"22 88 CURVE SMOOTH",
"-6 85 OFFCURVE",
"-14 81 OFFCURVE",
"-14 51 CURVE SMOOTH",
"-14 36 OFFCURVE",
"-2 0 OFFCURVE",
"20 0 CURVE SMOOTH"
);
},
{
closed = 1;
nodes = (
"920 1313 LINE",
"932 1312 OFFCURVE",
"943 1312 OFFCURVE",
"955 1311 CURVE",
"955 743 LINE",
"627 743 LINE"
);
}
);
width = 1988;
},
{
anchors = (
{
name = btm;
position = "{990, -200}";
},
{
name = top;
position = "{1295, 2000}";
}
);
layerId = "62CA62AF-CD91-478A-AB8B-28A62CC47DA0";
paths = (
{
closed = 1;
nodes = (
"481 0 LINE SMOOTH",
"504 0 OFFCURVE",
"515 36 OFFCURVE",
"515 51 CURVE SMOOTH",
"515 72 OFFCURVE",
"508 85 OFFCURVE",
"482 88 CURVE {name = hr02;}",
"312 88 OFFCURVE",
"284 113 OFFCURVE",
"321 186 CURVE SMOOTH",
"504 550 LINE",
"1011 550 LINE",
"1011 152 LINE SMOOTH",
"1011 108 OFFCURVE",
"920 93 OFFCURVE",
"856 88 CURVE {name = hr03;}",
"830 85 OFFCURVE",
"823 72 OFFCURVE",
"823 51 CURVE SMOOTH",
"823 36 OFFCURVE",
"834 0 OFFCURVE",
"857 0 CURVE SMOOTH",
"2134 0 LINE",
"2134 372 LINE",
"2136 395 OFFCURVE",
"2105 406 OFFCURVE",
"2085 406 CURVE SMOOTH",
"2054 406 OFFCURVE",
"2024 395 OFFCURVE",
"2016 370 CURVE SMOOTH",
"2001 320 OFFCURVE",
"1971 101 OFFCURVE",
"1828 101 CURVE SMOOTH",
"1439 101 LINE SMOOTH",
"1395 101 OFFCURVE",
"1350 124 OFFCURVE",
"1350 197 CURVE SMOOTH",
"1350 682 LINE",
"1621 682 LINE SMOOTH",
"1677 682 OFFCURVE",
"1722 546 OFFCURVE",
"1725 503 CURVE",
"1728 477 OFFCURVE",
"1753 470 OFFCURVE",
"1774 470 CURVE SMOOTH",
"1789 470 OFFCURVE",
"1815 481 OFFCURVE",
"1815 504 CURVE SMOOTH",
"1815 947 LINE SMOOTH",
"1815 970 OFFCURVE",
"1789 981 OFFCURVE",
"1774 981 CURVE SMOOTH",
"1753 981 OFFCURVE",
"1731 975 OFFCURVE",
"1728 949 CURVE SMOOTH",
"1723 909 OFFCURVE",
"1679 785 OFFCURVE",
"1627 778 CURVE",
"1350 778 LINE",
"1350 1320 LINE",
"1746 1320 LINE SMOOTH",
"1878 1320 OFFCURVE",
"1900 1175 OFFCURVE",
"1953 1093 CURVE SMOOTH",
"1968 1069 OFFCURVE",
"1992 1060 OFFCURVE",
"2013 1060 CURVE SMOOTH",
"2028 1060 OFFCURVE",
"2054 1071 OFFCURVE",
"2054 1094 CURVE",
"2019 1419 LINE",
"534 1419 LINE SMOOTH",
"511 1419 OFFCURVE",
"500 1393 OFFCURVE",
"500 1378 CURVE SMOOTH",
"500 1348 OFFCURVE",
"508 1333 OFFCURVE",
"536 1331 CURVE SMOOTH {name = hr04;}",
"585 1327 OFFCURVE",
"680 1319 OFFCURVE",
"776 1310 CURVE",
"165 165 LINE SMOOTH",
"121 82 OFFCURVE",
"28 93 OFFCURVE",
"-21 88 CURVE SMOOTH",
"-49 85 OFFCURVE",
"-57 81 OFFCURVE",
"-57 51 CURVE SMOOTH",
"-57 36 OFFCURVE",
"-45 0 OFFCURVE",
"-23 0 CURVE SMOOTH {name = hr01;}"
);
},
{
closed = 1;
nodes = (
"881 1300 LINE {name = hr06;}",
"933 1294 OFFCURVE",
"979 1288 OFFCURVE",
"1011 1283 CURVE",
"1011 646 LINE",
"552 646 LINE"
);
}
);
width = 2191;
}
);
leftKerningGroup = A;
rightKerningGroup = E;
unicode = 00C6;
},
{
color = 4;
glyphname = B;
lastChange = "2018-05-24 15:41:49 +0000";
layers = (
{
anchors = (
{
name = btm;
position = "{656, -200}";
},
{
name = top;
position = "{656, 2000}";
}
);
background = {
paths = (
{
closed = 1;
nodes = (
"727 0 LINE SMOOTH",
"966 0 OFFCURVE",
"1242 124 OFFCURVE",
"1242 416 CURVE SMOOTH",
"1242 677 OFFCURVE",
"1033 758 OFFCURVE",
"869 776 CURVE",
"1019 806 OFFCURVE",
"1157 913 OFFCURVE",
"1157 1100 CURVE SMOOTH",
"1157 1349 OFFCURVE",
"886 1419 OFFCURVE",
"645 1419 CURVE SMOOTH",
"463 1419 LINE",
"455 1322 LINE",
"588 1322 LINE SMOOTH",
"762 1322 OFFCURVE",
"949 1277 OFFCURVE",
"949 1073 CURVE SMOOTH",
"949 847 OFFCURVE",
"769 817 OFFCURVE",
"651 817 CURVE SMOOTH",
"450 817 LINE SMOOTH",
"450 817 OFFCURVE",
"450 721 OFFCURVE",
"450 721 CURVE",
"654 721 LINE SMOOTH",
"743 721 OFFCURVE",
"1026 713 OFFCURVE",
"1026 418 CURVE SMOOTH",
"1026 141 OFFCURVE",
"802 101 OFFCURVE",
"658 101 CURVE SMOOTH",
"503 101 OFFCURVE",
"495 138 OFFCURVE",
"495 138 CURVE",
"455 0 LINE"
);
},
{
closed = 1;
nodes = (
"609 0 LINE SMOOTH",
"631 0 OFFCURVE",
"643 16 OFFCURVE",
"643 31 CURVE SMOOTH",
"643 61 OFFCURVE",
"635 65 OFFCURVE",
"607 68 CURVE SMOOTH",
"558 73 OFFCURVE",
"495 19 OFFCURVE",
"495 105 CURVE SMOOTH",
"495 1347 LINE",
"543 1395 LINE",
"463 1419 LINE",
"105 1419 LINE SMOOTH",
"82 1419 OFFCURVE",
"71 1383 OFFCURVE",
"71 1368 CURVE SMOOTH",
"71 1338 OFFCURVE",
"79 1334 OFFCURVE",
"107 1331 CURVE",
"180 1326 OFFCURVE",
"289 1320 OFFCURVE",
"289 1234 CURVE SMOOTH",
"288 152 LINE SMOOTH",
"288 108 OFFCURVE",
"192 93 OFFCURVE",
"113 88 CURVE",
"87 85 OFFCURVE",
"80 72 OFFCURVE",
"80 51 CURVE SMOOTH",
"80 36 OFFCURVE",
"91 0 OFFCURVE",
"114 0 CURVE SMOOTH"
);
}
);
};
layerId = "DD6F9F34-BC40-4E8F-B1D3-DF3B42A9710F";
paths = (
{
closed = 1;
nodes = (
"727 0 LINE SMOOTH",
"966 0 OFFCURVE",
"1242 124 OFFCURVE",
"1242 416 CURVE SMOOTH",
"1242 691 OFFCURVE",
"1011 766 OFFCURVE",
"844 778 CURVE",
"840 771 LINE",
"1001 793 OFFCURVE",
"1157 901 OFFCURVE",
"1157 1100 CURVE SMOOTH",
"1157 1349 OFFCURVE",
"886 1419 OFFCURVE",
"645 1419 CURVE SMOOTH",
"105 1419 LINE SMOOTH",
"82 1419 OFFCURVE",
"71 1383 OFFCURVE",
"71 1368 CURVE SMOOTH",
"71 1338 OFFCURVE",
"79 1334 OFFCURVE",
"107 1331 CURVE",
"180 1326 OFFCURVE",
"289 1320 OFFCURVE",
"289 1234 CURVE SMOOTH",
"288 152 LINE SMOOTH",
"288 108 OFFCURVE",
"192 93 OFFCURVE",
"113 88 CURVE",
"87 85 OFFCURVE",
"80 72 OFFCURVE",
"80 51 CURVE SMOOTH",
"80 36 OFFCURVE",
"91 0 OFFCURVE",
"114 0 CURVE SMOOTH"
);
},
{
closed = 1;
nodes = (
"495 1334 LINE",
"608 1334 LINE SMOOTH",
"777 1334 OFFCURVE",
"946 1268 OFFCURVE",
"946 1085 CURVE SMOOTH",
"946 881 OFFCURVE",
"736 814 OFFCURVE",
"581 814 CURVE SMOOTH",
"495 814 LINE"
);
},
{
closed = 1;
nodes = (
"495 139 CURVE SMOOTH",
"495 718 LINE",
"584 718 LINE SMOOTH",
"728 718 OFFCURVE",
"1018 725 OFFCURVE",
"1023 430 CURVE SMOOTH",
"1028 141 OFFCURVE",
"790 102 OFFCURVE",
"651 102 CURVE SMOOTH",
"496 102 OFFCURVE",
"495 139 OFFCURVE"
);
}
);
width = 1339;
},
{
anchors = (
{
name = btm;
position = "{761, -200}";
},
{
name = top;
position = "{761, 2000}";
}
);
layerId = "62CA62AF-CD91-478A-AB8B-28A62CC47DA0";
paths = (
{
closed = 1;
nodes = (
"855 0 LINE SMOOTH",
"1249 0 OFFCURVE",
"1441 139 OFFCURVE",
"1441 421 CURVE SMOOTH",
"1441 684 OFFCURVE",
"1136 781 OFFCURVE",
"963 767 CURVE",
"964 767 LINE",
"1108 766 OFFCURVE",
"1344 881 OFFCURVE",
"1344 1110 CURVE SMOOTH",
"1344 1329 OFFCURVE",
"1145 1419 OFFCURVE",
"794 1419 CURVE SMOOTH",
"100 1419 LINE SMOOTH",
"77 1419 OFFCURVE",
"66 1383 OFFCURVE",
"66 1368 CURVE SMOOTH",
"66 1338 OFFCURVE",
"74 1334 OFFCURVE",
"102 1331 CURVE",
"175 1326 OFFCURVE",
"284 1320 OFFCURVE",
"284 1234 CURVE SMOOTH",
"283 152 LINE SMOOTH",
"283 108 OFFCURVE",
"187 93 OFFCURVE",
"108 88 CURVE",
"82 85 OFFCURVE",
"75 72 OFFCURVE",
"75 51 CURVE SMOOTH {name = hr00;}",
"75 36 OFFCURVE",
"86 0 OFFCURVE",
"109 0 CURVE SMOOTH"
);
},
{
closed = 1;
nodes = (
"620 1322 LINE",
"733 1322 LINE SMOOTH",
"902 1322 OFFCURVE",
"1017 1256 OFFCURVE",
"1017 1073 CURVE SMOOTH",
"1017 869 OFFCURVE",
"861 802 OFFCURVE",
"706 802 CURVE SMOOTH",
"620 802 LINE"
);
},
{
closed = 1;
nodes = (
"620 138 CURVE",
"620 706 LINE",
"709 706 LINE SMOOTH",
"853 706 OFFCURVE",
"1077 713 OFFCURVE",
"1077 418 CURVE SMOOTH",
"1077 141 OFFCURVE",
"915 101 OFFCURVE",
"776 101 CURVE SMOOTH",
"621 101 OFFCURVE",
"620 138 OFFCURVE"
);
}
);
width = 1550;
}
);
leftKerningGroup = H;
rightKerningGroup = B;
unicode = 0042;
},
{
color = 4;
glyphname = C;
lastChange = "2018-05-24 15:38:56 +0000";
layers = (
{
anchors = (
{
name = btm;
position = "{761, -200}";
},
{
name = top;
position = "{737, 2000}";
}
);
layerId = "DD6F9F34-BC40-4E8F-B1D3-DF3B42A9710F";
paths = (
{
closed = 1;
nodes = (
"1018 -30 OFFCURVE",
"1192 80 OFFCURVE",
"1196 108 CURVE SMOOTH",
"1228 372 LINE",
"1228 395 OFFCURVE",
"1183 406 OFFCURVE",
"1167 406 CURVE SMOOTH",
"1145 406 OFFCURVE",
"1135 399 OFFCURVE",
"1130 373 CURVE SMOOTH",
"1098 200 OFFCURVE",
"996 65 OFFCURVE",
"764 65 CURVE SMOOTH",
"605 65 OFFCURVE",
"327 152 OFFCURVE",
"327 706 CURVE SMOOTH",
"327 1289 OFFCURVE",
"581 1353 OFFCURVE",
"752 1353 CURVE SMOOTH",
"988 1354 OFFCURVE",
"1110 1207 OFFCURVE",
"1157 1039 CURVE",
"1161 1013 OFFCURVE",
"1181 1008 OFFCURVE",
"1203 1011 CURVE SMOOTH",
"1219 1013 OFFCURVE",
"1242 1028 OFFCURVE",
"1239 1051 CURVE",
"1217 1361 LINE",
"1146 1392 OFFCURVE",
"1019 1449 OFFCURVE",
"754 1449 CURVE SMOOTH",
"466 1449 OFFCURVE",
"78 1235 OFFCURVE",
"78 706 CURVE SMOOTH",
"78 144 OFFCURVE",
"444 -30 OFFCURVE",
"765 -30 CURVE SMOOTH"
);
}
);
width = 1315;
},
{
anchors = (
{
name = btm;
position = "{829, -200}";
},
{
name = top;
position = "{837, 2000}";
}
);
layerId = "62CA62AF-CD91-478A-AB8B-28A62CC47DA0";
paths = (
{
closed = 1;
nodes = (
"1130 -30 OFFCURVE",
"1330 80 OFFCURVE",
"1334 108 CURVE SMOOTH",
"1362 402 LINE",
"1362 425 OFFCURVE",
"1307 436 OFFCURVE",
"1291 436 CURVE SMOOTH",
"1269 436 OFFCURVE",
"1248 429 OFFCURVE",
"1243 403 CURVE SMOOTH",
"1214 220 OFFCURVE",
"1094 65 OFFCURVE",
"891 65 CURVE SMOOTH",
"731 65 OFFCURVE",
"460 152 OFFCURVE",
"460 706 CURVE SMOOTH",
"460 1289 OFFCURVE",
"706 1353 OFFCURVE",
"869 1353 CURVE SMOOTH",
"1097 1353 OFFCURVE",
"1179 1210 OFFCURVE",
"1214 1039 CURVE SMOOTH",
"1220 1013 OFFCURVE",
"1283 1008 OFFCURVE",
"1305 1011 CURVE SMOOTH",
"1322 1013 OFFCURVE",
"1364 1028 OFFCURVE",
"1361 1051 CURVE",
"1344 1361 LINE",
"1290 1360 OFFCURVE",
"1196 1449 OFFCURVE",
"871 1449 CURVE SMOOTH",
"519 1449 OFFCURVE",
"81 1235 OFFCURVE",
"81 706 CURVE SMOOTH {name = hr00;}",
"81 144 OFFCURVE",
"491 -30 OFFCURVE",
"892 -30 CURVE SMOOTH"
);
}
);
width = 1464;
}
);
leftKerningGroup = O;
rightKerningGroup = C;
unicode = 0043;
},
{
glyphname = Ccedilla;
lastChange = "2018-05-24 13:54:47 +0000";
layers = (
{
components = (
{
name = C;
},
{
name = cedilla;
transform = "{1, 0, 0, 1, 330, 0}";
}
);
layerId = "DD6F9F34-BC40-4E8F-B1D3-DF3B42A9710F";
width = 1315;
},
{
layerId = "62CA62AF-CD91-478A-AB8B-28A62CC47DA0";
paths = (
{
closed = 1;
nodes = (
"81 217 OFFCURVE",
"391 21 OFFCURVE",
"736 -21 CURVE {name = hr02;}",
"729 -144 LINE",
"731 -144 LINE",
"729 -145 LINE",
"850 -177 OFFCURVE",
"868 -214 OFFCURVE",
"868 -258 CURVE SMOOTH {name = hr03;}",
"868 -313 OFFCURVE",
"782 -333 OFFCURVE",
"638 -316 CURVE SMOOTH",
"611 -313 OFFCURVE",
"602 -354 OFFCURVE",
"602 -380 CURVE SMOOTH",
"602 -395 OFFCURVE",
"607 -403 OFFCURVE",
"622 -408 CURVE SMOOTH",
"658 -420 OFFCURVE",
"720 -438 OFFCURVE",
"829 -438 CURVE SMOOTH",
"1022 -438 OFFCURVE",
"1113 -368 OFFCURVE",
"1113 -279 CURVE SMOOTH",
"1113 -185 OFFCURVE",
"1044 -114 OFFCURVE",
"896 -91 CURVE {name = hr04;}",
"896 -30 LINE",
"1132 -29 OFFCURVE",
"1330 80 OFFCURVE",
"1334 108 CURVE",
"1362 402 LINE",
"1362 425 OFFCURVE",
"1307 436 OFFCURVE",
"1291 436 CURVE SMOOTH",
"1269 436 OFFCURVE",
"1248 429 OFFCURVE",
"1243 403 CURVE",
"1214 220 OFFCURVE",
"1094 65 OFFCURVE",
"891 65 CURVE SMOOTH",
"731 65 OFFCURVE",
"460 152 OFFCURVE",
"460 706 CURVE SMOOTH",
"460 1289 OFFCURVE",
"706 1353 OFFCURVE",
"869 1353 CURVE SMOOTH",
"1097 1353 OFFCURVE",
"1179 1210 OFFCURVE",
"1214 1039 CURVE SMOOTH",
"1220 1013 OFFCURVE",
"1283 1008 OFFCURVE",
"1305 1011 CURVE SMOOTH",
"1322 1013 OFFCURVE",
"1364 1028 OFFCURVE",
"1361 1051 CURVE",
"1344 1361 LINE",
"1290 1360 OFFCURVE",
"1196 1449 OFFCURVE",
"871 1449 CURVE SMOOTH",
"519 1449 OFFCURVE",
"81 1235 OFFCURVE",
"81 706 CURVE SMOOTH {name = hr01;}"
);
}
);
width = 1464;
}
);
leftKerningGroup = O;
rightKerningGroup = C;
unicode = 00C7;
},
{
color = 4;
glyphname = D;
lastChange = "2018-05-24 15:44:17 +0000";
layers = (
{
anchors = (
{
name = btm;
position = "{788, -200}";
},
{
name = top;
position = "{788, 2000}";
}
);
background = {
paths = (
{
closed = 1;
nodes = (
"600 1419 LINE",
"135 1419 LINE SMOOTH",
"112 1419 OFFCURVE",
"101 1383 OFFCURVE",
"101 1368 CURVE SMOOTH",
"101 1338 OFFCURVE",
"109 1334 OFFCURVE",
"137 1331 CURVE SMOOTH",
"198 1326 OFFCURVE",
"289 1320 OFFCURVE",
"289 1234 CURVE SMOOTH",
"288 152 LINE SMOOTH",
"288 108 OFFCURVE",
"207 93 OFFCURVE",
"143 88 CURVE SMOOTH",
"117 85 OFFCURVE",
"110 72 OFFCURVE",
"110 51 CURVE SMOOTH",
"110 36 OFFCURVE",
"121 0 OFFCURVE",
"144 0 CURVE SMOOTH",
"609 0 LINE SMOOTH",
"643 0 OFFCURVE",
"663 16 OFFCURVE",
"663 31 CURVE SMOOTH",
"663 61 OFFCURVE",
"651 65 OFFCURVE",
"607 68 CURVE SMOOTH",
"558 73 OFFCURVE",
"495 49 OFFCURVE",
"495 135 CURVE SMOOTH",
"496 1342 LINE"
);
},
{
closed = 1;
nodes = (
"460 1417 OFFCURVE",
"446 1322 OFFCURVE",
"446 1322 CURVE",
"446 1322 OFFCURVE",
"533 1322 OFFCURVE",
"718 1322 CURVE SMOOTH",
"951 1322 OFFCURVE",
"1209 1229 OFFCURVE",
"1209 734 CURVE SMOOTH",
"1209 161 OFFCURVE",
"941 101 OFFCURVE",
"698 101 CURVE SMOOTH",
"524 101 OFFCURVE",
"495 140 OFFCURVE",
"495 168 CURVE",
"495 168 OFFCURVE",
"455 0 OFFCURVE",
"455 0 CURVE",
"455 0 OFFCURVE",
"536 0 OFFCURVE",
"767 0 CURVE SMOOTH",
"1067 0 OFFCURVE",
"1455 217 OFFCURVE",
"1455 738 CURVE SMOOTH",
"1455 1083 OFFCURVE",
"1269 1417 OFFCURVE",
"725 1419 CURVE",
"463 1419 LINE"
);
}
);
};
layerId = "DD6F9F34-BC40-4E8F-B1D3-DF3B42A9710F";
paths = (
{
closed = 1;
nodes = (
"777 0 LINE SMOOTH",
"1077 0 OFFCURVE",
"1455 217 OFFCURVE",
"1455 738 CURVE SMOOTH",
"1455 1083 OFFCURVE",
"1269 1417 OFFCURVE",
"725 1419 CURVE",
"129 1419 LINE SMOOTH",
"106 1419 OFFCURVE",
"95 1383 OFFCURVE",
"95 1368 CURVE SMOOTH",
"95 1338 OFFCURVE",
"103 1334 OFFCURVE",
"131 1331 CURVE SMOOTH",
"192 1326 OFFCURVE",
"283 1320 OFFCURVE",
"283 1234 CURVE SMOOTH",
"283 152 LINE SMOOTH",
"283 108 OFFCURVE",
"202 93 OFFCURVE",
"138 88 CURVE",
"112 85 OFFCURVE",
"105 72 OFFCURVE",
"105 51 CURVE SMOOTH {name = hr00;}",
"105 36 OFFCURVE",
"116 0 OFFCURVE",
"139 0 CURVE SMOOTH"
);
},
{
closed = 1;
nodes = (
"496 1322 LINE",
"693 1322 LINE SMOOTH",
"926 1322 OFFCURVE",
"1209 1229 OFFCURVE",
"1209 734 CURVE SMOOTH",
"1209 161 OFFCURVE",
"946 101 OFFCURVE",
"703 101 CURVE SMOOTH",
"529 101 OFFCURVE",
"495 140 OFFCURVE",
"495 168 CURVE SMOOTH"
);
}
);
width = 1534;
},
{
anchors = (
{
name = btm;
position = "{835, -200}";
},
{
name = top;
position = "{835, 2000}";
}
);
layerId = "62CA62AF-CD91-478A-AB8B-28A62CC47DA0";
paths = (
{
closed = 1;
nodes = (
"897 0 LINE SMOOTH",
"1197 0 OFFCURVE",
"1635 217 OFFCURVE",
"1635 738 CURVE SMOOTH",
"1635 1083 OFFCURVE",
"1369 1417 OFFCURVE",
"825 1419 CURVE",
"129 1419 LINE SMOOTH",
"106 1419 OFFCURVE",
"95 1383 OFFCURVE",
"95 1368 CURVE SMOOTH",
"95 1338 OFFCURVE",
"103 1334 OFFCURVE",
"131 1331 CURVE SMOOTH",
"192 1326 OFFCURVE",
"283 1320 OFFCURVE",
"283 1234 CURVE SMOOTH",
"283 152 LINE SMOOTH",
"283 108 OFFCURVE",
"202 93 OFFCURVE",
"138 88 CURVE",
"112 85 OFFCURVE",
"105 72 OFFCURVE",
"105 51 CURVE SMOOTH {name = hr00;}",
"105 36 OFFCURVE",
"116 0 OFFCURVE",
"139 0 CURVE SMOOTH"
);
},
{
closed = 1;
nodes = (
"621 1322 LINE",
"818 1322 LINE SMOOTH",
"1051 1322 OFFCURVE",
"1245 1229 OFFCURVE",
"1245 734 CURVE SMOOTH",
"1245 161 OFFCURVE",
"1071 101 OFFCURVE",
"828 101 CURVE SMOOTH",
"654 101 OFFCURVE",
"620 140 OFFCURVE",
"620 168 CURVE SMOOTH"
);
}
);
width = 1708;
}
);
leftKerningGroup = H;
rightKerningGroup = O;
unicode = 0044;
},
{
glyphname = Eth;
lastChange = "2018-07-10 04:22:50 +0000";
layers = (
{
components = (
{
name = D;
}
);
layerId = "DD6F9F34-BC40-4E8F-B1D3-DF3B42A9710F";
paths = (
{
closed = 1;
nodes = (
"788 694 LINE",
"802 700 OFFCURVE",
"812 722 OFFCURVE",
"812 747 CURVE SMOOTH",
"812 763 OFFCURVE",
"804 780 OFFCURVE",
"788 781 CURVE",
"149 781 LINE",
"135 775 OFFCURVE",
"125 753 OFFCURVE",
"125 728 CURVE SMOOTH",
"125 712 OFFCURVE",
"133 695 OFFCURVE",
"149 694 CURVE"
);
}
);
width = 1534;
},
{
components = (
{
name = D;
}
);
layerId = "62CA62AF-CD91-478A-AB8B-28A62CC47DA0";
paths = (
{
closed = 1;
nodes = (
"918 694 LINE",
"932 700 OFFCURVE",
"942 722 OFFCURVE",
"942 747 CURVE SMOOTH",
"942 763 OFFCURVE",
"934 790 OFFCURVE",
"918 791 CURVE",
"149 791 LINE",
"135 785 OFFCURVE",
"125 753 OFFCURVE",
"125 728 CURVE SMOOTH",
"125 712 OFFCURVE",
"133 695 OFFCURVE",
"149 694 CURVE"
);
}
);
width = 1708;
}
);
leftKerningGroup = H;
rightKerningGroup = O;
unicode = 00D0;
},
{
glyphname = E;
lastChange = "2018-05-24 15:45:53 +0000";
layers = (
{
anchors = (
{
name = btm;
position = "{696, -200}";
},
{
name = top;
position = "{696, 2000}";
}
);
background = {
paths = (
{
closed = 1;
nodes = (
"609 0 LINE SMOOTH",
"631 0 OFFCURVE",
"643 16 OFFCURVE",
"643 31 CURVE SMOOTH",
"643 61 OFFCURVE",
"659 100 OFFCURVE",
"607 100 CURVE SMOOTH",
"558 100 OFFCURVE",
"495 111 OFFCURVE",
"495 197 CURVE SMOOTH",
"496 1335 LINE",
"600 1419 LINE",
"135 1419 LINE SMOOTH",
"112 1419 OFFCURVE",
"101 1383 OFFCURVE",
"101 1368 CURVE SMOOTH",
"101 1338 OFFCURVE",
"109 1334 OFFCURVE",
"137 1331 CURVE SMOOTH",
"198 1326 OFFCURVE",
"289 1320 OFFCURVE",
"289 1234 CURVE SMOOTH",
"288 152 LINE SMOOTH",
"288 108 OFFCURVE",
"207 93 OFFCURVE",
"143 88 CURVE SMOOTH",
"117 85 OFFCURVE",
"110 72 OFFCURVE",
"110 51 CURVE SMOOTH",
"110 36 OFFCURVE",
"121 0 OFFCURVE",
"144 0 CURVE SMOOTH"
);
},
{
closed = 1;
nodes = (
"1253 1 LINE",
"1296 372 LINE",
"1296 395 OFFCURVE",
"1281 406 OFFCURVE",
"1256 406 CURVE SMOOTH",
"1235 406 OFFCURVE",
"1207 398 OFFCURVE",
"1199 373 CURVE SMOOTH",
"1186 332 OFFCURVE",
"1072 101 OFFCURVE",
"979 101 CURVE SMOOTH",
"377 101 LINE",
"344 1 LINE"
);
},
{
closed = 1;
nodes = (
"936 470 OFFCURVE",
"962 481 OFFCURVE",
"962 504 CURVE SMOOTH",
"962 947 LINE SMOOTH",
"962 970 OFFCURVE",
"936 981 OFFCURVE",
"921 981 CURVE SMOOTH",
"900 981 OFFCURVE",
"872 974 OFFCURVE",
"869 948 CURVE SMOOTH",
"864 908 OFFCURVE",
"826 780 OFFCURVE",
"774 773 CURVE",
"399 773 LINE",
"399 687 LINE",
"768 687 LINE SMOOTH",
"824 687 OFFCURVE",
"864 546 OFFCURVE",
"869 503 CURVE SMOOTH",
"872 477 OFFCURVE",
"900 470 OFFCURVE",
"921 470 CURVE SMOOTH"
);
},
{
closed = 1;
nodes = (
"1183 1060 OFFCURVE",
"1209 1071 OFFCURVE",
"1209 1094 CURVE SMOOTH",
"1174 1418 LINE",
"600 1419 LINE",
"377 1320 LINE",
"909 1320 LINE SMOOTH",
"1017 1320 OFFCURVE",
"1110 1134 OFFCURVE",
"1115 1093 CURVE SMOOTH",
"1118 1067 OFFCURVE",
"1147 1060 OFFCURVE",
"1168 1060 CURVE SMOOTH"
);
}
);
};
layerId = "DD6F9F34-BC40-4E8F-B1D3-DF3B42A9710F";
paths = (
{
closed = 1;
nodes = (
"104 36 OFFCURVE",
"115 0 OFFCURVE",
"138 0 CURVE SMOOTH",
"1124 1 LINE",
"1174 373 LINE",
"1171 396 OFFCURVE",
"1150 407 OFFCURVE",
"1125 407 CURVE SMOOTH",
"1104 407 OFFCURVE",
"1063 399 OFFCURVE",
"1057 374 CURVE SMOOTH",
"1009 173 OFFCURVE",
"917 103 OFFCURVE",
"797 102 CURVE SMOOTH",
"586 101 LINE",
"542 105 OFFCURVE",
"497 124 OFFCURVE",
"497 197 CURVE SMOOTH",
"497 682 LINE",
"645 683 LINE SMOOTH",
"701 683 OFFCURVE",
"746 547 OFFCURVE",
"749 504 CURVE",
"752 478 OFFCURVE",
"777 471 OFFCURVE",
"798 471 CURVE SMOOTH",
"813 471 OFFCURVE",
"839 482 OFFCURVE",
"839 505 CURVE SMOOTH",
"839 948 LINE SMOOTH",
"839 971 OFFCURVE",
"813 982 OFFCURVE",
"798 982 CURVE SMOOTH",
"777 982 OFFCURVE",
"755 976 OFFCURVE",
"752 950 CURVE SMOOTH",
"747 910 OFFCURVE",
"703 786 OFFCURVE",
"651 779 CURVE",
"497 778 LINE",
"497 1320 LINE",
"777 1321 LINE SMOOTH",
"885 1321 OFFCURVE",
"903 1244 OFFCURVE",
"983 1094 CURVE SMOOTH",
"999 1064 OFFCURVE",
"1026 1061 OFFCURVE",
"1047 1061 CURVE SMOOTH",
"1062 1061 OFFCURVE",
"1086 1072 OFFCURVE",
"1084 1095 CURVE SMOOTH",
"1049 1420 LINE",
"129 1419 LINE SMOOTH",
"106 1419 OFFCURVE",
"95 1383 OFFCURVE",
"95 1368 CURVE SMOOTH",
"95 1338 OFFCURVE",
"103 1334 OFFCURVE",
"131 1331 CURVE SMOOTH",
"192 1326 OFFCURVE",
"283 1320 OFFCURVE",
"283 1234 CURVE SMOOTH",
"283 152 LINE SMOOTH",
"283 108 OFFCURVE",
"201 93 OFFCURVE",
"137 88 CURVE",
"111 85 OFFCURVE",
"104 72 OFFCURVE",
"104 51 CURVE SMOOTH {name = hr00;}"
);
}
);
width = 1338;
},
{
anchors = (
{
name = btm;
position = "{748, -200}";
},
{
name = top;
position = "{795, 2000}";
}
);
layerId = "62CA62AF-CD91-478A-AB8B-28A62CC47DA0";
paths = (
{
closed = 1;
nodes = (
"104 36 OFFCURVE",
"115 0 OFFCURVE",
"138 0 CURVE SMOOTH",
"1363 0 LINE",
"1403 372 LINE",
"1400 395 OFFCURVE",
"1379 406 OFFCURVE",
"1354 406 CURVE SMOOTH",
"1333 406 OFFCURVE",
"1297 397 OFFCURVE",
"1286 373 CURVE SMOOTH",
"1197 172 OFFCURVE",
"1156 101 OFFCURVE",
"1036 101 CURVE SMOOTH",
"708 101 LINE",
"664 105 OFFCURVE",
"619 124 OFFCURVE",
"619 197 CURVE SMOOTH",
"619 682 LINE",
"892 682 LINE SMOOTH",
"948 682 OFFCURVE",
"993 546 OFFCURVE",
"996 503 CURVE",
"999 477 OFFCURVE",
"1024 470 OFFCURVE",
"1045 470 CURVE SMOOTH",
"1060 470 OFFCURVE",
"1086 481 OFFCURVE",
"1086 504 CURVE SMOOTH",
"1086 947 LINE SMOOTH",
"1086 970 OFFCURVE",
"1060 981 OFFCURVE",
"1045 981 CURVE SMOOTH",
"1024 981 OFFCURVE",
"1002 975 OFFCURVE",
"999 949 CURVE SMOOTH",
"994 909 OFFCURVE",
"950 785 OFFCURVE",
"898 778 CURVE",
"619 778 LINE",
"619 1320 LINE",
"1016 1320 LINE SMOOTH",
"1124 1320 OFFCURVE",
"1142 1243 OFFCURVE",
"1222 1093 CURVE SMOOTH",
"1238 1063 OFFCURVE",
"1265 1060 OFFCURVE",
"1286 1060 CURVE SMOOTH",
"1301 1060 OFFCURVE",
"1325 1071 OFFCURVE",
"1323 1094 CURVE SMOOTH",
"1288 1419 LINE",
"129 1419 LINE SMOOTH",
"106 1419 OFFCURVE",
"95 1383 OFFCURVE",
"95 1368 CURVE SMOOTH",
"95 1338 OFFCURVE",
"103 1334 OFFCURVE",
"131 1331 CURVE SMOOTH",
"192 1326 OFFCURVE",
"283 1320 OFFCURVE",
"283 1234 CURVE SMOOTH",
"283 152 LINE SMOOTH",
"283 108 OFFCURVE",
"201 93 OFFCURVE",
"137 88 CURVE",
"111 85 OFFCURVE",
"104 72 OFFCURVE",
"104 51 CURVE SMOOTH {name = hr00;}"
);
}
);
width = 1477;
}
);
leftKerningGroup = H;
rightKerningGroup = E;
unicode = 0045;
},
{
glyphname = Eogonek;
lastChange = "2018-05-24 13:54:47 +0000";
layers = (
{
components = (
{
name = E;
}
);
layerId = "DD6F9F34-BC40-4E8F-B1D3-DF3B42A9710F";
paths = (
{
closed = 1;
nodes = (
"826 -120 OFFCURVE",
"905 -36 OFFCURVE",
"1006 23 CURVE",
"1006 23 OFFCURVE",
"1084 16 OFFCURVE",
"1084 16 CURVE",
"1015 -36 OFFCURVE",
"974 -125 OFFCURVE",
"974 -198 CURVE SMOOTH",
"974 -381 OFFCURVE",
"1173 -346 OFFCURVE",
"1221 -349 CURVE SMOOTH",
"1238 -350 OFFCURVE",
"1242 -367 OFFCURVE",
"1237 -393 CURVE SMOOTH",
"1234 -408 OFFCURVE",
"1222 -418 OFFCURVE",
"1207 -422 CURVE SMOOTH",
"1150 -438 OFFCURVE",
"1097 -448 OFFCURVE",
"1046 -448 CURVE SMOOTH",
"919 -448 OFFCURVE",
"826 -345 OFFCURVE",
"826 -238 CURVE SMOOTH"
);
}
);
width = 1338;
},
{
layerId = "62CA62AF-CD91-478A-AB8B-28A62CC47DA0";
paths = (
{
closed = 1;
nodes = (
"98 36 OFFCURVE",
"109 0 OFFCURVE",
"132 0 CURVE SMOOTH",
"1136 0 LINE",
"1012 -53 OFFCURVE",
"877 -143 OFFCURVE",
"877 -273 CURVE SMOOTH",
"877 -365 OFFCURVE",
"955 -452 OFFCURVE",
"1107 -452 CURVE SMOOTH",
"1182 -452 OFFCURVE",
"1279 -437 OFFCURVE",
"1363 -394 CURVE",
"1377 -383 OFFCURVE",
"1350 -298 OFFCURVE",
"1340 -304 CURVE",
"1314 -315 OFFCURVE",
"1268 -330 OFFCURVE",
"1225 -330 CURVE SMOOTH",
"1168 -330 OFFCURVE",
"1115 -313 OFFCURVE",
"1115 -228 CURVE SMOOTH",
"1115 -162 OFFCURVE",
"1170 -67 OFFCURVE",
"1317 0 CURVE",
"1397 0 LINE",
"1397 372 LINE",
"1394 395 OFFCURVE",
"1373 406 OFFCURVE",
"1348 406 CURVE SMOOTH",
"1327 406 OFFCURVE",
"1286 398 OFFCURVE",
"1280 373 CURVE SMOOTH",
"1231 172 OFFCURVE",
"1190 101 OFFCURVE",
"1070 101 CURVE SMOOTH",
"702 101 LINE",
"658 105 OFFCURVE",
"613 124 OFFCURVE",
"613 197 CURVE SMOOTH",
"613 682 LINE",
"886 682 LINE SMOOTH",
"942 682 OFFCURVE",
"987 546 OFFCURVE",
"990 503 CURVE",
"993 477 OFFCURVE",
"1018 470 OFFCURVE",
"1039 470 CURVE SMOOTH",
"1054 470 OFFCURVE",
"1080 481 OFFCURVE",
"1080 504 CURVE SMOOTH",
"1080 947 LINE SMOOTH",
"1080 970 OFFCURVE",
"1054 981 OFFCURVE",
"1039 981 CURVE SMOOTH",
"1018 981 OFFCURVE",
"996 975 OFFCURVE",
"993 949 CURVE SMOOTH",
"988 909 OFFCURVE",
"944 785 OFFCURVE",
"892 778 CURVE",
"613 778 LINE",
"613 1320 LINE",
"1010 1320 LINE SMOOTH",
"1118 1320 OFFCURVE",
"1136 1243 OFFCURVE",
"1216 1093 CURVE SMOOTH",
"1232 1063 OFFCURVE",
"1259 1060 OFFCURVE",
"1280 1060 CURVE SMOOTH",
"1295 1060 OFFCURVE",
"1319 1071 OFFCURVE",
"1317 1094 CURVE SMOOTH",
"1282 1419 LINE",
"123 1419 LINE SMOOTH",
"100 1419 OFFCURVE",
"89 1383 OFFCURVE",
"89 1368 CURVE SMOOTH",
"89 1338 OFFCURVE",
"97 1334 OFFCURVE",
"125 1331 CURVE SMOOTH",
"186 1326 OFFCURVE",
"277 1320 OFFCURVE",
"277 1234 CURVE SMOOTH",
"277 152 LINE SMOOTH",
"277 108 OFFCURVE",
"195 93 OFFCURVE",
"131 88 CURVE",
"105 85 OFFCURVE",
"98 72 OFFCURVE",
"98 51 CURVE SMOOTH {name = hr00;}"
);
}
);
width = 1477;
}
);
leftKerningGroup = H;
rightKerningGroup = E;
unicode = 0118;
},
{
glyphname = F;
lastChange = "2018-07-10 04:23:50 +0000";
layers = (
{
anchors = (
{
name = btm;
position = "{620, -200}";
},
{
name = top;
position = "{620, 2000}";
}
);
layerId = "DD6F9F34-BC40-4E8F-B1D3-DF3B42A9710F";
paths = (
{
closed = 1;
nodes = (
"719 0 LINE SMOOTH",
"742 0 OFFCURVE",
"753 36 OFFCURVE",
"753 51 CURVE SMOOTH",
"753 81 OFFCURVE",
"739 88 OFFCURVE",
"717 88 CURVE SMOOTH",
"632 88 OFFCURVE",
"495 111 OFFCURVE",
"495 197 CURVE SMOOTH",
"495 655 LINE",
"753 655 LINE SMOOTH",
"809 655 OFFCURVE",
"849 514 OFFCURVE",
"854 471 CURVE SMOOTH",
"857 445 OFFCURVE",
"885 438 OFFCURVE",
"906 438 CURVE SMOOTH",
"921 438 OFFCURVE",
"947 449 OFFCURVE",
"947 472 CURVE SMOOTH",
"947 915 LINE SMOOTH",
"947 938 OFFCURVE",
"921 949 OFFCURVE",
"906 949 CURVE SMOOTH",
"885 949 OFFCURVE",
"857 942 OFFCURVE",
"854 916 CURVE SMOOTH",
"849 876 OFFCURVE",
"811 748 OFFCURVE",
"759 741 CURVE",
"495 741 LINE",
"495 1320 LINE",
"874 1320 LINE SMOOTH",
"982 1320 OFFCURVE",
"1077 1108 OFFCURVE",
"1082 1069 CURVE SMOOTH",
"1085 1043 OFFCURVE",
"1104 1036 OFFCURVE",
"1125 1036 CURVE SMOOTH",
"1140 1036 OFFCURVE",
"1166 1047 OFFCURVE",
"1166 1070 CURVE",
"1129 1418 LINE",
"105 1419 LINE SMOOTH",
"82 1419 OFFCURVE",
"71 1383 OFFCURVE",
"71 1368 CURVE SMOOTH",
"71 1338 OFFCURVE",
"79 1334 OFFCURVE",
"107 1331 CURVE",
"180 1326 OFFCURVE",
"289 1320 OFFCURVE",
"289 1234 CURVE SMOOTH",
"288 152 LINE SMOOTH",
"288 108 OFFCURVE",
"192 93 OFFCURVE",
"113 88 CURVE",
"87 85 OFFCURVE",
"80 72 OFFCURVE",
"80 51 CURVE SMOOTH",
"80 36 OFFCURVE",
"91 0 OFFCURVE",
"114 0 CURVE SMOOTH"
);
}
);
width = 1227;
},
{
anchors = (
{
name = btm;
position = "{703, -200}";
},
{
name = top;
position = "{703, 2000}";
}
);
layerId = "62CA62AF-CD91-478A-AB8B-28A62CC47DA0";
paths = (
{
closed = 1;
nodes = (
"843 0 LINE SMOOTH",
"866 0 OFFCURVE",
"877 36 OFFCURVE",
"877 51 CURVE SMOOTH",
"877 81 OFFCURVE",
"863 88 OFFCURVE",
"841 88 CURVE SMOOTH",
"756 88 OFFCURVE",
"619 111 OFFCURVE",
"619 197 CURVE SMOOTH",
"619 650 LINE",
"892 650 LINE SMOOTH",
"948 650 OFFCURVE",
"993 514 OFFCURVE",
"996 471 CURVE",
"999 445 OFFCURVE",
"1024 438 OFFCURVE",
"1045 438 CURVE SMOOTH",
"1060 438 OFFCURVE",
"1086 449 OFFCURVE",
"1086 472 CURVE SMOOTH",
"1086 915 LINE SMOOTH",
"1086 938 OFFCURVE",
"1060 949 OFFCURVE",
"1045 949 CURVE SMOOTH",
"1024 949 OFFCURVE",
"1002 943 OFFCURVE",
"999 917 CURVE SMOOTH",
"994 877 OFFCURVE",
"950 753 OFFCURVE",
"898 746 CURVE",
"619 746 LINE",
"619 1320 LINE",
"996 1320 LINE SMOOTH",
"1104 1320 OFFCURVE",
"1126 1219 OFFCURVE",
"1206 1069 CURVE SMOOTH",
"1222 1039 OFFCURVE",
"1262 1036 OFFCURVE",
"1283 1036 CURVE SMOOTH",
"1298 1036 OFFCURVE",
"1320 1047 OFFCURVE",
"1320 1070 CURVE",
"1281 1418 LINE",
"99 1419 LINE SMOOTH",
"76 1419 OFFCURVE",
"65 1383 OFFCURVE",
"65 1368 CURVE SMOOTH",
"65 1338 OFFCURVE",
"73 1334 OFFCURVE",
"101 1331 CURVE",
"174 1326 OFFCURVE",
"283 1320 OFFCURVE",
"283 1234 CURVE SMOOTH",
"283 152 LINE SMOOTH",
"283 108 OFFCURVE",
"186 93 OFFCURVE",
"107 88 CURVE",
"81 85 OFFCURVE",
"74 72 OFFCURVE",
"74 51 CURVE SMOOTH {name = hr00;}",
"74 36 OFFCURVE",
"85 0 OFFCURVE",
"108 0 CURVE SMOOTH"
);
}
);
width = 1374;
}
);
leftKerningGroup = H;
rightKerningGroup = F;
unicode = 0046;
},
{
glyphname = G;
lastChange = "2018-07-10 04:24:06 +0000";
layers = (
{
anchors = (
{
name = btm;
position = "{766, -200}";
},
{
name = top;
position = "{766, 2000}";
}
);
layerId = "DD6F9F34-BC40-4E8F-B1D3-DF3B42A9710F";
paths = (
{
closed = 1;
nodes = (
"1082 -30 OFFCURVE",
"1261 79 OFFCURVE",
"1293 123 CURVE",
"1286 489 LINE",
"1286 533 OFFCURVE",
"1352 548 OFFCURVE",
"1411 553 CURVE SMOOTH",
"1437 556 OFFCURVE",
"1444 569 OFFCURVE",
"1444 590 CURVE SMOOTH",
"1444 605 OFFCURVE",
"1433 641 OFFCURVE",
"1410 641 CURVE SMOOTH",
"895 641 LINE SMOOTH",
"872 641 OFFCURVE",
"861 605 OFFCURVE",
"861 590 CURVE SMOOTH",
"861 560 OFFCURVE",
"869 556 OFFCURVE",
"897 553 CURVE",
"974 548 OFFCURVE",
"1083 542 OFFCURVE",
"1083 456 CURVE SMOOTH",
"1083 199 LINE SMOOTH",
"1083 135 OFFCURVE",
"1012 65 OFFCURVE",
"804 65 CURVE SMOOTH",
"634 65 OFFCURVE",
"337 217 OFFCURVE",
"337 706 CURVE SMOOTH",
"337 1260 OFFCURVE",
"633 1354 OFFCURVE",
"785 1353 CURVE SMOOTH",
"1021 1354 OFFCURVE",
"1143 1207 OFFCURVE",
"1190 1039 CURVE",
"1194 1013 OFFCURVE",
"1216 1008 OFFCURVE",
"1238 1011 CURVE SMOOTH",
"1254 1013 OFFCURVE",
"1277 1028 OFFCURVE",
"1274 1051 CURVE",
"1252 1361 LINE",
"1181 1392 OFFCURVE",
"1052 1449 OFFCURVE",
"787 1449 CURVE SMOOTH",
"491 1449 OFFCURVE",
"88 1256 OFFCURVE",
"88 706 CURVE SMOOTH",
"88 153 OFFCURVE",
"486 -30 OFFCURVE",
"758 -30 CURVE SMOOTH"
);
}
);
width = 1485;
},
{
anchors = (
{
name = btm;
position = "{828, -200}";
},
{
name = top;
position = "{876, 2000}";
}
);
layerId = "62CA62AF-CD91-478A-AB8B-28A62CC47DA0";
paths = (
{
closed = 1;
nodes = (
"1219 -30 OFFCURVE",
"1441 79 OFFCURVE",
"1471 123 CURVE",
"1470 489 LINE SMOOTH",
"1470 533 OFFCURVE",
"1520 547 OFFCURVE",
"1579 553 CURVE SMOOTH",
"1605 556 OFFCURVE",
"1612 569 OFFCURVE",
"1612 590 CURVE SMOOTH",
"1612 605 OFFCURVE",
"1601 641 OFFCURVE",
"1578 641 CURVE SMOOTH",
"953 641 LINE SMOOTH",
"930 641 OFFCURVE",
"919 605 OFFCURVE",
"919 590 CURVE SMOOTH",
"919 560 OFFCURVE",
"927 555 OFFCURVE",
"955 553 CURVE SMOOTH",
"1032 546 OFFCURVE",
"1141 542 OFFCURVE",
"1141 456 CURVE SMOOTH",
"1141 194 LINE SMOOTH",
"1141 131 OFFCURVE",
"1108 65 OFFCURVE",
"922 65 CURVE SMOOTH",
"755 65 OFFCURVE",
"475 217 OFFCURVE",
"475 706 CURVE SMOOTH",
"475 1260 OFFCURVE",
"769 1353 OFFCURVE",
"913 1353 CURVE SMOOTH",
"1157 1353 OFFCURVE",
"1257 1207 OFFCURVE",
"1303 1039 CURVE",
"1308 1013 OFFCURVE",
"1367 1008 OFFCURVE",
"1389 1011 CURVE SMOOTH",
"1406 1013 OFFCURVE",
"1447 1028 OFFCURVE",
"1445 1051 CURVE SMOOTH",
"1423 1361 LINE",
"1353 1392 OFFCURVE",
"1175 1449 OFFCURVE",
"915 1449 CURVE SMOOTH",
"571 1449 OFFCURVE",
"96 1256 OFFCURVE",
"96 706 CURVE SMOOTH {name = hr00;}",
"96 153 OFFCURVE",
"589 -30 OFFCURVE",
"905 -30 CURVE SMOOTH"
);
}
);
width = 1653;
}
);
leftKerningGroup = O;
rightKerningGroup = G;
unicode = 0047;
},
{
glyphname = H;
lastChange = "2018-05-24 15:04:17 +0000";
layers = (
{
anchors = (
{
name = btm;
position = "{834, -200}";
},
{
name = top;
position = "{834, 2000}";
}
);
layerId = "DD6F9F34-BC40-4E8F-B1D3-DF3B42A9710F";
paths = (
{
closed = 1;
nodes = (
"639 0 LINE SMOOTH",
"662 0 OFFCURVE",
"673 36 OFFCURVE",
"673 51 CURVE SMOOTH",
"673 81 OFFCURVE",
"665 85 OFFCURVE",
"637 88 CURVE SMOOTH",
"576 93 OFFCURVE",
"485 99 OFFCURVE",
"485 185 CURVE SMOOTH",
"486 1267 LINE SMOOTH",
"486 1311 OFFCURVE",
"567 1326 OFFCURVE",
"631 1331 CURVE SMOOTH",
"657 1334 OFFCURVE",
"664 1347 OFFCURVE",
"664 1368 CURVE SMOOTH",
"664 1383 OFFCURVE",
"653 1419 OFFCURVE",
"630 1419 CURVE SMOOTH",
"135 1419 LINE SMOOTH",
"112 1419 OFFCURVE",
"101 1383 OFFCURVE",
"101 1368 CURVE SMOOTH",
"101 1338 OFFCURVE",
"109 1334 OFFCURVE",
"137 1331 CURVE SMOOTH",
"198 1326 OFFCURVE",
"279 1320 OFFCURVE",
"279 1234 CURVE",
"278 152 LINE SMOOTH",
"278 108 OFFCURVE",
"207 93 OFFCURVE",
"143 88 CURVE SMOOTH",
"117 85 OFFCURVE",
"110 72 OFFCURVE",
"110 51 CURVE SMOOTH",
"110 36 OFFCURVE",
"121 0 OFFCURVE",
"144 0 CURVE SMOOTH"
);
},
{
closed = 1;
nodes = (
"1544 0 LINE SMOOTH",
"1567 0 OFFCURVE",
"1578 36 OFFCURVE",
"1578 51 CURVE SMOOTH",
"1578 81 OFFCURVE",
"1570 85 OFFCURVE",
"1542 88 CURVE SMOOTH",
"1481 93 OFFCURVE",
"1390 99 OFFCURVE",
"1390 185 CURVE SMOOTH",
"1391 1267 LINE SMOOTH",
"1391 1311 OFFCURVE",
"1472 1326 OFFCURVE",
"1536 1331 CURVE SMOOTH",
"1562 1334 OFFCURVE",
"1569 1347 OFFCURVE",
"1569 1368 CURVE SMOOTH",
"1569 1383 OFFCURVE",
"1558 1419 OFFCURVE",
"1535 1419 CURVE SMOOTH",
"1030 1419 LINE SMOOTH",
"1007 1419 OFFCURVE",
"996 1383 OFFCURVE",
"996 1368 CURVE SMOOTH",
"996 1338 OFFCURVE",
"1004 1334 OFFCURVE",
"1032 1331 CURVE SMOOTH",
"1093 1326 OFFCURVE",
"1184 1320 OFFCURVE",
"1184 1234 CURVE SMOOTH",
"1183 152 LINE SMOOTH",
"1183 108 OFFCURVE",
"1102 93 OFFCURVE",
"1038 88 CURVE SMOOTH",
"1012 85 OFFCURVE",
"1005 72 OFFCURVE",
"1005 51 CURVE SMOOTH",
"1005 36 OFFCURVE",
"1016 0 OFFCURVE",
"1039 0 CURVE SMOOTH"
);
},
{
closed = 1;
nodes = (
"1221 710 LINE",
"1221 796 LINE",
"424 796 LINE",
"424 710 LINE"
);
}
);
width = 1669;
},
{
anchors = (
{
name = btm;
position = "{935, -200}";
},
{
name = top;
position = "{935, 2000}";
}
);
layerId = "62CA62AF-CD91-478A-AB8B-28A62CC47DA0";
paths = (
{
closed = 1;
nodes = (
"620 1267 LINE SMOOTH",
"620 1311 OFFCURVE",
"697 1326 OFFCURVE",
"765 1331 CURVE",
"791 1334 OFFCURVE",
"798 1347 OFFCURVE",
"798 1368 CURVE SMOOTH",
"798 1383 OFFCURVE",
"787 1419 OFFCURVE",
"764 1419 CURVE SMOOTH",
"139 1419 LINE SMOOTH",
"116 1419 OFFCURVE",
"105 1383 OFFCURVE",
"105 1368 CURVE SMOOTH",
"105 1338 OFFCURVE",
"113 1334 OFFCURVE",
"141 1331 CURVE SMOOTH",
"202 1326 OFFCURVE",
"283 1320 OFFCURVE",
"283 1234 CURVE SMOOTH",
"283 152 LINE SMOOTH",
"283 108 OFFCURVE",
"211 93 OFFCURVE",
"147 88 CURVE",
"121 85 OFFCURVE",
"114 72 OFFCURVE",
"114 51 CURVE SMOOTH {name = hr00;}",
"114 36 OFFCURVE",
"125 0 OFFCURVE",
"148 0 CURVE SMOOTH",
"773 0 LINE SMOOTH",
"796 0 OFFCURVE",
"807 36 OFFCURVE",
"807 51 CURVE SMOOTH",
"807 81 OFFCURVE",
"799 85 OFFCURVE",
"771 88 CURVE SMOOTH",
"710 93 OFFCURVE",
"620 99 OFFCURVE",
"620 185 CURVE SMOOTH"
);
},
{
closed = 1;
nodes = (
"1740 0 LINE SMOOTH",
"1763 0 OFFCURVE",
"1774 36 OFFCURVE",
"1774 51 CURVE SMOOTH",
"1774 81 OFFCURVE",
"1766 85 OFFCURVE",
"1738 88 CURVE SMOOTH",
"1677 93 OFFCURVE",
"1587 99 OFFCURVE",
"1587 185 CURVE SMOOTH",
"1587 1267 LINE SMOOTH",
"1587 1311 OFFCURVE",
"1664 1326 OFFCURVE",
"1732 1331 CURVE",
"1758 1334 OFFCURVE",
"1765 1347 OFFCURVE",
"1765 1368 CURVE SMOOTH",
"1765 1383 OFFCURVE",
"1754 1419 OFFCURVE",
"1731 1419 CURVE SMOOTH",
"1096 1419 LINE SMOOTH",
"1073 1419 OFFCURVE",
"1062 1383 OFFCURVE",
"1062 1368 CURVE SMOOTH",
"1062 1338 OFFCURVE",
"1070 1334 OFFCURVE",
"1098 1331 CURVE SMOOTH",
"1159 1326 OFFCURVE",
"1250 1320 OFFCURVE",
"1250 1234 CURVE SMOOTH",
"1250 152 LINE SMOOTH",
"1250 108 OFFCURVE",
"1168 93 OFFCURVE",
"1104 88 CURVE",
"1078 85 OFFCURVE",
"1071 72 OFFCURVE",
"1071 51 CURVE SMOOTH",
"1071 36 OFFCURVE",
"1082 0 OFFCURVE",
"1105 0 CURVE SMOOTH"
);
},
{
closed = 1;
nodes = (
"1335 608 LINE",
"1335 744 LINE",
"538 744 LINE",
"538 608 LINE"
);
}
);
width = 1870;
}
);
leftKerningGroup = H;
rightKerningGroup = H;
unicode = 0048;
},
{
glyphname = Hbar;
lastChange = "2018-07-10 04:20:44 +0000";
layers = (
{
layerId = "DD6F9F34-BC40-4E8F-B1D3-DF3B42A9710F";
paths = (
{
closed = 1;
nodes = (
"1534 0 LINE SMOOTH",
"1557 0 OFFCURVE",
"1568 16 OFFCURVE",
"1568 31 CURVE SMOOTH",
"1568 61 OFFCURVE",
"1560 65 OFFCURVE",
"1532 68 CURVE SMOOTH",
"1471 73 OFFCURVE",
"1390 79 OFFCURVE",
"1390 165 CURVE SMOOTH",
"1391 1287 LINE SMOOTH",
"1391 1331 OFFCURVE",
"1462 1346 OFFCURVE",
"1526 1351 CURVE",
"1552 1354 OFFCURVE",
"1559 1367 OFFCURVE",
"1559 1388 CURVE SMOOTH",
"1559 1403 OFFCURVE",
"1548 1419 OFFCURVE",
"1525 1419 CURVE SMOOTH",
"1040 1419 LINE SMOOTH",
"1017 1419 OFFCURVE",
"1006 1403 OFFCURVE",
"1006 1388 CURVE SMOOTH",
"1006 1358 OFFCURVE",
"1014 1354 OFFCURVE",
"1042 1351 CURVE SMOOTH",
"1103 1346 OFFCURVE",
"1184 1340 OFFCURVE",
"1184 1254 CURVE SMOOTH",
"1183 132 LINE SMOOTH",
"1183 88 OFFCURVE",
"1112 73 OFFCURVE",
"1048 68 CURVE",
"1022 65 OFFCURVE",
"1015 52 OFFCURVE",
"1015 31 CURVE SMOOTH",
"1015 16 OFFCURVE",
"1026 0 OFFCURVE",
"1049 0 CURVE SMOOTH"
);
},
{
closed = 1;
nodes = (
"629 0 LINE SMOOTH",
"652 0 OFFCURVE",
"663 16 OFFCURVE",
"663 31 CURVE SMOOTH",
"663 61 OFFCURVE",
"655 65 OFFCURVE",
"627 68 CURVE SMOOTH",
"566 73 OFFCURVE",
"485 79 OFFCURVE",
"485 165 CURVE SMOOTH",
"486 1287 LINE SMOOTH",
"486 1331 OFFCURVE",
"557 1346 OFFCURVE",
"621 1351 CURVE",
"647 1354 OFFCURVE",
"654 1367 OFFCURVE",
"654 1388 CURVE SMOOTH",
"654 1403 OFFCURVE",
"643 1419 OFFCURVE",
"620 1419 CURVE SMOOTH",
"135 1419 LINE SMOOTH",
"112 1419 OFFCURVE",
"101 1403 OFFCURVE",
"101 1388 CURVE SMOOTH",
"101 1358 OFFCURVE",
"109 1354 OFFCURVE",
"137 1351 CURVE SMOOTH",
"198 1346 OFFCURVE",
"279 1340 OFFCURVE",
"279 1254 CURVE SMOOTH",
"278 132 LINE SMOOTH",
"278 88 OFFCURVE",
"207 73 OFFCURVE",
"143 68 CURVE",
"117 65 OFFCURVE",
"110 52 OFFCURVE",
"110 31 CURVE SMOOTH",
"110 16 OFFCURVE",
"121 0 OFFCURVE",
"144 0 CURVE SMOOTH"
);
},
{
closed = 1;
nodes = (
"1221 593 LINE",
"1221 679 LINE",
"424 679 LINE",
"424 593 LINE"
);
},
{
closed = 1;
nodes = (
"1567 916 LINE",
"1567 1002 LINE",
"102 1002 LINE",
"102 916 LINE"
);
}
);
width = 1669;
},
{
layerId = "62CA62AF-CD91-478A-AB8B-28A62CC47DA0";
paths = (
{
closed = 1;
nodes = (
"773 0 LINE SMOOTH",
"796 0 OFFCURVE",
"807 36 OFFCURVE",
"807 51 CURVE SMOOTH",
"807 81 OFFCURVE",
"799 85 OFFCURVE",
"771 88 CURVE SMOOTH",
"710 93 OFFCURVE",
"619 99 OFFCURVE",
"619 185 CURVE SMOOTH",
"619 593 LINE",
"1248 593 LINE",
"1248 152 LINE SMOOTH",
"1248 108 OFFCURVE",
"1167 93 OFFCURVE",
"1103 88 CURVE",
"1077 85 OFFCURVE",
"1070 72 OFFCURVE",
"1070 51 CURVE SMOOTH",
"1070 36 OFFCURVE",
"1081 0 OFFCURVE",
"1104 0 CURVE SMOOTH",
"1739 0 LINE SMOOTH",
"1762 0 OFFCURVE",
"1773 36 OFFCURVE",
"1773 51 CURVE SMOOTH",
"1773 81 OFFCURVE",
"1765 85 OFFCURVE",
"1737 88 CURVE SMOOTH",
"1676 93 OFFCURVE",
"1585 99 OFFCURVE",
"1585 185 CURVE SMOOTH",
"1585 905 LINE",
"1759 905 LINE",
"1773 911 OFFCURVE",
"1783 933 OFFCURVE",
"1783 958 CURVE SMOOTH",
"1783 974 OFFCURVE",
"1775 1001 OFFCURVE",
"1759 1002 CURVE",
"1585 1002 LINE",
"1586 1267 LINE SMOOTH",
"1586 1311 OFFCURVE",
"1663 1326 OFFCURVE",
"1731 1331 CURVE",
"1757 1334 OFFCURVE",
"1764 1347 OFFCURVE",
"1764 1368 CURVE SMOOTH",
"1764 1383 OFFCURVE",
"1753 1419 OFFCURVE",
"1730 1419 CURVE SMOOTH",
"1095 1419 LINE SMOOTH",
"1072 1419 OFFCURVE",
"1061 1383 OFFCURVE",
"1061 1368 CURVE SMOOTH",
"1061 1338 OFFCURVE",
"1069 1334 OFFCURVE",
"1097 1331 CURVE SMOOTH",
"1158 1326 OFFCURVE",
"1249 1320 OFFCURVE",
"1249 1234 CURVE SMOOTH",
"1248 1002 LINE",
"619 1002 LINE",
"620 1267 LINE SMOOTH",
"620 1311 OFFCURVE",
"697 1326 OFFCURVE",
"765 1331 CURVE",
"791 1334 OFFCURVE",
"798 1347 OFFCURVE",
"798 1368 CURVE SMOOTH",
"798 1383 OFFCURVE",
"787 1419 OFFCURVE",
"764 1419 CURVE SMOOTH",
"139 1419 LINE SMOOTH",
"116 1419 OFFCURVE",
"105 1383 OFFCURVE",
"105 1368 CURVE SMOOTH",
"105 1338 OFFCURVE",
"113 1334 OFFCURVE",
"141 1331 CURVE SMOOTH",
"202 1326 OFFCURVE",
"283 1320 OFFCURVE",
"283 1234 CURVE SMOOTH",
"282 1002 LINE",
"122 1002 LINE",
"108 996 OFFCURVE",
"98 964 OFFCURVE",
"98 939 CURVE SMOOTH",
"98 923 OFFCURVE",
"106 906 OFFCURVE",
"122 905 CURVE",
"282 905 LINE",
"282 152 LINE SMOOTH",
"282 108 OFFCURVE",
"211 93 OFFCURVE",
"147 88 CURVE",
"121 85 OFFCURVE",
"114 72 OFFCURVE",
"114 51 CURVE SMOOTH {name = hr00;}",
"114 36 OFFCURVE",
"125 0 OFFCURVE",
"148 0 CURVE SMOOTH"
);
},
{
closed = 1;
nodes = (
"619 905 LINE",
"1248 905 LINE",
"1248 679 LINE",
"619 679 LINE"
);
}
);
width = 1867;
}
);
leftKerningGroup = H;
rightKerningGroup = H;
unicode = 0126;
},
{
color = 4;
glyphname = I;
lastChange = "2018-05-24 15:39:03 +0000";
layers = (
{
anchors = (
{
name = btm;
position = "{399, -200}";
},
{
name = top;
position = "{399, 2000}";
}
);
layerId = "DD6F9F34-BC40-4E8F-B1D3-DF3B42A9710F";
paths = (
{
closed = 1;
nodes = (
"656 0 LINE SMOOTH",
"679 0 OFFCURVE",
"690 36 OFFCURVE",
"690 51 CURVE SMOOTH",
"690 81 OFFCURVE",
"682 85 OFFCURVE",
"654 88 CURVE SMOOTH",
"593 93 OFFCURVE",
"502 99 OFFCURVE",
"502 185 CURVE SMOOTH",
"503 1267 LINE SMOOTH",
"503 1311 OFFCURVE",
"584 1326 OFFCURVE",
"648 1331 CURVE SMOOTH",
"674 1334 OFFCURVE",
"681 1347 OFFCURVE",
"681 1368 CURVE SMOOTH",
"681 1383 OFFCURVE",
"670 1419 OFFCURVE",
"647 1419 CURVE SMOOTH",
"142 1419 LINE SMOOTH",
"119 1419 OFFCURVE",
"108 1383 OFFCURVE",
"108 1368 CURVE SMOOTH",
"108 1338 OFFCURVE",
"116 1334 OFFCURVE",
"144 1331 CURVE SMOOTH",
"205 1326 OFFCURVE",
"296 1320 OFFCURVE",
"296 1234 CURVE SMOOTH",
"295 152 LINE SMOOTH",
"295 108 OFFCURVE",
"214 93 OFFCURVE",
"150 88 CURVE SMOOTH",
"124 85 OFFCURVE",
"117 72 OFFCURVE",
"117 51 CURVE SMOOTH",
"117 36 OFFCURVE",
"128 0 OFFCURVE",
"151 0 CURVE SMOOTH"
);
}
);
width = 798;
},
{
anchors = (
{
name = btm;
position = "{456, -200}";
},
{
name = top;
position = "{456, 2000}";
}
);
layerId = "62CA62AF-CD91-478A-AB8B-28A62CC47DA0";
paths = (
{
closed = 1;
nodes = (
"778 0 LINE SMOOTH",
"801 0 OFFCURVE",
"812 36 OFFCURVE",
"812 51 CURVE SMOOTH",
"812 81 OFFCURVE",
"804 85 OFFCURVE",
"776 88 CURVE SMOOTH",
"715 93 OFFCURVE",
"624 99 OFFCURVE",
"624 185 CURVE SMOOTH",
"625 1267 LINE SMOOTH",
"625 1311 OFFCURVE",
"702 1326 OFFCURVE",
"770 1331 CURVE SMOOTH",
"796 1334 OFFCURVE",
"803 1347 OFFCURVE",
"803 1368 CURVE SMOOTH",
"803 1383 OFFCURVE",
"792 1419 OFFCURVE",
"769 1419 CURVE SMOOTH",
"134 1419 LINE SMOOTH",
"111 1419 OFFCURVE",
"100 1383 OFFCURVE",
"100 1368 CURVE SMOOTH",
"100 1338 OFFCURVE",
"108 1334 OFFCURVE",
"136 1331 CURVE SMOOTH",
"197 1326 OFFCURVE",
"288 1320 OFFCURVE",
"288 1234 CURVE SMOOTH",
"287 152 LINE SMOOTH",
"287 108 OFFCURVE",
"206 93 OFFCURVE",
"142 88 CURVE SMOOTH",
"116 85 OFFCURVE",
"109 72 OFFCURVE",
"109 51 CURVE SMOOTH {name = hr00;}",
"109 36 OFFCURVE",
"120 0 OFFCURVE",
"143 0 CURVE SMOOTH"
);
}
);
width = 913;
}
);
leftKerningGroup = I;
rightKerningGroup = I;
unicode = 0049;
},
{
glyphname = Iogonek;
lastChange = "2018-05-24 13:54:47 +0000";
layers = (
{
components = (
{
name = I;
}
);
layerId = "DD6F9F34-BC40-4E8F-B1D3-DF3B42A9710F";
paths = (
{
closed = 1;
nodes = (
"210 -120 OFFCURVE",
"289 -36 OFFCURVE",
"390 23 CURVE",
"390 23 OFFCURVE",
"468 16 OFFCURVE",
"468 16 CURVE",
"399 -36 OFFCURVE",
"358 -125 OFFCURVE",
"358 -198 CURVE SMOOTH",
"358 -381 OFFCURVE",
"557 -346 OFFCURVE",
"605 -349 CURVE SMOOTH",
"622 -350 OFFCURVE",
"626 -367 OFFCURVE",
"621 -393 CURVE SMOOTH",
"618 -408 OFFCURVE",
"606 -418 OFFCURVE",
"591 -422 CURVE SMOOTH",
"534 -438 OFFCURVE",
"481 -448 OFFCURVE",
"430 -448 CURVE SMOOTH",
"303 -448 OFFCURVE",
"210 -345 OFFCURVE",
"210 -238 CURVE SMOOTH"
);
}
);
width = 798;
},
{
layerId = "62CA62AF-CD91-478A-AB8B-28A62CC47DA0";
paths = (
{
closed = 1;
nodes = (
"109 36 OFFCURVE",
"120 0 OFFCURVE",
"143 0 CURVE SMOOTH",
"428 0 LINE",
"304 -53 OFFCURVE",
"169 -143 OFFCURVE",
"169 -273 CURVE SMOOTH {name = hr02;}",
"169 -365 OFFCURVE",
"247 -452 OFFCURVE",
"399 -452 CURVE SMOOTH",
"474 -452 OFFCURVE",
"571 -437 OFFCURVE",
"655 -394 CURVE",
"669 -383 OFFCURVE",
"642 -298 OFFCURVE",
"632 -304 CURVE",
"606 -315 OFFCURVE",
"560 -330 OFFCURVE",
"517 -330 CURVE SMOOTH",
"460 -330 OFFCURVE",
"407 -313 OFFCURVE",
"407 -228 CURVE SMOOTH",
"407 -162 OFFCURVE",
"462 -67 OFFCURVE",
"609 0 CURVE",
"778 0 LINE SMOOTH",
"801 0 OFFCURVE",
"812 36 OFFCURVE",
"812 51 CURVE SMOOTH",
"812 81 OFFCURVE",
"804 85 OFFCURVE",
"776 88 CURVE SMOOTH",
"715 93 OFFCURVE",
"624 99 OFFCURVE",
"624 185 CURVE SMOOTH {name = hr03;}",
"625 1267 LINE SMOOTH",
"625 1311 OFFCURVE",
"702 1326 OFFCURVE",
"770 1331 CURVE",
"796 1334 OFFCURVE",
"803 1347 OFFCURVE",
"803 1368 CURVE SMOOTH",
"803 1383 OFFCURVE",
"792 1419 OFFCURVE",
"769 1419 CURVE SMOOTH",
"134 1419 LINE SMOOTH",
"111 1419 OFFCURVE",
"100 1383 OFFCURVE",
"100 1368 CURVE SMOOTH",
"100 1338 OFFCURVE",
"108 1334 OFFCURVE",
"136 1331 CURVE SMOOTH",
"197 1326 OFFCURVE",
"288 1320 OFFCURVE",
"288 1234 CURVE SMOOTH",
"287 152 LINE SMOOTH",
"287 108 OFFCURVE",
"206 93 OFFCURVE",
"142 88 CURVE",
"116 85 OFFCURVE",
"109 72 OFFCURVE",
"109 51 CURVE SMOOTH {name = hr01;}"
);
}
);
width = 913;
}
);
leftKerningGroup = I;
rightKerningGroup = I;
unicode = 012E;
},
{
glyphname = J;
lastChange = "2018-07-10 04:24:33 +0000";
layers = (
{
anchors = (
{
name = btm;
position = "{537, -200}";
},
{
name = top;
position = "{745, 2000}";
}
);
layerId = "DD6F9F34-BC40-4E8F-B1D3-DF3B42A9710F";
paths = (
{
closed = 1;
nodes = (
"578 -30 OFFCURVE",
"849 48 OFFCURVE",
"849 439 CURVE SMOOTH",
"849 1267 LINE SMOOTH",
"849 1311 OFFCURVE",
"916 1326 OFFCURVE",
"975 1331 CURVE SMOOTH",
"1001 1334 OFFCURVE",
"1008 1347 OFFCURVE",
"1008 1368 CURVE SMOOTH",
"1008 1383 OFFCURVE",
"997 1419 OFFCURVE",
"974 1419 CURVE SMOOTH",
"459 1419 LINE SMOOTH",
"436 1419 OFFCURVE",
"425 1383 OFFCURVE",
"425 1368 CURVE SMOOTH",
"425 1338 OFFCURVE",
"433 1334 OFFCURVE",
"461 1331 CURVE",
"534 1326 OFFCURVE",
"643 1320 OFFCURVE",
"643 1234 CURVE SMOOTH",
"642 406 LINE SMOOTH",
"642 161 OFFCURVE",
"558 59 OFFCURVE",
"418 59 CURVE SMOOTH",
"350 59 OFFCURVE",
"294 82 OFFCURVE",
"254 113 CURVE",
"267 232 OFFCURVE",
"290 399 OFFCURVE",
"278 431 CURVE SMOOTH",
"266 464 OFFCURVE",
"230 471 OFFCURVE",
"206 471 CURVE SMOOTH",
"153 471 OFFCURVE",
"106 427 OFFCURVE",
"84 373 CURVE SMOOTH",
"55 303 OFFCURVE",
"53 171 OFFCURVE",
"151 76 CURVE",
"239 1 OFFCURVE",
"337 -30 OFFCURVE",
"427 -30 CURVE SMOOTH"
);
}
);
width = 1060;
},
{
anchors = (
{
name = btm;
position = "{565, -200}";
},
{
name = top;
position = "{788, 1988}";
}
);
layerId = "62CA62AF-CD91-478A-AB8B-28A62CC47DA0";
paths = (
{
closed = 1;
nodes = (
"716 -30 OFFCURVE",
"1021 48 OFFCURVE",
"1021 439 CURVE SMOOTH",
"1021 1267 LINE SMOOTH",
"1021 1311 OFFCURVE",
"1086 1327 OFFCURVE",
"1187 1331 CURVE SMOOTH",
"1213 1332 OFFCURVE",
"1220 1347 OFFCURVE",
"1220 1368 CURVE SMOOTH",
"1220 1383 OFFCURVE",
"1209 1419 OFFCURVE",
"1186 1419 CURVE SMOOTH",
"481 1419 LINE SMOOTH",
"458 1419 OFFCURVE",
"447 1383 OFFCURVE",
"447 1368 CURVE SMOOTH",
"447 1338 OFFCURVE",
"455 1334 OFFCURVE",
"483 1331 CURVE",
"564 1326 OFFCURVE",
"685 1320 OFFCURVE",
"685 1234 CURVE SMOOTH",
"684 406 LINE SMOOTH",
"684 161 OFFCURVE",
"621 59 OFFCURVE",
"480 59 CURVE SMOOTH",
"430 59 OFFCURVE",
"387 69 OFFCURVE",
"351 84 CURVE",
"377 211 OFFCURVE",
"408 404 OFFCURVE",
"410 461 CURVE SMOOTH",
"411 496 OFFCURVE",
"363 541 OFFCURVE",
"286 541 CURVE SMOOTH",
"210 541 OFFCURVE",
"121 486 OFFCURVE",
"100 431 CURVE SMOOTH",
"60 329 OFFCURVE",
"74 183 OFFCURVE",
"177 94 CURVE SMOOTH {name = hr00;}",
"271 13 OFFCURVE",
"393 -30 OFFCURVE",
"489 -30 CURVE SMOOTH"
);
}
);
width = 1219;
}
);
leftKerningGroup = J;
rightKerningGroup = U;
unicode = 004A;
},
{
glyphname = K;
lastChange = "2018-07-10 04:25:31 +0000";
layers = (
{
anchors = (
{
name = btm;
position = "{778, -200}";
},
{
name = top;
position = "{778, 2000}";
}
);
layerId = "DD6F9F34-BC40-4E8F-B1D3-DF3B42A9710F";
paths = (
{
closed = 1;
nodes = (
"639 0 LINE SMOOTH",
"662 0 OFFCURVE",
"673 36 OFFCURVE",
"673 51 CURVE SMOOTH",
"673 81 OFFCURVE",
"665 85 OFFCURVE",
"637 88 CURVE SMOOTH",
"576 93 OFFCURVE",
"495 99 OFFCURVE",
"495 185 CURVE SMOOTH",
"496 1267 LINE SMOOTH",
"496 1311 OFFCURVE",
"567 1326 OFFCURVE",
"631 1331 CURVE",
"657 1334 OFFCURVE",
"664 1347 OFFCURVE",
"664 1368 CURVE SMOOTH",
"664 1383 OFFCURVE",
"653 1419 OFFCURVE",
"630 1419 CURVE SMOOTH",
"135 1419 LINE SMOOTH",
"112 1419 OFFCURVE",
"101 1383 OFFCURVE",
"101 1368 CURVE SMOOTH",
"101 1338 OFFCURVE",
"109 1334 OFFCURVE",
"137 1331 CURVE SMOOTH",
"198 1326 OFFCURVE",
"289 1320 OFFCURVE",
"289 1234 CURVE SMOOTH",
"288 152 LINE SMOOTH",
"288 108 OFFCURVE",
"207 93 OFFCURVE",
"143 88 CURVE",
"117 85 OFFCURVE",
"110 72 OFFCURVE",
"110 51 CURVE SMOOTH",
"110 36 OFFCURVE",
"121 0 OFFCURVE",
"144 0 CURVE SMOOTH"
);
},
{
closed = 1;
nodes = (
"1411 0 LINE SMOOTH",
"1433 0 OFFCURVE",
"1445 17 OFFCURVE",
"1445 32 CURVE SMOOTH",
"1445 62 OFFCURVE",
"1437 86 OFFCURVE",
"1409 89 CURVE SMOOTH",
"1360 94 OFFCURVE",
"1259 155 OFFCURVE",
"1213 222 CURVE SMOOTH",
"1103 384 OFFCURVE",
"878 689 OFFCURVE",
"750 773 CURVE",
"1159 1263 LINE",
"1212 1302 OFFCURVE",
"1288 1330 OFFCURVE",
"1356 1330 CURVE SMOOTH",
"1378 1330 OFFCURVE",
"1389 1343 OFFCURVE",
"1389 1367 CURVE SMOOTH",
"1389 1382 OFFCURVE",
"1378 1418 OFFCURVE",
"1355 1418 CURVE SMOOTH",
"923 1418 LINE SMOOTH",
"900 1418 OFFCURVE",
"889 1382 OFFCURVE",
"889 1367 CURVE SMOOTH",
"889 1346 OFFCURVE",
"894 1333 OFFCURVE",
"920 1330 CURVE SMOOTH",
"962 1326 OFFCURVE",
"1064 1319 OFFCURVE",
"1026 1276 CURVE SMOOTH",
"543 692 LINE",
"686 674 OFFCURVE",
"914 219 OFFCURVE",
"1071 52 CURVE SMOOTH",
"1102 19 OFFCURVE",
"1121 0 OFFCURVE",
"1196 0 CURVE SMOOTH"
);
}
);
width = 1422;
},
{
anchors = (
{
name = btm;
position = "{941, -200}";
},
{
name = top;
position = "{862, 2000}";
}
);
layerId = "62CA62AF-CD91-478A-AB8B-28A62CC47DA0";
paths = (
{
closed = 1;
nodes = (
"764 0 LINE SMOOTH",
"787 0 OFFCURVE",
"798 36 OFFCURVE",
"798 51 CURVE SMOOTH",
"798 81 OFFCURVE",
"790 85 OFFCURVE",
"762 88 CURVE SMOOTH",
"701 93 OFFCURVE",
"620 99 OFFCURVE",
"620 185 CURVE SMOOTH",
"621 1267 LINE SMOOTH",
"621 1311 OFFCURVE",
"702 1326 OFFCURVE",
"756 1331 CURVE SMOOTH",
"782 1334 OFFCURVE",
"789 1347 OFFCURVE",
"789 1368 CURVE SMOOTH",
"789 1383 OFFCURVE",
"778 1419 OFFCURVE",
"755 1419 CURVE SMOOTH",
"130 1419 LINE SMOOTH",
"107 1419 OFFCURVE",
"96 1383 OFFCURVE",
"96 1368 CURVE SMOOTH",
"96 1338 OFFCURVE",
"104 1334 OFFCURVE",
"132 1331 CURVE SMOOTH",
"193 1326 OFFCURVE",
"284 1320 OFFCURVE",
"284 1234 CURVE SMOOTH",
"283 162 LINE SMOOTH",
"283 118 OFFCURVE",
"202 93 OFFCURVE",
"138 88 CURVE",
"112 85 OFFCURVE",
"105 72 OFFCURVE",
"105 51 CURVE SMOOTH {name = hr00;}",
"105 36 OFFCURVE",
"116 0 OFFCURVE",
"139 0 CURVE SMOOTH"
);
},
{
closed = 1;
nodes = (
"1612 0 LINE SMOOTH",
"1634 0 OFFCURVE",
"1646 31 OFFCURVE",
"1646 46 CURVE SMOOTH",
"1646 76 OFFCURVE",
"1638 86 OFFCURVE",
"1610 89 CURVE SMOOTH",
"1561 94 OFFCURVE",
"1483 156 OFFCURVE",
"1386 293 CURVE SMOOTH",
"1260 472 OFFCURVE",
"1010 779 OFFCURVE",
"905 826 CURVE",
"1350 1260 LINE SMOOTH",
"1397 1306 OFFCURVE",
"1483 1330 OFFCURVE",
"1551 1330 CURVE SMOOTH",
"1573 1330 OFFCURVE",
"1584 1343 OFFCURVE",
"1584 1367 CURVE SMOOTH",
"1584 1382 OFFCURVE",
"1573 1418 OFFCURVE",
"1550 1418 CURVE SMOOTH",
"1068 1418 LINE SMOOTH",
"1045 1418 OFFCURVE",
"1034 1382 OFFCURVE",
"1034 1367 CURVE SMOOTH",
"1034 1346 OFFCURVE",
"1039 1333 OFFCURVE",
"1065 1330 CURVE SMOOTH",
"1109 1326 OFFCURVE",
"1211 1319 OFFCURVE",
"1171 1276 CURVE SMOOTH",
"622 692 LINE",
"785 704 OFFCURVE",
"931 324 OFFCURVE",
"1082 122 CURVE SMOOTH",
"1136 50 OFFCURVE",
"1191 0 OFFCURVE",
"1248 0 CURVE SMOOTH"
);
}
);
width = 1673;
}
);
leftKerningGroup = H;
rightKerningGroup = K;
unicode = 004B;
},
{
glyphname = L;
lastChange = "2018-07-10 04:25:57 +0000";
layers = (
{
anchors = (
{
name = btm;
position = "{658, -200}";
},
{
name = top;
position = "{658, 2000}";
}
);
layerId = "DD6F9F34-BC40-4E8F-B1D3-DF3B42A9710F";
paths = (
{
closed = 1;
nodes = (
"1151 1 LINE",
"1210 439 LINE SMOOTH",
"1213 462 OFFCURVE",
"1195 473 OFFCURVE",
"1170 473 CURVE SMOOTH",
"1149 473 OFFCURVE",
"1130 464 OFFCURVE",
"1122 440 CURVE SMOOTH",
"1072 296 OFFCURVE",
"975 101 OFFCURVE",
"882 101 CURVE SMOOTH",
"587 101 LINE SMOOTH",
"538 101 OFFCURVE",
"495 111 OFFCURVE",
"495 177 CURVE SMOOTH",
"496 1237 LINE SMOOTH",
"496 1311 OFFCURVE",
"585 1331 OFFCURVE",
"651 1331 CURVE SMOOTH",
"677 1331 OFFCURVE",
"684 1347 OFFCURVE",
"684 1368 CURVE SMOOTH",
"684 1383 OFFCURVE",
"673 1419 OFFCURVE",
"650 1419 CURVE SMOOTH",
"135 1419 LINE SMOOTH",
"112 1419 OFFCURVE",
"101 1383 OFFCURVE",
"101 1368 CURVE SMOOTH",
"101 1338 OFFCURVE",
"109 1334 OFFCURVE",
"137 1331 CURVE SMOOTH",
"198 1326 OFFCURVE",
"289 1320 OFFCURVE",
"289 1234 CURVE SMOOTH",
"288 152 LINE SMOOTH",
"288 108 OFFCURVE",
"207 93 OFFCURVE",
"143 88 CURVE",
"117 85 OFFCURVE",
"110 72 OFFCURVE",
"110 51 CURVE SMOOTH",
"110 36 OFFCURVE",
"121 0 OFFCURVE",
"144 0 CURVE"
);
}
);
width = 1236;
},
{
anchors = (
{
name = btm;
position = "{711, -200}";
},
{
name = top;
position = "{711, 2000}";
}
);
layerId = "62CA62AF-CD91-478A-AB8B-28A62CC47DA0";
paths = (
{
closed = 1;
nodes = (
"1306 0 LINE",
"1365 439 LINE SMOOTH",
"1368 462 OFFCURVE",
"1333 473 OFFCURVE",
"1308 473 CURVE SMOOTH",
"1287 473 OFFCURVE",
"1237 464 OFFCURVE",
"1229 440 CURVE SMOOTH",
"1179 296 OFFCURVE",
"1079 101 OFFCURVE",
"986 101 CURVE SMOOTH",
"712 101 LINE SMOOTH",
"663 101 OFFCURVE",
"620 111 OFFCURVE",
"620 177 CURVE SMOOTH",
"620 1237 LINE SMOOTH",
"620 1311 OFFCURVE",
"701 1331 OFFCURVE",
"815 1331 CURVE SMOOTH",
"841 1331 OFFCURVE",
"848 1347 OFFCURVE",
"848 1368 CURVE SMOOTH",
"848 1383 OFFCURVE",
"837 1419 OFFCURVE",
"814 1419 CURVE SMOOTH",
"129 1419 LINE SMOOTH",
"106 1419 OFFCURVE",
"95 1383 OFFCURVE",
"95 1368 CURVE SMOOTH",
"95 1338 OFFCURVE",
"103 1333 OFFCURVE",
"131 1331 CURVE SMOOTH",
"202 1326 OFFCURVE",
"283 1320 OFFCURVE",
"283 1234 CURVE SMOOTH",
"283 162 LINE SMOOTH",
"283 118 OFFCURVE",
"202 93 OFFCURVE",
"138 88 CURVE",
"112 85 OFFCURVE",
"105 72 OFFCURVE",
"105 51 CURVE SMOOTH {name = hr00;}",
"105 36 OFFCURVE",
"116 0 OFFCURVE",
"139 0 CURVE SMOOTH"
);
}
);
width = 1405;
}
);
leftKerningGroup = H;
rightKerningGroup = L;
unicode = 004C;
},
{
glyphname = Lslash;
lastChange = "2018-05-24 13:54:47 +0000";
layers = (
{
layerId = "DD6F9F34-BC40-4E8F-B1D3-DF3B42A9710F";
paths = (
{
closed = 1;
nodes = (
"496 1331 OFFCURVE",
"585 1351 OFFCURVE",
"651 1351 CURVE SMOOTH",
"677 1351 OFFCURVE",
"684 1367 OFFCURVE",
"684 1388 CURVE SMOOTH",
"684 1403 OFFCURVE",
"673 1419 OFFCURVE",
"650 1419 CURVE SMOOTH",
"145 1419 LINE SMOOTH",
"122 1419 OFFCURVE",
"111 1403 OFFCURVE",
"111 1388 CURVE SMOOTH",
"111 1358 OFFCURVE",
"119 1354 OFFCURVE",
"147 1351 CURVE SMOOTH",
"208 1346 OFFCURVE",
"289 1340 OFFCURVE",
"289 1254 CURVE SMOOTH",
"288 132 LINE SMOOTH",
"288 88 OFFCURVE",
"217 73 OFFCURVE",
"153 68 CURVE",
"127 65 OFFCURVE",
"120 52 OFFCURVE",
"120 31 CURVE SMOOTH",
"120 16 OFFCURVE",
"131 0 OFFCURVE",
"154 0 CURVE SMOOTH",
"609 0 LINE SMOOTH",
"631 0 OFFCURVE",
"643 16 OFFCURVE",
"643 31 CURVE SMOOTH",
"643 61 OFFCURVE",
"639 101 OFFCURVE",
"587 101 CURVE SMOOTH",
"538 101 OFFCURVE",
"495 111 OFFCURVE",
"495 177 CURVE SMOOTH",
"496 1257 LINE SMOOTH"
);
},
{
closed = 1;
nodes = (
"436 1 LINE",
"1151 1 LINE",
"1204 372 LINE SMOOTH",
"1207 395 OFFCURVE",
"1176 406 OFFCURVE",
"1161 406 CURVE SMOOTH",
"1140 406 OFFCURVE",
"1124 397 OFFCURVE",
"1116 373 CURVE SMOOTH",
"1066 229 OFFCURVE",
"975 101 OFFCURVE",
"882 101 CURVE SMOOTH",
"469 101 LINE"
);
},
{
closed = 1;
nodes = (
"853 853 LINE",
"814 941 LINE",
"92 640 LINE",
"131 552 LINE"
);
}
);
width = 1236;
},
{
layerId = "62CA62AF-CD91-478A-AB8B-28A62CC47DA0";
paths = (
{
closed = 1;
nodes = (
"99 36 OFFCURVE",
"110 0 OFFCURVE",
"133 0 CURVE SMOOTH",
"1300 0 LINE",
"1359 439 LINE SMOOTH",
"1362 462 OFFCURVE",
"1327 473 OFFCURVE",
"1302 473 CURVE SMOOTH",
"1281 473 OFFCURVE",
"1242 464 OFFCURVE",
"1234 440 CURVE SMOOTH",
"1184 296 OFFCURVE",
"1084 101 OFFCURVE",
"991 101 CURVE SMOOTH",
"706 101 LINE SMOOTH",
"657 101 OFFCURVE",
"614 111 OFFCURVE",
"614 177 CURVE SMOOTH",
"614 746 LINE",
"930 874 LINE",
"941 885 OFFCURVE",
"935 928 OFFCURVE",
"926 951 CURVE SMOOTH",
"920 966 OFFCURVE",
"906 979 OFFCURVE",
"891 974 CURVE",
"614 862 LINE",
"614 1237 LINE SMOOTH",
"614 1311 OFFCURVE",
"695 1331 OFFCURVE",
"809 1331 CURVE SMOOTH",
"835 1331 OFFCURVE",
"842 1347 OFFCURVE",
"842 1368 CURVE SMOOTH",
"842 1383 OFFCURVE",
"831 1419 OFFCURVE",
"808 1419 CURVE SMOOTH",
"123 1419 LINE SMOOTH",
"100 1419 OFFCURVE",
"89 1383 OFFCURVE",
"89 1368 CURVE SMOOTH",
"89 1338 OFFCURVE",
"97 1333 OFFCURVE",
"125 1331 CURVE SMOOTH",
"196 1326 OFFCURVE",
"277 1320 OFFCURVE",
"277 1234 CURVE SMOOTH",
"277 726 LINE",
"69 642 LINE",
"59 631 OFFCURVE",
"57 607 OFFCURVE",
"66 584 CURVE SMOOTH",
"72 569 OFFCURVE",
"93 537 OFFCURVE",
"108 542 CURVE",
"277 610 LINE",
"277 162 LINE SMOOTH",
"277 118 OFFCURVE",
"196 93 OFFCURVE",
"132 88 CURVE",
"106 85 OFFCURVE",
"99 72 OFFCURVE",
"99 51 CURVE SMOOTH {name = hr00;}"
);
}
);
width = 1405;
}
);
leftKerningGroup = H;
rightKerningGroup = L;
unicode = 0141;
},
{
glyphname = M;
lastChange = "2018-07-10 04:26:36 +0000";
layers = (
{
anchors = (
{
name = btm;
position = "{930, -200}";
},
{
name = top;
position = "{930, 2000}";
}
);
layerId = "DD6F9F34-BC40-4E8F-B1D3-DF3B42A9710F";
paths = (
{
closed = 1;
nodes = (
"569 0 LINE SMOOTH",
"592 0 OFFCURVE",
"603 36 OFFCURVE",
"603 51 CURVE SMOOTH",
"603 81 OFFCURVE",
"595 85 OFFCURVE",
"567 88 CURVE",
"494 93 OFFCURVE",
"375 99 OFFCURVE",
"375 185 CURVE SMOOTH",
"375 1281 LINE",
"412 1281 LINE",
"890 0 LINE",
"891 3 LINE",
"891 0 LINE",
"941 0 LINE",
"1377 1281 LINE",
"1405 1281 LINE",
"1404 152 LINE SMOOTH",
"1404 108 OFFCURVE",
"1313 93 OFFCURVE",
"1249 88 CURVE",
"1223 85 OFFCURVE",
"1216 72 OFFCURVE",
"1216 51 CURVE SMOOTH",
"1216 36 OFFCURVE",
"1227 0 OFFCURVE",
"1250 0 CURVE SMOOTH",
"1765 0 LINE SMOOTH",
"1788 0 OFFCURVE",
"1799 36 OFFCURVE",
"1799 51 CURVE SMOOTH",
"1799 81 OFFCURVE",
"1791 85 OFFCURVE",
"1763 88 CURVE SMOOTH",
"1702 93 OFFCURVE",
"1611 99 OFFCURVE",
"1611 185 CURVE SMOOTH",
"1612 1267 LINE SMOOTH",
"1612 1311 OFFCURVE",
"1693 1326 OFFCURVE",
"1757 1331 CURVE",
"1783 1334 OFFCURVE",
"1790 1347 OFFCURVE",
"1790 1368 CURVE SMOOTH",
"1790 1383 OFFCURVE",
"1779 1419 OFFCURVE",
"1756 1419 CURVE SMOOTH",
"1318 1419 LINE",
"1308 1373 OFFCURVE",
"1291 1326 OFFCURVE",
"1265 1246 CURVE SMOOTH",
"963 366 LINE",
"951 366 LINE",
"589 1419 LINE",
"95 1419 LINE",
"72 1418 OFFCURVE",
"61 1383 OFFCURVE",
"61 1368 CURVE SMOOTH",
"61 1338 OFFCURVE",
"69 1334 OFFCURVE",
"97 1331 CURVE",
"170 1326 OFFCURVE",
"278 1320 OFFCURVE",
"278 1234 CURVE SMOOTH",
"278 184 LINE SMOOTH",
"278 100 OFFCURVE",
"182 93 OFFCURVE",
"103 88 CURVE",
"77 85 OFFCURVE",
"70 72 OFFCURVE",
"70 51 CURVE SMOOTH",
"70 36 OFFCURVE",
"81 0 OFFCURVE",
"104 0 CURVE SMOOTH"
);
}
);
width = 1899;
},
{
anchors = (
{
name = btm;
position = "{985, -200}";
},
{
name = top;
position = "{1020, 2000}";
}
);
layerId = "62CA62AF-CD91-478A-AB8B-28A62CC47DA0";
paths = (
{
closed = 1;
nodes = (
"573 0 LINE SMOOTH",
"596 0 OFFCURVE",
"607 36 OFFCURVE",
"607 51 CURVE SMOOTH",
"607 81 OFFCURVE",
"599 85 OFFCURVE",
"571 88 CURVE",
"498 93 OFFCURVE",
"379 99 OFFCURVE",
"379 185 CURVE SMOOTH",
"379 1281 LINE",
"417 1281 LINE",
"935 0 LINE",
"936 3 LINE",
"936 0 LINE",
"986 0 LINE",
"1478 1281 LINE",
"1506 1281 LINE",
"1506 152 LINE SMOOTH",
"1506 108 OFFCURVE",
"1415 93 OFFCURVE",
"1351 88 CURVE",
"1325 85 OFFCURVE",
"1318 72 OFFCURVE",
"1318 51 CURVE SMOOTH",
"1318 36 OFFCURVE",
"1329 0 OFFCURVE",
"1352 0 CURVE SMOOTH",
"1997 0 LINE SMOOTH",
"2020 0 OFFCURVE",
"2031 36 OFFCURVE",
"2031 51 CURVE SMOOTH",
"2031 81 OFFCURVE",
"2023 85 OFFCURVE",
"1995 88 CURVE SMOOTH",
"1934 93 OFFCURVE",
"1844 99 OFFCURVE",
"1844 185 CURVE SMOOTH",
"1844 1267 LINE SMOOTH",
"1844 1311 OFFCURVE",
"1921 1326 OFFCURVE",
"1989 1331 CURVE",
"2015 1334 OFFCURVE",
"2022 1347 OFFCURVE",
"2022 1368 CURVE SMOOTH",
"2022 1383 OFFCURVE",
"2011 1419 OFFCURVE",
"1988 1419 CURVE SMOOTH",
"1411 1419 LINE",
"1411 1398 OFFCURVE",
"1401 1350 OFFCURVE",
"1394 1331 CURVE SMOOTH",
"1070 497 LINE",
"741 1414 LINE",
"741 1419 LINE",
"99 1419 LINE",
"76 1418 OFFCURVE",
"65 1383 OFFCURVE",
"65 1368 CURVE SMOOTH",
"65 1338 OFFCURVE",
"73 1334 OFFCURVE",
"101 1331 CURVE",
"174 1326 OFFCURVE",
"282 1320 OFFCURVE",
"282 1234 CURVE SMOOTH",
"282 184 LINE SMOOTH",
"282 100 OFFCURVE",
"186 93 OFFCURVE",
"107 88 CURVE",
"81 85 OFFCURVE",
"74 72 OFFCURVE",
"74 51 CURVE SMOOTH {name = hr00;}",
"74 36 OFFCURVE",
"85 0 OFFCURVE",
"108 0 CURVE SMOOTH"
);
}
);
width = 2095;
}
);
leftKerningGroup = M;
rightKerningGroup = M;
unicode = 004D;
userData = {
com.typemytype.robofont.guides = (
{
angle = 0;
isGlobal = 0;
magnetic = 5;
x = 0;
y = 1281;
}
);
};
},
{
glyphname = N;
lastChange = "2018-07-10 04:20:44 +0000";
layers = (
{
anchors = (
{
name = btm;
position = "{805, -200}";
},
{
name = top;
position = "{805, 2000}";
}
);
layerId = "DD6F9F34-BC40-4E8F-B1D3-DF3B42A9710F";
paths = (
{
closed = 1;
nodes = (
"1328 2 LINE",
"1263 343 LINE",
"1222 343 LINE",
"443 1419 LINE",
"358 1130 LINE",
"382 1130 LINE",
"1223 -8 LINE"
);
},
{
closed = 1;
nodes = (
"539 0 LINE SMOOTH",
"562 0 OFFCURVE",
"573 36 OFFCURVE",
"573 51 CURVE SMOOTH",
"573 81 OFFCURVE",
"565 85 OFFCURVE",
"537 88 CURVE SMOOTH",
"476 93 OFFCURVE",
"365 99 OFFCURVE",
"365 185 CURVE SMOOTH",
"365 1138 LINE",
"433 1212 LINE",
"443 1419 LINE",
"105 1419 LINE SMOOTH",
"82 1419 OFFCURVE",
"71 1383 OFFCURVE",
"71 1368 CURVE SMOOTH",
"71 1338 OFFCURVE",
"79 1334 OFFCURVE",
"107 1331 CURVE SMOOTH",
"168 1326 OFFCURVE",
"268 1320 OFFCURVE",
"268 1234 CURVE SMOOTH",
"268 172 LINE SMOOTH",
"268 108 OFFCURVE",
"177 93 OFFCURVE",
"113 88 CURVE",
"87 85 OFFCURVE",
"80 72 OFFCURVE",
"80 51 CURVE SMOOTH",
"80 36 OFFCURVE",
"91 0 OFFCURVE",
"114 0 CURVE SMOOTH"
);
},
{
closed = 1;
nodes = (
"1305 -30 OFFCURVE",
"1342 -16 OFFCURVE",
"1337 40 CURVE SMOOTH",
"1334 78 OFFCURVE",
"1331 88 OFFCURVE",
"1331 113 CURVE SMOOTH",
"1331 186 OFFCURVE",
"1331 163 OFFCURVE",
"1331 1234 CURVE SMOOTH",
"1331 1320 OFFCURVE",
"1445 1325 OFFCURVE",
"1506 1331 CURVE SMOOTH",
"1532 1334 OFFCURVE",
"1539 1347 OFFCURVE",
"1539 1368 CURVE SMOOTH",
"1539 1383 OFFCURVE",
"1528 1419 OFFCURVE",
"1505 1419 CURVE SMOOTH",
"1050 1419 LINE SMOOTH",
"1027 1419 OFFCURVE",
"1016 1383 OFFCURVE",
"1016 1368 CURVE SMOOTH",
"1016 1338 OFFCURVE",
"1024 1334 OFFCURVE",
"1052 1331 CURVE SMOOTH",
"1113 1326 OFFCURVE",
"1234 1320 OFFCURVE",
"1234 1234 CURVE SMOOTH",
"1234 297 LINE",
"1213 219 OFFCURVE",
"1152 99 OFFCURVE",
"1223 -8 CURVE",
"1233 -20 OFFCURVE",
"1256 -30 OFFCURVE",
"1277 -30 CURVE SMOOTH"
);
}
);
width = 1571;
},
{
anchors = (
{
name = btm;
position = "{850, -200}";
},
{
name = top;
position = "{850, 2000}";
}
);
layerId = "62CA62AF-CD91-478A-AB8B-28A62CC47DA0";
paths = (
{
closed = 1;
nodes = (
"1406 -30 OFFCURVE",
"1479 -12 OFFCURVE",
"1475 40 CURVE SMOOTH",
"1472 78 OFFCURVE",
"1469 88 OFFCURVE",
"1469 113 CURVE SMOOTH",
"1469 1239 LINE SMOOTH",
"1469 1306 OFFCURVE",
"1583 1325 OFFCURVE",
"1644 1331 CURVE SMOOTH",
"1670 1334 OFFCURVE",
"1677 1347 OFFCURVE",
"1677 1368 CURVE SMOOTH",
"1677 1383 OFFCURVE",
"1666 1419 OFFCURVE",
"1643 1419 CURVE SMOOTH",
"1168 1419 LINE SMOOTH",
"1145 1419 OFFCURVE",
"1134 1383 OFFCURVE",
"1134 1368 CURVE SMOOTH",
"1134 1338 OFFCURVE",
"1142 1334 OFFCURVE",
"1170 1331 CURVE SMOOTH",
"1231 1326 OFFCURVE",
"1352 1320 OFFCURVE",
"1352 1234 CURVE SMOOTH",
"1352 483 LINE",
"1340 483 LINE",
"581 1419 LINE",
"123 1419 LINE SMOOTH",
"100 1419 OFFCURVE",
"89 1383 OFFCURVE",
"89 1368 CURVE SMOOTH",
"89 1338 OFFCURVE",
"97 1334 OFFCURVE",
"125 1331 CURVE SMOOTH",
"186 1326 OFFCURVE",
"286 1320 OFFCURVE",
"286 1234 CURVE SMOOTH",
"286 172 LINE SMOOTH",
"286 108 OFFCURVE",
"165 93 OFFCURVE",
"101 88 CURVE {name = hr03;}",
"75 85 OFFCURVE",
"68 72 OFFCURVE",
"68 51 CURVE SMOOTH {name = hr01;}",
"68 36 OFFCURVE",
"79 0 OFFCURVE",
"102 0 CURVE SMOOTH",
"617 0 LINE SMOOTH",
"640 0 OFFCURVE",
"651 36 OFFCURVE",
"651 51 CURVE SMOOTH",
"651 81 OFFCURVE",
"643 85 OFFCURVE",
"615 88 CURVE SMOOTH",
"554 93 OFFCURVE",
"413 99 OFFCURVE",
"413 185 CURVE SMOOTH",
"413 1080 LINE",
"430 1080 LINE",
"1311 -8 LINE SMOOTH {name = hr02;}",
"1321 -20 OFFCURVE",
"1344 -30 OFFCURVE",
"1365 -30 CURVE SMOOTH"
);
}
);
width = 1718;
}
);
leftKerningGroup = H;
rightKerningGroup = H;
unicode = 004E;
},
{
glyphname = Eng;
lastChange = "2018-07-10 04:27:41 +0000";
layers = (
{
layerId = "DD6F9F34-BC40-4E8F-B1D3-DF3B42A9710F";
paths = (
{
closed = 1;
nodes = (
"1192 -449 OFFCURVE",
"1331 -198 OFFCURVE",
"1331 44 CURVE SMOOTH",
"1331 1267 LINE SMOOTH",
"1331 1311 OFFCURVE",
"1425 1326 OFFCURVE",
"1486 1331 CURVE SMOOTH",
"1512 1334 OFFCURVE",
"1519 1347 OFFCURVE",
"1519 1368 CURVE SMOOTH",
"1519 1383 OFFCURVE",
"1508 1419 OFFCURVE",
"1485 1419 CURVE SMOOTH",
"1080 1419 LINE SMOOTH",
"1057 1419 OFFCURVE",
"1046 1383 OFFCURVE",
"1046 1368 CURVE SMOOTH",
"1046 1338 OFFCURVE",
"1054 1334 OFFCURVE",
"1082 1331 CURVE SMOOTH",
"1143 1326 OFFCURVE",
"1234 1320 OFFCURVE",
"1234 1234 CURVE SMOOTH",
"1234 333 LINE",
"1222 333 LINE",
"443 1419 LINE",
"125 1419 LINE SMOOTH",
"102 1419 OFFCURVE",
"91 1383 OFFCURVE",
"91 1368 CURVE SMOOTH",
"91 1338 OFFCURVE",
"99 1334 OFFCURVE",
"127 1331 CURVE SMOOTH",
"188 1326 OFFCURVE",
"268 1320 OFFCURVE",
"268 1234 CURVE SMOOTH",
"268 172 LINE SMOOTH",
"268 108 OFFCURVE",
"197 93 OFFCURVE",
"133 88 CURVE",
"107 85 OFFCURVE",
"100 72 OFFCURVE",
"100 51 CURVE SMOOTH",
"100 36 OFFCURVE",
"111 0 OFFCURVE",
"134 0 CURVE SMOOTH",
"509 0 LINE SMOOTH",
"532 0 OFFCURVE",
"543 36 OFFCURVE",
"543 51 CURVE SMOOTH",
"543 81 OFFCURVE",
"535 85 OFFCURVE",
"507 88 CURVE SMOOTH",
"446 93 OFFCURVE",
"365 99 OFFCURVE",
"365 185 CURVE SMOOTH",
"365 1140 LINE",
"382 1140 LINE",
"1223 -7 LINE",
"1208 -276 OFFCURVE",
"1088 -345 OFFCURVE",
"1014 -356 CURVE",
"936 -212 LINE",
"914 -198 OFFCURVE",
"804 -220 OFFCURVE",
"804 -310 CURVE SMOOTH",
"804 -379 OFFCURVE",
"852 -449 OFFCURVE",
"980 -449 CURVE SMOOTH"
);
}
);
width = 1571;
},
{
layerId = "62CA62AF-CD91-478A-AB8B-28A62CC47DA0";
paths = (
{
closed = 1;
nodes = (
"1437 -449 OFFCURVE",
"1469 -147 OFFCURVE",
"1469 88 CURVE SMOOTH",
"1469 1239 LINE SMOOTH",
"1469 1306 OFFCURVE",
"1583 1325 OFFCURVE",
"1644 1331 CURVE SMOOTH",
"1670 1334 OFFCURVE",
"1677 1347 OFFCURVE",
"1677 1368 CURVE SMOOTH",
"1677 1383 OFFCURVE",
"1666 1419 OFFCURVE",
"1643 1419 CURVE SMOOTH",
"1168 1419 LINE SMOOTH",
"1145 1419 OFFCURVE",
"1134 1383 OFFCURVE",
"1134 1368 CURVE SMOOTH",
"1134 1338 OFFCURVE",
"1142 1334 OFFCURVE",
"1170 1331 CURVE SMOOTH",
"1231 1326 OFFCURVE",
"1352 1320 OFFCURVE",
"1352 1234 CURVE SMOOTH",
"1352 483 LINE",
"1340 483 LINE",
"581 1419 LINE",
"123 1419 LINE SMOOTH",
"100 1419 OFFCURVE",
"89 1383 OFFCURVE",
"89 1368 CURVE SMOOTH",
"89 1338 OFFCURVE",
"97 1334 OFFCURVE",
"125 1331 CURVE SMOOTH",
"186 1326 OFFCURVE",
"286 1320 OFFCURVE",
"286 1234 CURVE SMOOTH",
"286 172 LINE SMOOTH",
"286 108 OFFCURVE",
"165 93 OFFCURVE",
"101 88 CURVE",
"75 85 OFFCURVE",
"68 72 OFFCURVE",
"68 51 CURVE SMOOTH {name = hr00;}",
"68 36 OFFCURVE",
"79 0 OFFCURVE",
"102 0 CURVE SMOOTH",
"617 0 LINE SMOOTH",
"640 0 OFFCURVE",
"651 36 OFFCURVE",
"651 51 CURVE SMOOTH",
"651 81 OFFCURVE",
"643 85 OFFCURVE",
"615 88 CURVE SMOOTH",
"554 93 OFFCURVE",
"413 99 OFFCURVE",
"413 185 CURVE SMOOTH",
"413 1080 LINE",
"430 1080 LINE",
"1348 -55 LINE",
"1322 -278 OFFCURVE",
"1204 -347 OFFCURVE",
"1032 -347 CURVE",
"876 -64 LINE",
"797 -64 OFFCURVE",
"700 -140 OFFCURVE",
"700 -234 CURVE SMOOTH",
"700 -351 OFFCURVE",
"842 -449 OFFCURVE",
"1015 -449 CURVE SMOOTH"
);
}
);
width = 1718;
}
);
leftKerningGroup = Eng;
rightKerningGroup = Eng;
unicode = 014A;
},
{
color = 4;
glyphname = O;
lastChange = "2018-05-24 15:39:10 +0000";
layers = (
{
anchors = (
{
name = btm;
position = "{762, -200}";
},
{
name = top;
position = "{762, 2000}";
}
);
layerId = "DD6F9F34-BC40-4E8F-B1D3-DF3B42A9710F";
paths = (
{
closed = 1;
nodes = (
"94 306 OFFCURVE",
"338 -29 OFFCURVE",
"759 -29 CURVE SMOOTH",
"1181 -29 OFFCURVE",
"1430 306 OFFCURVE",
"1430 716 CURVE SMOOTH",
"1430 1126 OFFCURVE",
"1191 1449 OFFCURVE",
"769 1449 CURVE SMOOTH",
"347 1449 OFFCURVE",
"94 1126 OFFCURVE",
"94 716 CURVE SMOOTH"
);
},
{
closed = 1;
nodes = (
"339 1116 OFFCURVE",
"425 1356 OFFCURVE",
"758 1356 CURVE SMOOTH",
"1088 1356 OFFCURVE",
"1182 1116 OFFCURVE",
"1182 714 CURVE SMOOTH",
"1182 312 OFFCURVE",
"1094 65 OFFCURVE",
"763 65 CURVE SMOOTH",
"432 65 OFFCURVE",
"339 312 OFFCURVE",
"339 714 CURVE SMOOTH"
);
}
);
width = 1524;
},
{
anchors = (
{
name = btm;
position = "{839, -200}";
},
{
name = top;
position = "{839, 2000}";
}
);
layerId = "62CA62AF-CD91-478A-AB8B-28A62CC47DA0";
paths = (
{
closed = 1;
nodes = (
"83 306 OFFCURVE",
"376 -29 OFFCURVE",
"839 -29 CURVE SMOOTH",
"1302 -29 OFFCURVE",
"1596 306 OFFCURVE",
"1596 716 CURVE SMOOTH",
"1596 1126 OFFCURVE",
"1303 1449 OFFCURVE",
"839 1449 CURVE SMOOTH",
"375 1449 OFFCURVE",
"83 1126 OFFCURVE",
"83 716 CURVE SMOOTH {name = hr00;}"
);
},
{
closed = 1;
nodes = (
"590 65 OFFCURVE",
"469 312 OFFCURVE",
"469 714 CURVE SMOOTH",
"469 1116 OFFCURVE",
"584 1356 OFFCURVE",
"837 1356 CURVE SMOOTH",
"1090 1356 OFFCURVE",
"1210 1116 OFFCURVE",
"1210 714 CURVE SMOOTH",
"1210 312 OFFCURVE",
"1096 65 OFFCURVE",
"843 65 CURVE SMOOTH"
);
}
);
width = 1679;
}
);
leftKerningGroup = O;
rightKerningGroup = O;
unicode = 004F;
},
{
glyphname = Oslash;
lastChange = "2018-07-10 04:20:44 +0000";
layers = (
{
components = (
{
name = O;
}
);
layerId = "DD6F9F34-BC40-4E8F-B1D3-DF3B42A9710F";
paths = (
{
closed = 1;
nodes = (
"1318 1537 LINE",
"1234 1585 LINE",
"215 -124 LINE",
"298 -173 LINE"
);
}
);
width = 1524;
},
{
layerId = "62CA62AF-CD91-478A-AB8B-28A62CC47DA0";
paths = (
{
closed = 1;
nodes = (
"490 45 LINE",
"591 -2 OFFCURVE",
"708 -29 OFFCURVE",
"839 -29 CURVE SMOOTH",
"1302 -29 OFFCURVE",
"1596 306 OFFCURVE",
"1596 716 CURVE SMOOTH",
"1596 981 OFFCURVE",
"1473 1210 OFFCURVE",
"1260 1339 CURVE",
"1371 1525 LINE",
"1373 1540 OFFCURVE",
"1351 1565 OFFCURVE",
"1330 1578 CURVE SMOOTH",
"1316 1586 OFFCURVE",
"1298 1588 OFFCURVE",
"1288 1575 CURVE",
"1174 1383 LINE",
"1076 1425 OFFCURVE",
"964 1449 OFFCURVE",
"839 1449 CURVE SMOOTH",
"375 1449 OFFCURVE",
"83 1126 OFFCURVE",
"83 716 CURVE SMOOTH",
"83 455 OFFCURVE",
"201 226 OFFCURVE",
"406 92 CURVE",
"283 -114 LINE {name = hr00;}",
"281 -129 OFFCURVE",
"294 -149 OFFCURVE",
"316 -162 CURVE SMOOTH",
"329 -170 OFFCURVE",
"356 -177 OFFCURVE",
"365 -164 CURVE"
);
},
{
closed = 1;
nodes = (
"731 65 OFFCURVE",
"644 113 OFFCURVE",
"583 202 CURVE",
"1141 1139 LINE",
"1187 1032 OFFCURVE",
"1210 888 OFFCURVE",
"1210 714 CURVE SMOOTH",
"1210 312 OFFCURVE",
"1096 65 OFFCURVE",
"843 65 CURVE SMOOTH"
);
},
{
closed = 1;
nodes = (
"489 409 OFFCURVE",
"469 548 OFFCURVE",
"469 714 CURVE SMOOTH",
"469 1116 OFFCURVE",
"584 1356 OFFCURVE",
"837 1356 CURVE SMOOTH",
"943 1356 OFFCURVE",
"1025 1314 OFFCURVE",
"1086 1235 CURVE",
"531 303 LINE"
);
}
);
width = 1679;
}
);
leftKerningGroup = O;
rightKerningGroup = O;
unicode = 00D8;
},
{
glyphname = OE;
lastChange = "2018-07-10 04:30:59 +0000";
layers = (
{
anchors = (
{
name = top;
position = "{1137, 2001}";
}
);
layerId = "DD6F9F34-BC40-4E8F-B1D3-DF3B42A9710F";
paths = (
{
closed = 1;
nodes = (
"918 -29 OFFCURVE",
"956 0 OFFCURVE",
"1137 0 CURVE SMOOTH",
"1964 1 LINE",
"2007 412 LINE",
"2007 435 OFFCURVE",
"1982 446 OFFCURVE",
"1966 446 CURVE SMOOTH",
"1944 446 OFFCURVE",
"1921 439 OFFCURVE",
"1919 413 CURVE SMOOTH",
"1914 364 OFFCURVE",
"1788 101 OFFCURVE",
"1695 101 CURVE SMOOTH",
"1311 101 LINE",
"1257 101 OFFCURVE",
"1210 130 OFFCURVE",
"1210 214 CURVE",
"1210 697 LINE",
"1514 697 LINE SMOOTH",
"1570 697 OFFCURVE",
"1610 556 OFFCURVE",
"1615 513 CURVE SMOOTH",
"1618 487 OFFCURVE",
"1641 480 OFFCURVE",
"1662 480 CURVE SMOOTH",
"1677 480 OFFCURVE",
"1703 491 OFFCURVE",
"1703 514 CURVE SMOOTH",
"1703 957 LINE SMOOTH",
"1703 980 OFFCURVE",
"1678 991 OFFCURVE",
"1662 991 CURVE SMOOTH",
"1640 991 OFFCURVE",
"1617 984 OFFCURVE",
"1615 958 CURVE",
"1610 918 OFFCURVE",
"1572 791 OFFCURVE",
"1520 784 CURVE",
"1210 784 LINE",
"1210 1321 LINE",
"1635 1320 LINE SMOOTH",
"1743 1320 OFFCURVE",
"1836 1102 OFFCURVE",
"1841 1053 CURVE SMOOTH",
"1844 1027 OFFCURVE",
"1867 1020 OFFCURVE",
"1888 1020 CURVE SMOOTH",
"1903 1020 OFFCURVE",
"1929 1031 OFFCURVE",
"1929 1054 CURVE",
"1894 1418 LINE",
"1021 1419 LINE SMOOTH",
"950 1419 OFFCURVE",
"915 1449 OFFCURVE",
"749 1449 CURVE SMOOTH",
"341 1449 OFFCURVE",
"94 1126 OFFCURVE",
"94 716 CURVE SMOOTH",
"94 306 OFFCURVE",
"334 -29 OFFCURVE",
"739 -29 CURVE SMOOTH"
);
},
{
closed = 1;
nodes = (
"426 65 OFFCURVE",
"336 312 OFFCURVE",
"336 714 CURVE SMOOTH",
"336 1116 OFFCURVE",
"421 1360 OFFCURVE",
"738 1360 CURVE SMOOTH",
"903 1360 OFFCURVE",
"974 1313 OFFCURVE",
"1003 1275 CURVE",
"1003 1274 LINE",
"1002 141 LINE",
"963 78 OFFCURVE",
"879 65 OFFCURVE",
"743 65 CURVE SMOOTH"
);
}
);
width = 2044;
},
{
anchors = (
{
name = top;
position = "{1137, 2001}";
}
);
layerId = "62CA62AF-CD91-478A-AB8B-28A62CC47DA0";
paths = (
{
closed = 1;
nodes = (
"926 -29 OFFCURVE",
"1003 0 OFFCURVE",
"1159 0 CURVE SMOOTH {name = hr02;}",
"2176 0 LINE",
"2176 372 LINE",
"2173 395 OFFCURVE",
"2152 406 OFFCURVE",
"2127 406 CURVE SMOOTH",
"2106 406 OFFCURVE",
"2065 398 OFFCURVE",
"2059 373 CURVE SMOOTH",
"2010 172 OFFCURVE",
"1969 101 OFFCURVE",
"1849 101 CURVE SMOOTH",
"1481 101 LINE",
"1437 105 OFFCURVE",
"1392 124 OFFCURVE",
"1392 197 CURVE SMOOTH",
"1392 682 LINE",
"1665 682 LINE SMOOTH",
"1721 682 OFFCURVE",
"1766 546 OFFCURVE",
"1769 503 CURVE",
"1772 477 OFFCURVE",
"1797 470 OFFCURVE",
"1818 470 CURVE SMOOTH",
"1833 470 OFFCURVE",
"1859 481 OFFCURVE",
"1859 504 CURVE SMOOTH",
"1859 947 LINE SMOOTH",
"1859 970 OFFCURVE",
"1833 981 OFFCURVE",
"1818 981 CURVE SMOOTH",
"1797 981 OFFCURVE",
"1775 975 OFFCURVE",
"1772 949 CURVE SMOOTH",
"1767 909 OFFCURVE",
"1723 785 OFFCURVE",
"1671 778 CURVE",
"1392 778 LINE",
"1392 1320 LINE",
"1789 1320 LINE SMOOTH",
"1897 1320 OFFCURVE",
"1915 1243 OFFCURVE",
"1995 1093 CURVE SMOOTH",
"2011 1063 OFFCURVE",
"2038 1060 OFFCURVE",
"2059 1060 CURVE SMOOTH",
"2074 1060 OFFCURVE",
"2098 1071 OFFCURVE",
"2096 1094 CURVE SMOOTH",
"2061 1419 LINE",
"1085 1419 LINE",
"1019 1421 OFFCURVE",
"958 1449 OFFCURVE",
"801 1449 CURVE SMOOTH {name = hr03;}",
"405 1449 OFFCURVE",
"83 1126 OFFCURVE",
"83 716 CURVE SMOOTH {name = hr01;}",
"83 306 OFFCURVE",
"398 -29 OFFCURVE",
"791 -29 CURVE SMOOTH"
);
},
{
closed = 1;
nodes = (
"591 65 OFFCURVE",
"455 312 OFFCURVE",
"455 714 CURVE SMOOTH",
"455 1116 OFFCURVE",
"588 1360 OFFCURVE",
"790 1360 CURVE SMOOTH",
"1007 1360 OFFCURVE",
"1039 1314 OFFCURVE",
"1056 1290 CURVE",
"1056 141 LINE",
"1055 143 LINE",
"1016 78 OFFCURVE",
"932 65 OFFCURVE",
"795 65 CURVE SMOOTH"
);
}
);
width = 2255;
}
);
leftKerningGroup = O;
rightKerningGroup = E;
unicode = 0152;
},
{
color = 4;
glyphname = P;
lastChange = "2018-05-24 17:04:34 +0000";
layers = (
{
anchors = (
{
name = btm;
position = "{654, -200}";
},
{
name = top;
position = "{654, 2000}";
}
);
layerId = "DD6F9F34-BC40-4E8F-B1D3-DF3B42A9710F";
paths = (
{
closed = 1;
nodes = (
"699 0 LINE SMOOTH",
"722 0 OFFCURVE",
"733 36 OFFCURVE",
"733 51 CURVE SMOOTH",
"733 81 OFFCURVE",
"725 85 OFFCURVE",
"697 88 CURVE",
"620 93 OFFCURVE",
"495 99 OFFCURVE",
"495 185 CURVE SMOOTH",
"495 555 LINE",
"674 555 LINE SMOOTH",
"974 555 OFFCURVE",
"1197 742 OFFCURVE",
"1197 1010 CURVE SMOOTH",
"1197 1321 OFFCURVE",
"950 1431 OFFCURVE",
"715 1431 CURVE SMOOTH",
"577 1431 OFFCURVE",
"490 1419 OFFCURVE",
"358 1419 CURVE",
"135 1419 LINE",
"112 1419 OFFCURVE",
"101 1383 OFFCURVE",
"101 1368 CURVE SMOOTH",
"101 1338 OFFCURVE",
"109 1334 OFFCURVE",
"137 1331 CURVE SMOOTH",
"198 1326 OFFCURVE",
"289 1320 OFFCURVE",
"289 1234 CURVE SMOOTH",
"288 152 LINE SMOOTH",
"288 108 OFFCURVE",
"207 93 OFFCURVE",
"143 88 CURVE",
"117 85 OFFCURVE",
"110 72 OFFCURVE",
"110 51 CURVE SMOOTH",
"110 36 OFFCURVE",
"121 0 OFFCURVE",
"144 0 CURVE SMOOTH"
);
},
{
closed = 1;
nodes = (
"496 1342 LINE",
"638 1342 LINE SMOOTH",
"797 1342 OFFCURVE",
"979 1265 OFFCURVE",
"979 989 CURVE SMOOTH",
"979 721 OFFCURVE",
"746 641 OFFCURVE",
"671 641 CURVE SMOOTH",
"495 641 LINE"
);
}
);
width = 1249;
},
{
anchors = (
{
name = btm;
position = "{728, -200}";
},
{
name = top;
position = "{728, 2000}";
}
);
layerId = "62CA62AF-CD91-478A-AB8B-28A62CC47DA0";
paths = (
{
closed = 1;
nodes = (
"844 0 LINE SMOOTH",
"867 0 OFFCURVE",
"878 36 OFFCURVE",
"878 51 CURVE SMOOTH",
"878 81 OFFCURVE",
"870 85 OFFCURVE",
"842 88 CURVE",
"765 93 OFFCURVE",
"621 99 OFFCURVE",
"621 185 CURVE SMOOTH",
"621 555 LINE",
"803 555 LINE SMOOTH",
"1210 555 OFFCURVE",
"1396 742 OFFCURVE",
"1396 1010 CURVE SMOOTH",
"1396 1321 OFFCURVE",
"1158 1429 OFFCURVE",
"833 1429 CURVE SMOOTH",
"724 1429 OFFCURVE",
"571 1419 OFFCURVE",
"425 1419 CURVE {name = hr02;}",
"130 1419 LINE SMOOTH",
"107 1419 OFFCURVE",
"96 1383 OFFCURVE",
"96 1368 CURVE SMOOTH",
"96 1338 OFFCURVE",
"104 1334 OFFCURVE",
"132 1331 CURVE SMOOTH",
"193 1326 OFFCURVE",
"283 1320 OFFCURVE",
"283 1234 CURVE SMOOTH",
"283 152 LINE SMOOTH",
"283 108 OFFCURVE",
"212 93 OFFCURVE",
"148 88 CURVE",
"122 85 OFFCURVE",
"115 72 OFFCURVE",
"115 51 CURVE SMOOTH {name = hr01;}",
"115 36 OFFCURVE",
"126 0 OFFCURVE",
"149 0 CURVE SMOOTH"
);
},
{
closed = 1;
nodes = (
"621 1332 LINE",
"720 1332 LINE SMOOTH",
"920 1332 OFFCURVE",
"1028 1265 OFFCURVE",
"1028 989 CURVE SMOOTH",
"1028 721 OFFCURVE",
"864 651 OFFCURVE",
"720 651 CURVE SMOOTH",
"621 651 LINE"
);
}
);
width = 1436;
}
);
leftKerningGroup = H;
rightKerningGroup = P;
unicode = 0050;
},
{
glyphname = Thorn;
lastChange = "2018-07-10 04:31:44 +0000";
layers = (
{
anchors = (
{
name = top;
position = "{683, 2000}";
}
);
layerId = "DD6F9F34-BC40-4E8F-B1D3-DF3B42A9710F";
paths = (
{
closed = 1;
nodes = (
"699 0 LINE SMOOTH",
"722 0 OFFCURVE",
"733 36 OFFCURVE",
"733 51 CURVE SMOOTH",
"733 81 OFFCURVE",
"725 85 OFFCURVE",
"697 88 CURVE SMOOTH",
"636 93 OFFCURVE",
"495 99 OFFCURVE",
"495 185 CURVE SMOOTH",
"495 309 LINE",
"704 309 LINE SMOOTH",
"1004 309 OFFCURVE",
"1197 492 OFFCURVE",
"1197 754 CURVE SMOOTH",
"1197 1057 OFFCURVE",
"980 1155 OFFCURVE",
"745 1155 CURVE SMOOTH",
"496 1153 LINE",
"496 1267 LINE SMOOTH",
"496 1311 OFFCURVE",
"577 1326 OFFCURVE",
"641 1331 CURVE",
"667 1334 OFFCURVE",
"674 1347 OFFCURVE",
"674 1368 CURVE SMOOTH",
"674 1383 OFFCURVE",
"663 1419 OFFCURVE",
"640 1419 CURVE SMOOTH",
"135 1419 LINE SMOOTH",
"112 1419 OFFCURVE",
"101 1383 OFFCURVE",
"101 1368 CURVE SMOOTH",
"101 1338 OFFCURVE",
"109 1334 OFFCURVE",
"137 1331 CURVE SMOOTH",
"198 1326 OFFCURVE",
"289 1320 OFFCURVE",
"289 1234 CURVE SMOOTH",
"288 152 LINE SMOOTH",
"288 108 OFFCURVE",
"207 93 OFFCURVE",
"143 88 CURVE",
"117 85 OFFCURVE",
"110 72 OFFCURVE",
"110 51 CURVE SMOOTH",
"110 36 OFFCURVE",
"121 0 OFFCURVE",
"144 0 CURVE SMOOTH"
);
},
{
closed = 1;
nodes = (
"496 1076 LINE",
"668 1076 LINE SMOOTH",
"827 1076 OFFCURVE",
"979 1001 OFFCURVE",
"979 733 CURVE SMOOTH",
"979 473 OFFCURVE",
"776 395 OFFCURVE",
"701 395 CURVE SMOOTH",
"495 395 LINE"
);
}
);
width = 1258;
},
{
anchors = (
{
name = top;
position = "{683, 2000}";
}
);
layerId = "62CA62AF-CD91-478A-AB8B-28A62CC47DA0";
paths = (
{
closed = 1;
nodes = (
"773 0 LINE SMOOTH",
"796 0 OFFCURVE",
"807 36 OFFCURVE",
"807 51 CURVE SMOOTH",
"807 81 OFFCURVE",
"799 85 OFFCURVE",
"771 88 CURVE SMOOTH",
"710 93 OFFCURVE",
"620 99 OFFCURVE",
"620 185 CURVE SMOOTH",
"620 318 LINE",
"825 318 LINE SMOOTH",
"1230 318 OFFCURVE",
"1398 503 OFFCURVE",
"1398 749 CURVE SMOOTH",
"1398 1024 OFFCURVE",
"1194 1144 OFFCURVE",
"796 1140 CURVE SMOOTH",
"620 1138 LINE",
"620 1267 LINE SMOOTH",
"620 1311 OFFCURVE",
"697 1326 OFFCURVE",
"765 1331 CURVE",
"791 1334 OFFCURVE",
"798 1347 OFFCURVE",
"798 1368 CURVE SMOOTH",
"798 1383 OFFCURVE",
"787 1419 OFFCURVE",
"764 1419 CURVE SMOOTH",
"139 1419 LINE SMOOTH",
"116 1419 OFFCURVE",
"105 1383 OFFCURVE",
"105 1368 CURVE SMOOTH",
"105 1338 OFFCURVE",
"113 1334 OFFCURVE",
"141 1331 CURVE SMOOTH",
"202 1326 OFFCURVE",
"283 1320 OFFCURVE",
"283 1234 CURVE SMOOTH",
"283 152 LINE SMOOTH",
"283 108 OFFCURVE",
"211 93 OFFCURVE",
"147 88 CURVE",
"121 85 OFFCURVE",
"114 72 OFFCURVE",
"114 51 CURVE SMOOTH {name = hr00;}",
"114 36 OFFCURVE",
"125 0 OFFCURVE",
"148 0 CURVE SMOOTH"
);
},
{
closed = 1;
nodes = (
"620 1061 LINE",
"685 1061 LINE SMOOTH",
"843 1061 OFFCURVE",
"1030 1018 OFFCURVE",
"1030 728 CURVE SMOOTH",
"1030 436 OFFCURVE",
"797 401 OFFCURVE",
"722 401 CURVE SMOOTH",
"620 401 LINE"
);
}
);
width = 1450;
}
);
leftKerningGroup = H;
rightKerningGroup = Thorn;
unicode = 00DE;
},
{
color = 4;
glyphname = Q;
lastChange = "2018-05-24 17:23:11 +0000";
layers = (
{
anchors = (
{
name = btm;
position = "{762, -200}";
},
{
name = top;
position = "{762, 2000}";
}
);
background = {
paths = (
{
closed = 1;
nodes = (
"1365 -393 CURVE",
"1365 -393 OFFCURVE",
"1365 -323 OFFCURVE",
"1365 -323 CURVE",
"993 -330 OFFCURVE",
"928 -76 OFFCURVE",
"925 29 CURVE SMOOTH",
"925 29 OFFCURVE",
"673 0 OFFCURVE",
"673 0 CURVE",
"733 -369 OFFCURVE",
"974 -427 OFFCURVE",
"1196 -427 CURVE SMOOTH",
"1305 -427 OFFCURVE",
"1365 -393 OFFCURVE"
);
}
);
};
components = (
{
name = O;
}
);
layerId = "DD6F9F34-BC40-4E8F-B1D3-DF3B42A9710F";
paths = (
{
closed = 1;
nodes = (
"1365 -324 LINE",
"1051 -324 OFFCURVE",
"951 -155 OFFCURVE",
"926 1 CURVE",
"673 -6 LINE {name = hr00;}",
"728 -376 OFFCURVE",
"989 -426 OFFCURVE",
"1183 -426 CURVE SMOOTH",
"1273 -426 OFFCURVE",
"1338 -405 OFFCURVE",
"1365 -393 CURVE"
);
}
);
width = 1524;
},
{
anchors = (
{
name = btm;
position = "{839, -200}";
},
{
name = top;
position = "{839, 2000}";
}
);
components = (
{
name = O;
}
);
layerId = "62CA62AF-CD91-478A-AB8B-28A62CC47DA0";
paths = (
{
closed = 1;
nodes = (
"1433 -303 LINE",
"1097 -309 OFFCURVE",
"1044 -113 OFFCURVE",
"1035 1 CURVE",
"653 -6 LINE {name = hr00;}",
"717 -364 OFFCURVE",
"1000 -419 OFFCURVE",
"1220 -419 CURVE SMOOTH",
"1329 -419 OFFCURVE",
"1406 -405 OFFCURVE",
"1433 -393 CURVE"
);
}
);
width = 1679;
}
);
leftKerningGroup = O;
rightKerningGroup = O;
unicode = 0051;
},
{
color = 4;
glyphname = R;
lastChange = "2018-05-24 17:18:32 +0000";
layers = (
{
anchors = (
{
name = btm;
position = "{776, -200}";
},
{
name = top;
position = "{776, 2000}";
}
);
layerId = "DD6F9F34-BC40-4E8F-B1D3-DF3B42A9710F";
paths = (
{
closed = 1;
nodes = (
"669 0 LINE SMOOTH",
"692 0 OFFCURVE",
"703 36 OFFCURVE",
"703 51 CURVE SMOOTH",
"703 81 OFFCURVE",
"695 85 OFFCURVE",
"667 88 CURVE",
"594 93 OFFCURVE",
"495 99 OFFCURVE",
"495 185 CURVE SMOOTH",
"495 625 LINE",
"700 625 LINE SMOOTH",
"995 625 OFFCURVE",
"873 0 OFFCURVE",
"1204 0 CURVE SMOOTH",
"1407 0 LINE SMOOTH",
"1429 0 OFFCURVE",
"1441 31 OFFCURVE",
"1441 46 CURVE SMOOTH",
"1441 76 OFFCURVE",
"1433 86 OFFCURVE",
"1405 89 CURVE SMOOTH",
"1356 94 OFFCURVE",
"1289 119 OFFCURVE",
"1244 206 CURVE",
"1129 389 OFFCURVE",
"1124 628 OFFCURVE",
"859 654 CURVE",
"1074 712 OFFCURVE",
"1211 840 OFFCURVE",
"1211 1050 CURVE SMOOTH",
"1211 1329 OFFCURVE",
"987 1426 OFFCURVE",
"705 1428 CURVE SMOOTH",
"560 1428 OFFCURVE",
"499 1420 OFFCURVE",
"331 1420 CURVE SMOOTH",
"278 1420 OFFCURVE",
"215 1419 OFFCURVE",
"135 1419 CURVE SMOOTH",
"112 1419 OFFCURVE",
"101 1383 OFFCURVE",
"101 1368 CURVE SMOOTH",
"101 1338 OFFCURVE",
"109 1334 OFFCURVE",
"137 1331 CURVE SMOOTH",
"198 1326 OFFCURVE",
"289 1320 OFFCURVE",
"289 1234 CURVE SMOOTH",
"288 152 LINE SMOOTH",
"288 108 OFFCURVE",
"207 93 OFFCURVE",
"143 88 CURVE",
"117 85 OFFCURVE",
"110 72 OFFCURVE",
"110 51 CURVE SMOOTH",
"110 36 OFFCURVE",
"121 0 OFFCURVE",
"144 0 CURVE SMOOTH"
);
},
{
closed = 1;
nodes = (
"496 1332 LINE",
"658 1332 LINE SMOOTH",
"850 1332 OFFCURVE",
"1002 1263 OFFCURVE",
"1002 1019 CURVE SMOOTH",
"1002 775 OFFCURVE",
"816 711 OFFCURVE",
"651 711 CURVE SMOOTH",
"495 711 LINE"
);
}
);
width = 1437;
},
{
anchors = (
{
name = btm;
position = "{904, -200}";
},
{
name = top;
position = "{851, 2000}";
}
);
background = {
paths = (
{
closed = 1;
nodes = (
"763 0 LINE SMOOTH",
"786 0 OFFCURVE",
"797 36 OFFCURVE",
"797 51 CURVE SMOOTH",
"797 81 OFFCURVE",
"789 85 OFFCURVE",
"761 88 CURVE",
"688 93 OFFCURVE",
"619 99 OFFCURVE",
"619 185 CURVE SMOOTH",
"619 615 LINE",
"801 615 LINE",
"903 500 OFFCURVE",
"984 200 OFFCURVE",
"1086 70 CURVE",
"1114 37 OFFCURVE",
"1148 0 OFFCURVE",
"1219 0 CURVE SMOOTH",
"1571 0 LINE SMOOTH",
"1593 0 OFFCURVE",
"1606 17 OFFCURVE",
"1607 32 CURVE SMOOTH",
"1609 62 OFFCURVE",
"1603 86 OFFCURVE",
"1575 89 CURVE SMOOTH",
"1487 99 OFFCURVE",
"1392 245 OFFCURVE",
"1335 317 CURVE",
"1258 418 OFFCURVE",
"1196 560 OFFCURVE",
"1121 656 CURVE",
"1322 723 OFFCURVE",
"1406 846 OFFCURVE",
"1406 1050 CURVE SMOOTH",
"1406 1337 OFFCURVE",
"1184 1429 OFFCURVE",
"816 1429 CURVE SMOOTH",
"639 1429 OFFCURVE",
"563 1419 OFFCURVE",
"366 1419 CURVE SMOOTH {name = hr02;}",
"129 1419 LINE SMOOTH",
"106 1419 OFFCURVE",
"95 1383 OFFCURVE",
"95 1368 CURVE SMOOTH",
"95 1338 OFFCURVE",
"103 1334 OFFCURVE",
"131 1331 CURVE SMOOTH",
"192 1326 OFFCURVE",
"283 1320 OFFCURVE",
"283 1234 CURVE SMOOTH",
"283 152 LINE SMOOTH",
"283 108 OFFCURVE",
"211 93 OFFCURVE",
"147 88 CURVE",
"121 85 OFFCURVE",
"114 72 OFFCURVE",
"114 51 CURVE SMOOTH {name = hr01;}",
"114 36 OFFCURVE",
"125 0 OFFCURVE",
"148 0 CURVE SMOOTH"
);
},
{
closed = 1;
nodes = (
"619 1325 LINE",
"645 1328 OFFCURVE",
"673 1332 OFFCURVE",
"733 1332 CURVE SMOOTH",
"941 1332 OFFCURVE",
"1027 1271 OFFCURVE",
"1027 1019 CURVE SMOOTH",
"1027 751 OFFCURVE",
"918 711 OFFCURVE",
"753 711 CURVE SMOOTH",
"619 711 LINE"
);
}
);
};
layerId = "62CA62AF-CD91-478A-AB8B-28A62CC47DA0";
paths = (
{
closed = 1;
nodes = (
"790 0 LINE SMOOTH",
"813 0 OFFCURVE",
"824 36 OFFCURVE",
"824 51 CURVE SMOOTH",
"824 81 OFFCURVE",
"816 85 OFFCURVE",
"788 88 CURVE",
"715 93 OFFCURVE",
"618 99 OFFCURVE",
"618 185 CURVE SMOOTH",
"618 625 LINE",
"695 625 LINE SMOOTH",
"983 625 OFFCURVE",
"888 0 OFFCURVE",
"1219 0 CURVE SMOOTH",
"1572 0 LINE SMOOTH",
"1594 0 OFFCURVE",
"1606 31 OFFCURVE",
"1606 46 CURVE SMOOTH",
"1606 76 OFFCURVE",
"1598 86 OFFCURVE",
"1570 89 CURVE SMOOTH",
"1521 94 OFFCURVE",
"1454 119 OFFCURVE",
"1409 206 CURVE",
"1294 389 OFFCURVE",
"1265 628 OFFCURVE",
"1000 654 CURVE",
"1215 712 OFFCURVE",
"1406 769 OFFCURVE",
"1406 1050 CURVE SMOOTH",
"1406 1329 OFFCURVE",
"1184 1429 OFFCURVE",
"826 1429 CURVE SMOOTH",
"647 1429 OFFCURVE",
"453 1421 OFFCURVE",
"323 1421 CURVE SMOOTH",
"260 1421 OFFCURVE",
"215 1419 OFFCURVE",
"132 1419 CURVE SMOOTH",
"109 1419 OFFCURVE",
"98 1383 OFFCURVE",
"98 1368 CURVE SMOOTH",
"98 1338 OFFCURVE",
"106 1334 OFFCURVE",
"134 1331 CURVE SMOOTH",
"195 1324 OFFCURVE",
"286 1320 OFFCURVE",
"286 1234 CURVE SMOOTH",
"285 152 LINE SMOOTH",
"285 108 OFFCURVE",
"204 93 OFFCURVE",
"140 88 CURVE",
"114 85 OFFCURVE",
"107 72 OFFCURVE",
"107 51 CURVE SMOOTH",
"107 36 OFFCURVE",
"118 0 OFFCURVE",
"141 0 CURVE SMOOTH"
);
},
{
closed = 1;
nodes = (
"618 1332 LINE",
"769 1332 LINE SMOOTH",
"961 1332 OFFCURVE",
"1029 1223 OFFCURVE",
"1029 1019 CURVE SMOOTH",
"1029 785 OFFCURVE",
"937 711 OFFCURVE",
"772 711 CURVE SMOOTH",
"618 711 LINE"
);
}
);
width = 1632;
}
);
leftKerningGroup = H;
rightKerningGroup = R;
unicode = 0052;
},
{
color = 4;
glyphname = S;
lastChange = "2018-05-24 17:13:51 +0000";
layers = (
{
anchors = (
{
name = btm;
position = "{586, -200}";
},
{
name = top;
position = "{586, 2000}";
}
);
layerId = "DD6F9F34-BC40-4E8F-B1D3-DF3B42A9710F";
paths = (
{
closed = 1;
nodes = (
"371 1308 OFFCURVE",
"469 1370 OFFCURVE",
"607 1370 CURVE SMOOTH",
"752 1370 OFFCURVE",
"880 1265 OFFCURVE",
"920 1051 CURVE SMOOTH",
"925 1023 OFFCURVE",
"1028 1003 OFFCURVE",
"1015 1100 CURVE SMOOTH",
"1001 1210 OFFCURVE",
"990 1369 OFFCURVE",
"990 1394 CURVE SMOOTH",
"990 1421 OFFCURVE",
"939 1444 OFFCURVE",
"909 1425 CURVE SMOOTH",
"886 1411 OFFCURVE",
"882 1391 OFFCURVE",
"827 1401 CURVE SMOOTH",
"792 1407 OFFCURVE",
"708 1449 OFFCURVE",
"590 1449 CURVE SMOOTH",
"407 1449 OFFCURVE",
"180 1344 OFFCURVE",
"180 1069 CURVE SMOOTH",
"180 831 OFFCURVE",
"372 720 OFFCURVE",
"556 626 CURVE SMOOTH",
"713 544 OFFCURVE",
"850 452 OFFCURVE",
"850 321 CURVE SMOOTH",
"850 125 OFFCURVE",
"740 59 OFFCURVE",
"620 59 CURVE SMOOTH",
"516 59 OFFCURVE",
"354 121 OFFCURVE",
"282 274 CURVE SMOOTH",
"228 389 OFFCURVE",
"215 444 OFFCURVE",
"208 478 CURVE SMOOTH",
"196 538 OFFCURVE",
"98 536 OFFCURVE",
"108 458 CURVE",
"117 378 OFFCURVE",
"135 214 OFFCURVE",
"126 72 CURVE SMOOTH",
"123 22 OFFCURVE",
"180 -1 OFFCURVE",
"238 65 CURVE SMOOTH",
"275 107 OFFCURVE",
"296 62 OFFCURVE",
"352 41 CURVE SMOOTH",
"396 25 OFFCURVE",
"475 -30 OFFCURVE",
"637 -30 CURVE SMOOTH",
"878 -30 OFFCURVE",
"1054 121 OFFCURVE",
"1054 382 CURVE SMOOTH",
"1054 581 OFFCURVE",
"862 713 OFFCURVE",
"677 815 CURVE SMOOTH",
"519 899 OFFCURVE",
"371 1000 OFFCURVE",
"371 1129 CURVE SMOOTH"
);
}
);
width = 1149;
},
{
anchors = (
{
name = btm;
position = "{656, -200}";
},
{
name = top;
position = "{661, 2000}";
}
);
layerId = "62CA62AF-CD91-478A-AB8B-28A62CC47DA0";
paths = (
{
closed = 1;
nodes = (
"126 3 OFFCURVE",
"203 -20 OFFCURVE",
"261 46 CURVE SMOOTH",
"299 88 OFFCURVE",
"312 61 OFFCURVE",
"368 41 CURVE SMOOTH",
"415 24 OFFCURVE",
"550 -30 OFFCURVE",
"683 -30 CURVE SMOOTH",
"1043 -30 OFFCURVE",
"1261 117 OFFCURVE",
"1261 372 CURVE SMOOTH {name = hr02;}",
"1261 591 OFFCURVE",
"1049 743 OFFCURVE",
"833 848 CURVE SMOOTH",
"655 935 OFFCURVE",
"465 1035 OFFCURVE",
"465 1194 CURVE SMOOTH",
"465 1326 OFFCURVE",
"576 1366 OFFCURVE",
"720 1366 CURVE SMOOTH",
"841 1366 OFFCURVE",
"999 1298 OFFCURVE",
"1052 1051 CURVE SMOOTH",
"1058 1022 OFFCURVE",
"1181 1003 OFFCURVE",
"1167 1100 CURVE",
"1153 1210 OFFCURVE",
"1142 1369 OFFCURVE",
"1142 1394 CURVE SMOOTH {name = hr03;}",
"1142 1421 OFFCURVE",
"1071 1444 OFFCURVE",
"1041 1425 CURVE SMOOTH",
"1018 1411 OFFCURVE",
"1021 1388 OFFCURVE",
"966 1398 CURVE SMOOTH {name = hr04;}",
"931 1404 OFFCURVE",
"817 1448 OFFCURVE",
"688 1448 CURVE SMOOTH",
"374 1448 OFFCURVE",
"160 1326 OFFCURVE",
"160 1069 CURVE SMOOTH",
"160 831 OFFCURVE",
"363 692 OFFCURVE",
"542 601 CURVE SMOOTH",
"738 502 OFFCURVE",
"944 413 OFFCURVE",
"944 240 CURVE SMOOTH",
"944 90 OFFCURVE",
"806 61 OFFCURVE",
"666 61 CURVE SMOOTH",
"556 61 OFFCURVE",
"381 141 OFFCURVE",
"305 294 CURVE",
"251 409 OFFCURVE",
"238 444 OFFCURVE",
"231 478 CURVE SMOOTH",
"219 538 OFFCURVE",
"101 536 OFFCURVE",
"111 458 CURVE",
"120 378 OFFCURVE",
"138 195 OFFCURVE",
"129 53 CURVE SMOOTH {name = hr01;}"
);
}
);
width = 1329;
}
);
leftKerningGroup = S;
rightKerningGroup = S;
unicode = 0053;
},
{
glyphname = Scedilla;
lastChange = "2018-07-10 04:20:44 +0000";
layers = (
{
components = (
{
name = S;
},
{
name = cedillacomb;
}
);
layerId = "DD6F9F34-BC40-4E8F-B1D3-DF3B42A9710F";
width = 1149;
},
{
layerId = "62CA62AF-CD91-478A-AB8B-28A62CC47DA0";
paths = (
{
closed = 1;
nodes = (
"849 -438 OFFCURVE",
"940 -368 OFFCURVE",
"940 -279 CURVE SMOOTH",
"940 -185 OFFCURVE",
"871 -114 OFFCURVE",
"723 -91 CURVE {name = hr03;}",
"723 -29 LINE",
"1059 -18 OFFCURVE",
"1261 126 OFFCURVE",
"1261 372 CURVE SMOOTH",
"1261 591 OFFCURVE",
"1049 736 OFFCURVE",
"833 848 CURVE SMOOTH",
"655 939 OFFCURVE",
"465 1065 OFFCURVE",
"465 1194 CURVE SMOOTH",
"465 1326 OFFCURVE",
"556 1366 OFFCURVE",
"720 1366 CURVE SMOOTH",
"841 1366 OFFCURVE",
"999 1298 OFFCURVE",
"1052 1051 CURVE SMOOTH",
"1058 1022 OFFCURVE",
"1181 1003 OFFCURVE",
"1167 1100 CURVE",
"1153 1210 OFFCURVE",
"1142 1369 OFFCURVE",
"1142 1394 CURVE SMOOTH {name = hr04;}",
"1142 1421 OFFCURVE",
"1071 1444 OFFCURVE",
"1041 1425 CURVE SMOOTH",
"1018 1411 OFFCURVE",
"1021 1388 OFFCURVE",
"966 1398 CURVE SMOOTH {name = hr05;}",
"931 1404 OFFCURVE",
"817 1448 OFFCURVE",
"688 1448 CURVE SMOOTH",
"404 1448 OFFCURVE",
"160 1326 OFFCURVE",
"160 1069 CURVE SMOOTH",
"160 831 OFFCURVE",
"366 702 OFFCURVE",
"542 601 CURVE",
"740 496 OFFCURVE",
"944 393 OFFCURVE",
"944 240 CURVE SMOOTH",
"944 90 OFFCURVE",
"806 61 OFFCURVE",
"666 61 CURVE SMOOTH",
"556 61 OFFCURVE",
"381 141 OFFCURVE",
"305 294 CURVE",
"251 409 OFFCURVE",
"238 444 OFFCURVE",
"231 478 CURVE SMOOTH",
"219 538 OFFCURVE",
"101 536 OFFCURVE",
"111 458 CURVE",
"120 378 OFFCURVE",
"138 195 OFFCURVE",
"129 53 CURVE SMOOTH {name = hr01;}",
"126 3 OFFCURVE",
"203 -20 OFFCURVE",
"261 46 CURVE SMOOTH",
"299 88 OFFCURVE",
"312 61 OFFCURVE",
"368 41 CURVE SMOOTH",
"401 29 OFFCURVE",
"476 0 OFFCURVE",
"564 -17 CURVE",
"556 -144 LINE",
"558 -144 LINE",
"556 -145 LINE",
"677 -177 OFFCURVE",
"695 -214 OFFCURVE",
"695 -258 CURVE SMOOTH {name = hr02;}",
"695 -313 OFFCURVE",
"609 -333 OFFCURVE",
"465 -316 CURVE SMOOTH",
"438 -313 OFFCURVE",
"429 -354 OFFCURVE",
"429 -380 CURVE SMOOTH",
"429 -395 OFFCURVE",
"434 -403 OFFCURVE",
"449 -408 CURVE SMOOTH",
"485 -420 OFFCURVE",
"547 -438 OFFCURVE",
"656 -438 CURVE SMOOTH"
);
}
);
width = 1329;
}
);
leftKerningGroup = S;
rightKerningGroup = S;
unicode = 015E;
},
{
color = 4;
glyphname = Schwa;
lastChange = "2018-07-10 06:22:18 +0000";
layers = (
{
anchors = (
{
name = btm;
position = "{719, -200}";
},
{
name = top;
position = "{719, 2000}";
}
);
layerId = "DD6F9F34-BC40-4E8F-B1D3-DF3B42A9710F";
paths = (
{
closed = 1;
nodes = (
"999 -30 OFFCURVE",
"1397 153 OFFCURVE",
"1397 706 CURVE SMOOTH",
"1397 1256 OFFCURVE",
"994 1449 OFFCURVE",
"698 1449 CURVE SMOOTH",
"433 1449 OFFCURVE",
"304 1392 OFFCURVE",
"233 1361 CURVE",
"211 1051 LINE",
"208 1028 OFFCURVE",
"231 1013 OFFCURVE",
"247 1011 CURVE SMOOTH",
"269 1008 OFFCURVE",
"291 1013 OFFCURVE",
"295 1039 CURVE",
"342 1207 OFFCURVE",
"464 1354 OFFCURVE",
"700 1353 CURVE SMOOTH",
"852 1354 OFFCURVE",
"1148 1260 OFFCURVE",
"1148 706 CURVE SMOOTH",
"1148 217 OFFCURVE",
"851 65 OFFCURVE",
"681 65 CURVE SMOOTH",
"473 65 OFFCURVE",
"414 298 OFFCURVE",
"402 370 CURVE SMOOTH",
"382 490 OFFCURVE",
"395 587 OFFCURVE",
"402 628 CURVE",
"1175 628 LINE",
"1203 631 OFFCURVE",
"1211 635 OFFCURVE",
"1211 665 CURVE SMOOTH",
"1211 680 OFFCURVE",
"1200 716 OFFCURVE",
"1177 716 CURVE SMOOTH",
"207 716 LINE SMOOTH",
"164 716 OFFCURVE",
"108 -30 OFFCURVE",
"727 -30 CURVE SMOOTH"
);
}
);
width = 1485;
},
{
anchors = (
{
name = btm;
position = "{825, -200}";
},
{
name = top;
position = "{777, 2000}";
}
);
layerId = "62CA62AF-CD91-478A-AB8B-28A62CC47DA0";
paths = (
{
closed = 1;
nodes = (
"1064 -30 OFFCURVE",
"1557 153 OFFCURVE",
"1557 706 CURVE SMOOTH {name = hr00;}",
"1557 1256 OFFCURVE",
"1082 1449 OFFCURVE",
"738 1449 CURVE SMOOTH",
"478 1449 OFFCURVE",
"300 1392 OFFCURVE",
"230 1361 CURVE",
"208 1051 LINE SMOOTH",
"206 1028 OFFCURVE",
"247 1013 OFFCURVE",
"264 1011 CURVE SMOOTH",
"286 1008 OFFCURVE",
"345 1013 OFFCURVE",
"350 1039 CURVE",
"396 1207 OFFCURVE",
"496 1353 OFFCURVE",
"740 1353 CURVE SMOOTH",
"884 1353 OFFCURVE",
"1178 1260 OFFCURVE",
"1178 706 CURVE SMOOTH",
"1178 217 OFFCURVE",
"898 65 OFFCURVE",
"731 65 CURVE SMOOTH",
"545 65 OFFCURVE",
"519 300 OFFCURVE",
"512 363 CURVE SMOOTH",
"505 424 OFFCURVE",
"512 485 OFFCURVE",
"512 546 CURVE",
"1251 553 LINE",
"1279 555 OFFCURVE",
"1287 560 OFFCURVE",
"1287 590 CURVE SMOOTH",
"1287 605 OFFCURVE",
"1276 641 OFFCURVE",
"1253 641 CURVE SMOOTH",
"196 641 LINE SMOOTH",
"144 641 OFFCURVE",
"88 -30 OFFCURVE",
"748 -30 CURVE SMOOTH"
);
}
);
width = 1653;
}
);
leftKerningGroup = O;
rightKerningGroup = O;
unicode = 018F;
},
{
color = 4;
glyphname = T;
lastChange = "2018-05-24 17:13:44 +0000";
layers = (
{
anchors = (
{
name = btm;
position = "{633, -200}";
},
{
name = top;
position = "{633, 2000}";
}
);
layerId = "DD6F9F34-BC40-4E8F-B1D3-DF3B42A9710F";
paths = (
{
closed = 1;
nodes = (
"940 0 LINE SMOOTH",
"963 0 OFFCURVE",
"974 36 OFFCURVE",
"974 51 CURVE SMOOTH",
"974 81 OFFCURVE",
"966 85 OFFCURVE",
"938 88 CURVE",
"857 93 OFFCURVE",
"736 99 OFFCURVE",
"736 185 CURVE SMOOTH",
"737 1320 LINE",
"1000 1320 LINE SMOOTH",
"1114 1320 OFFCURVE",
"1149 1084 OFFCURVE",
"1154 1019 CURVE",
"1157 993 OFFCURVE",
"1170 986 OFFCURVE",
"1191 986 CURVE SMOOTH",
"1206 986 OFFCURVE",
"1242 997 OFFCURVE",
"1242 1020 CURVE",
"1238 1151 OFFCURVE",
"1217 1419 OFFCURVE",
"1202 1419 CURVE SMOOTH",
"65 1419 LINE SMOOTH",
"50 1419 OFFCURVE",
"29 1151 OFFCURVE",
"25 1020 CURVE SMOOTH",
"25 997 OFFCURVE",
"61 986 OFFCURVE",
"76 986 CURVE SMOOTH",
"97 986 OFFCURVE",
"110 993 OFFCURVE",
"113 1019 CURVE",
"118 1084 OFFCURVE",
"153 1320 OFFCURVE",
"267 1320 CURVE SMOOTH",
"530 1320 LINE",
"529 182 LINE SMOOTH",
"529 108 OFFCURVE",
"418 93 OFFCURVE",
"324 88 CURVE",
"298 85 OFFCURVE",
"291 72 OFFCURVE",
"291 51 CURVE SMOOTH",
"291 36 OFFCURVE",
"302 0 OFFCURVE",
"325 0 CURVE SMOOTH"
);
}
);
width = 1267;
},
{
anchors = (
{
name = btm;
position = "{692, -200}";
},
{
name = top;
position = "{692, 2000}";
}
);
layerId = "62CA62AF-CD91-478A-AB8B-28A62CC47DA0";
paths = (
{
closed = 1;
nodes = (
"1063 0 LINE SMOOTH",
"1086 0 OFFCURVE",
"1097 36 OFFCURVE",
"1097 51 CURVE SMOOTH",
"1097 81 OFFCURVE",
"1089 85 OFFCURVE",
"1061 88 CURVE",
"980 93 OFFCURVE",
"859 99 OFFCURVE",
"859 185 CURVE SMOOTH",
"859 1320 LINE",
"1106 1320 LINE SMOOTH",
"1221 1320 OFFCURVE",
"1254 1084 OFFCURVE",
"1260 1019 CURVE SMOOTH",
"1263 993 OFFCURVE",
"1296 986 OFFCURVE",
"1317 986 CURVE SMOOTH",
"1332 986 OFFCURVE",
"1368 997 OFFCURVE",
"1368 1020 CURVE",
"1364 1151 OFFCURVE",
"1353 1419 OFFCURVE",
"1338 1419 CURVE SMOOTH",
"31 1419 LINE SMOOTH",
"16 1419 OFFCURVE",
"5 1151 OFFCURVE",
"1 1020 CURVE",
"1 997 OFFCURVE",
"37 986 OFFCURVE",
"52 986 CURVE SMOOTH",
"73 986 OFFCURVE",
"106 993 OFFCURVE",
"109 1019 CURVE",
"114 1084 OFFCURVE",
"149 1320 OFFCURVE",
"263 1320 CURVE SMOOTH",
"523 1320 LINE",
"523 182 LINE SMOOTH",
"523 108 OFFCURVE",
"411 93 OFFCURVE",
"317 88 CURVE",
"291 85 OFFCURVE",
"284 72 OFFCURVE",
"284 51 CURVE SMOOTH {name = hr00;}",
"284 36 OFFCURVE",
"295 0 OFFCURVE",
"318 0 CURVE SMOOTH"
);
}
);
width = 1401;
}
);
leftKerningGroup = T;
rightKerningGroup = T;
unicode = 0054;
},
{
glyphname = Tbar;
lastChange = "2018-07-10 04:33:59 +0000";
layers = (
{
components = (
{
name = T;
}
);
layerId = "DD6F9F34-BC40-4E8F-B1D3-DF3B42A9710F";
paths = (
{
closed = 1;
nodes = (
"1079 641 LINE",
"1093 647 OFFCURVE",
"1103 669 OFFCURVE",
"1103 694 CURVE SMOOTH",
"1103 710 OFFCURVE",
"1095 727 OFFCURVE",
"1079 728 CURVE",
"194 728 LINE",
"180 722 OFFCURVE",
"170 700 OFFCURVE",
"170 675 CURVE SMOOTH",
"170 659 OFFCURVE",
"178 642 OFFCURVE",
"194 641 CURVE"
);
}
);
width = 1267;
},
{
components = (
{
name = T;
}
);
layerId = "62CA62AF-CD91-478A-AB8B-28A62CC47DA0";
paths = (
{
closed = 1;
nodes = (
"1157 631 LINE",
"1171 637 OFFCURVE",
"1181 659 OFFCURVE",
"1181 684 CURVE SMOOTH",
"1181 700 OFFCURVE",
"1173 727 OFFCURVE",
"1157 728 CURVE",
"237 728 LINE",
"223 722 OFFCURVE",
"213 690 OFFCURVE",
"213 665 CURVE SMOOTH",
"213 649 OFFCURVE",
"221 632 OFFCURVE",
"237 631 CURVE"
);
}
);
width = 1401;
}
);
leftKerningGroup = T;
rightKerningGroup = T;
unicode = 0166;
},
{
glyphname = Tcedilla;
lastChange = "2018-05-24 13:54:47 +0000";
layers = (
{
components = (
{
name = T;
},
{
name = cedillacomb;
}
);
layerId = "DD6F9F34-BC40-4E8F-B1D3-DF3B42A9710F";
width = 1267;
},
{
layerId = "62CA62AF-CD91-478A-AB8B-28A62CC47DA0";
paths = (
{
closed = 1;
nodes = (
"284 36 OFFCURVE",
"295 0 OFFCURVE",
"318 0 CURVE SMOOTH",
"601 0 LINE {name = hr02;}",
"592 -144 LINE",
"594 -144 LINE",
"592 -145 LINE",
"713 -177 OFFCURVE",
"731 -214 OFFCURVE",
"731 -258 CURVE SMOOTH {name = hr03;}",
"731 -313 OFFCURVE",
"645 -333 OFFCURVE",
"501 -316 CURVE SMOOTH",
"474 -313 OFFCURVE",
"465 -354 OFFCURVE",
"465 -380 CURVE SMOOTH",
"465 -395 OFFCURVE",
"470 -403 OFFCURVE",
"485 -408 CURVE SMOOTH",
"521 -420 OFFCURVE",
"583 -438 OFFCURVE",
"692 -438 CURVE SMOOTH",
"885 -438 OFFCURVE",
"976 -368 OFFCURVE",
"976 -279 CURVE SMOOTH",
"976 -185 OFFCURVE",
"907 -114 OFFCURVE",
"759 -91 CURVE {name = hr04;}",
"759 0 LINE",
"1063 0 LINE SMOOTH",
"1086 0 OFFCURVE",
"1097 36 OFFCURVE",
"1097 51 CURVE SMOOTH",
"1097 81 OFFCURVE",
"1089 85 OFFCURVE",
"1061 88 CURVE",
"980 93 OFFCURVE",
"859 99 OFFCURVE",
"859 185 CURVE SMOOTH {name = hr05;}",
"859 1320 LINE",
"1106 1320 LINE SMOOTH",
"1221 1320 OFFCURVE",
"1254 1084 OFFCURVE",
"1260 1019 CURVE SMOOTH",
"1263 993 OFFCURVE",
"1296 986 OFFCURVE",
"1317 986 CURVE SMOOTH",
"1332 986 OFFCURVE",
"1368 997 OFFCURVE",
"1368 1020 CURVE",
"1364 1151 OFFCURVE",
"1353 1419 OFFCURVE",
"1338 1419 CURVE SMOOTH",
"31 1419 LINE SMOOTH",
"16 1419 OFFCURVE",
"5 1151 OFFCURVE",
"1 1020 CURVE",
"1 997 OFFCURVE",
"37 986 OFFCURVE",
"52 986 CURVE SMOOTH",
"73 986 OFFCURVE",
"106 993 OFFCURVE",
"109 1019 CURVE",
"114 1084 OFFCURVE",
"149 1320 OFFCURVE",
"263 1320 CURVE SMOOTH",
"523 1320 LINE",
"523 182 LINE SMOOTH",
"523 108 OFFCURVE",
"411 93 OFFCURVE",
"317 88 CURVE",
"291 85 OFFCURVE",
"284 72 OFFCURVE",
"284 51 CURVE SMOOTH {name = hr01;}"
);
}
);
width = 1401;
}
);
leftKerningGroup = T;
rightKerningGroup = T;
unicode = 0162;
},
{
color = 4;
glyphname = U;
lastChange = "2018-05-24 17:13:03 +0000";
layers = (
{
anchors = (
{
name = btm;
position = "{795, -199}";
},
{
name = top;
position = "{795, 2000}";
}
);
layerId = "DD6F9F34-BC40-4E8F-B1D3-DF3B42A9710F";
paths = (
{
closed = 1;
nodes = (
"1304 1294 OFFCURVE",
"1376 1326 OFFCURVE",
"1479 1331 CURVE SMOOTH",
"1505 1332 OFFCURVE",
"1512 1347 OFFCURVE",
"1512 1368 CURVE SMOOTH",
"1512 1383 OFFCURVE",
"1501 1419 OFFCURVE",
"1478 1419 CURVE SMOOTH",
"1022 1419 LINE SMOOTH",
"999 1419 OFFCURVE",
"988 1383 OFFCURVE",
"988 1368 CURVE SMOOTH",
"988 1338 OFFCURVE",
"996 1334 OFFCURVE",
"1024 1331 CURVE SMOOTH",
"1079 1326 OFFCURVE",
"1200 1311 OFFCURVE",
"1200 1244 CURVE SMOOTH",
"1200 514 LINE SMOOTH",
"1200 250 OFFCURVE",
"1108 65 OFFCURVE",
"793 65 CURVE SMOOTH",
"585 65 OFFCURVE",
"476 212 OFFCURVE",
"476 524 CURVE SMOOTH",
"477 1267 LINE SMOOTH",
"477 1311 OFFCURVE",
"563 1326 OFFCURVE",
"632 1331 CURVE SMOOTH",
"658 1334 OFFCURVE",
"665 1347 OFFCURVE",
"665 1368 CURVE SMOOTH",
"665 1383 OFFCURVE",
"654 1419 OFFCURVE",
"631 1419 CURVE SMOOTH",
"116 1419 LINE SMOOTH",
"93 1419 OFFCURVE",
"82 1383 OFFCURVE",
"82 1368 CURVE SMOOTH",
"82 1338 OFFCURVE",
"90 1334 OFFCURVE",
"118 1331 CURVE SMOOTH",
"179 1326 OFFCURVE",
"260 1320 OFFCURVE",
"260 1234 CURVE SMOOTH",
"259 516 LINE SMOOTH",
"259 194 OFFCURVE",
"427 -29 OFFCURVE",
"789 -29 CURVE SMOOTH",
"1109 -29 OFFCURVE",
"1301 154 OFFCURVE",
"1302 516 CURVE SMOOTH",
"1304 1230 LINE SMOOTH"
);
}
);
width = 1549;
},
{
anchors = (
{
name = btm;
position = "{926, -199}";
},
{
name = top;
position = "{926, 2001}";
}
);
background = {
paths = (
{
closed = 1;
nodes = (
"256 194 OFFCURVE",
"415 -29 OFFCURVE",
"901 -29 CURVE SMOOTH",
"1242 -29 OFFCURVE",
"1463 169 OFFCURVE",
"1463 566 CURVE SMOOTH",
"1463 1230 LINE SMOOTH",
"1463 1294 OFFCURVE",
"1531 1326 OFFCURVE",
"1634 1331 CURVE SMOOTH",
"1660 1332 OFFCURVE",
"1667 1347 OFFCURVE",
"1667 1368 CURVE SMOOTH",
"1667 1383 OFFCURVE",
"1656 1419 OFFCURVE",
"1633 1419 CURVE SMOOTH",
"1177 1419 LINE SMOOTH",
"1154 1419 OFFCURVE",
"1143 1383 OFFCURVE",
"1143 1368 CURVE SMOOTH",
"1143 1338 OFFCURVE",
"1151 1334 OFFCURVE",
"1179 1331 CURVE SMOOTH",
"1235 1326 OFFCURVE",
"1353 1311 OFFCURVE",
"1353 1244 CURVE SMOOTH",
"1353 564 LINE SMOOTH",
"1353 297 OFFCURVE",
"1254 65 OFFCURVE",
"918 65 CURVE SMOOTH",
"684 65 OFFCURVE",
"603 227 OFFCURVE",
"603 574 CURVE SMOOTH",
"603 1267 LINE SMOOTH",
"603 1311 OFFCURVE",
"690 1326 OFFCURVE",
"758 1331 CURVE SMOOTH",
"784 1334 OFFCURVE",
"791 1347 OFFCURVE",
"791 1368 CURVE SMOOTH",
"791 1383 OFFCURVE",
"780 1419 OFFCURVE",
"757 1419 CURVE SMOOTH",
"112 1419 LINE SMOOTH",
"89 1419 OFFCURVE",
"78 1383 OFFCURVE",
"78 1368 CURVE SMOOTH",
"78 1338 OFFCURVE",
"86 1334 OFFCURVE",
"114 1331 CURVE SMOOTH",
"175 1326 OFFCURVE",
"256 1320 OFFCURVE",
"256 1234 CURVE SMOOTH",
"256 566 LINE SMOOTH {name = hr00;}"
);
}
);
};
layerId = "62CA62AF-CD91-478A-AB8B-28A62CC47DA0";
paths = (
{
closed = 1;
nodes = (
"1463 1294 OFFCURVE",
"1526 1327 OFFCURVE",
"1629 1331 CURVE SMOOTH",
"1655 1332 OFFCURVE",
"1662 1347 OFFCURVE",
"1662 1368 CURVE SMOOTH",
"1662 1383 OFFCURVE",
"1651 1419 OFFCURVE",
"1628 1419 CURVE SMOOTH",
"1172 1419 LINE SMOOTH",
"1149 1419 OFFCURVE",
"1138 1383 OFFCURVE",
"1138 1368 CURVE SMOOTH",
"1138 1338 OFFCURVE",
"1146 1334 OFFCURVE",
"1174 1331 CURVE SMOOTH",
"1229 1325 OFFCURVE",
"1351 1311 OFFCURVE",
"1351 1244 CURVE SMOOTH",
"1351 514 LINE SMOOTH",
"1351 286 OFFCURVE",
"1238 65 OFFCURVE",
"923 65 CURVE SMOOTH",
"699 65 OFFCURVE",
"606 212 OFFCURVE",
"606 524 CURVE SMOOTH",
"607 1267 LINE SMOOTH",
"607 1311 OFFCURVE",
"693 1326 OFFCURVE",
"762 1331 CURVE SMOOTH",
"788 1333 OFFCURVE",
"795 1347 OFFCURVE",
"795 1368 CURVE SMOOTH",
"795 1383 OFFCURVE",
"784 1419 OFFCURVE",
"761 1419 CURVE SMOOTH",
"116 1419 LINE SMOOTH",
"93 1419 OFFCURVE",
"82 1383 OFFCURVE",
"82 1368 CURVE SMOOTH",
"82 1338 OFFCURVE",
"90 1334 OFFCURVE",
"118 1331 CURVE SMOOTH",
"179 1326 OFFCURVE",
"260 1320 OFFCURVE",
"260 1234 CURVE SMOOTH",
"259 516 LINE SMOOTH",
"259 194 OFFCURVE",
"488 -29 OFFCURVE",
"919 -29 CURVE SMOOTH",
"1239 -29 OFFCURVE",
"1460 186 OFFCURVE",
"1461 516 CURVE SMOOTH",
"1463 1230 LINE SMOOTH"
);
}
);
width = 1706;
}
);
leftKerningGroup = U;
rightKerningGroup = U;
unicode = 0055;
},
{
glyphname = Uogonek;
lastChange = "2018-05-24 13:54:47 +0000";
layers = (
{
components = (
{
name = U;
}
);
layerId = "DD6F9F34-BC40-4E8F-B1D3-DF3B42A9710F";
paths = (
{
closed = 1;
nodes = (
"767 -122 OFFCURVE",
"912 2 OFFCURVE",
"952 19 CURVE",
"952 19 OFFCURVE",
"1084 44 OFFCURVE",
"1084 44 CURVE",
"1005 3 OFFCURVE",
"915 -116 OFFCURVE",
"915 -198 CURVE SMOOTH",
"915 -381 OFFCURVE",
"1114 -346 OFFCURVE",
"1162 -349 CURVE SMOOTH",
"1179 -350 OFFCURVE",
"1183 -367 OFFCURVE",
"1178 -393 CURVE SMOOTH",
"1175 -408 OFFCURVE",
"1163 -418 OFFCURVE",
"1148 -422 CURVE SMOOTH",
"1091 -438 OFFCURVE",
"1038 -448 OFFCURVE",
"987 -448 CURVE SMOOTH",
"860 -448 OFFCURVE",
"767 -345 OFFCURVE",
"767 -238 CURVE SMOOTH"
);
}
);
width = 1549;
},
{
layerId = "62CA62AF-CD91-478A-AB8B-28A62CC47DA0";
paths = (
{
closed = 1;
nodes = (
"256 198 OFFCURVE",
"411 -24 OFFCURVE",
"884 -29 CURVE",
"786 -87 OFFCURVE",
"701 -171 OFFCURVE",
"701 -273 CURVE SMOOTH",
"701 -365 OFFCURVE",
"779 -452 OFFCURVE",
"931 -452 CURVE SMOOTH",
"1006 -452 OFFCURVE",
"1103 -437 OFFCURVE",
"1187 -394 CURVE",
"1201 -383 OFFCURVE",
"1174 -298 OFFCURVE",
"1164 -304 CURVE",
"1138 -315 OFFCURVE",
"1092 -330 OFFCURVE",
"1049 -330 CURVE SMOOTH",
"992 -330 OFFCURVE",
"939 -313 OFFCURVE",
"939 -228 CURVE SMOOTH",
"939 -161 OFFCURVE",
"999 -52 OFFCURVE",
"1151 15 CURVE",
"1150 15 LINE",
"1346 93 OFFCURVE",
"1463 277 OFFCURVE",
"1463 566 CURVE SMOOTH",
"1463 1230 LINE SMOOTH",
"1463 1294 OFFCURVE",
"1531 1326 OFFCURVE",
"1634 1331 CURVE SMOOTH",
"1660 1332 OFFCURVE",
"1667 1347 OFFCURVE",
"1667 1368 CURVE SMOOTH",
"1667 1383 OFFCURVE",
"1656 1419 OFFCURVE",
"1633 1419 CURVE SMOOTH",
"1177 1419 LINE SMOOTH",
"1154 1419 OFFCURVE",
"1143 1383 OFFCURVE",
"1143 1368 CURVE SMOOTH",
"1143 1338 OFFCURVE",
"1151 1334 OFFCURVE",
"1179 1331 CURVE SMOOTH",
"1235 1326 OFFCURVE",
"1353 1311 OFFCURVE",
"1353 1244 CURVE SMOOTH",
"1353 564 LINE SMOOTH",
"1353 297 OFFCURVE",
"1254 65 OFFCURVE",
"918 65 CURVE SMOOTH",
"684 65 OFFCURVE",
"603 227 OFFCURVE",
"603 574 CURVE SMOOTH",
"603 1267 LINE SMOOTH",
"603 1311 OFFCURVE",
"690 1326 OFFCURVE",
"758 1331 CURVE",
"784 1334 OFFCURVE",
"791 1347 OFFCURVE",
"791 1368 CURVE SMOOTH",
"791 1383 OFFCURVE",
"780 1419 OFFCURVE",
"757 1419 CURVE SMOOTH",
"112 1419 LINE SMOOTH",
"89 1419 OFFCURVE",
"78 1383 OFFCURVE",
"78 1368 CURVE SMOOTH",
"78 1338 OFFCURVE",
"86 1334 OFFCURVE",
"114 1331 CURVE SMOOTH",
"175 1326 OFFCURVE",
"256 1320 OFFCURVE",
"256 1234 CURVE SMOOTH",
"256 566 LINE SMOOTH {name = hr00;}"
);
}
);
width = 1706;
}
);
leftKerningGroup = U;
rightKerningGroup = U;
unicode = 0172;
},
{
color = 4;
glyphname = V;
lastChange = "2018-07-10 04:34:43 +0000";
layers = (
{
anchors = (
{
name = btm;
position = "{689, -200}";
},
{
name = top;
position = "{689, 2000}";
}
);
layerId = "DD6F9F34-BC40-4E8F-B1D3-DF3B42A9710F";
paths = (
{
closed = 1;
nodes = (
"761 -18 LINE",
"1226 1254 LINE SMOOTH",
"1259 1342 OFFCURVE",
"1338 1326 OFFCURVE",
"1387 1331 CURVE SMOOTH",
"1415 1334 OFFCURVE",
"1423 1338 OFFCURVE",
"1423 1368 CURVE SMOOTH",
"1423 1383 OFFCURVE",
"1411 1419 OFFCURVE",
"1389 1419 CURVE SMOOTH",
"934 1419 LINE SMOOTH",
"911 1419 OFFCURVE",
"900 1383 OFFCURVE",
"900 1368 CURVE SMOOTH",
"900 1347 OFFCURVE",
"907 1334 OFFCURVE",
"933 1331 CURVE",
"1024 1326 OFFCURVE",
"1107 1304 OFFCURVE",
"1091 1257 CURVE SMOOTH",
"744 232 LINE",
"378 1287 LINE SMOOTH",
"361 1334 OFFCURVE",
"425 1326 OFFCURVE",
"516 1331 CURVE",
"542 1334 OFFCURVE",
"549 1347 OFFCURVE",
"549 1368 CURVE SMOOTH",
"549 1383 OFFCURVE",
"538 1419 OFFCURVE",
"515 1419 CURVE SMOOTH",
"-10 1419 LINE SMOOTH",
"-32 1419 OFFCURVE",
"-44 1383 OFFCURVE",
"-44 1368 CURVE SMOOTH",
"-44 1338 OFFCURVE",
"-36 1334 OFFCURVE",
"-8 1331 CURVE SMOOTH",
"41 1326 OFFCURVE",
"120 1342 OFFCURVE",
"153 1254 CURVE SMOOTH",
"638 -18 LINE"
);
}
);
width = 1365;
},
{
anchors = (
{
name = btm;
position = "{745, -200}";
},
{
name = top;
position = "{745, 2000}";
}
);
layerId = "62CA62AF-CD91-478A-AB8B-28A62CC47DA0";
paths = (
{
closed = 1;
nodes = (
"884 -18 LINE",
"1404 1254 LINE SMOOTH",
"1425 1306 OFFCURVE",
"1456 1326 OFFCURVE",
"1575 1331 CURVE SMOOTH",
"1603 1332 OFFCURVE",
"1611 1338 OFFCURVE",
"1611 1368 CURVE SMOOTH",
"1611 1383 OFFCURVE",
"1599 1419 OFFCURVE",
"1577 1419 CURVE SMOOTH",
"1112 1419 LINE SMOOTH",
"1089 1419 OFFCURVE",
"1078 1383 OFFCURVE",
"1078 1368 CURVE SMOOTH",
"1078 1347 OFFCURVE",
"1085 1334 OFFCURVE",
"1111 1331 CURVE",
"1202 1326 OFFCURVE",
"1285 1304 OFFCURVE",
"1269 1257 CURVE",
"919 347 LINE",
"516 1287 LINE",
"499 1334 OFFCURVE",
"563 1326 OFFCURVE",
"654 1331 CURVE",
"680 1334 OFFCURVE",
"687 1347 OFFCURVE",
"687 1368 CURVE SMOOTH",
"687 1383 OFFCURVE",
"676 1419 OFFCURVE",
"653 1419 CURVE SMOOTH",
"-2 1419 LINE SMOOTH",
"-24 1419 OFFCURVE",
"-36 1383 OFFCURVE",
"-36 1368 CURVE SMOOTH",
"-36 1338 OFFCURVE",
"-28 1334 OFFCURVE",
"0 1331 CURVE SMOOTH",
"49 1326 OFFCURVE",
"128 1342 OFFCURVE",
"161 1254 CURVE",
"761 -18 LINE {name = hr00;}"
);
}
);
width = 1561;
}
);
leftKerningGroup = V;
rightKerningGroup = V;
unicode = 0056;
},
{
color = 4;
glyphname = W;
lastChange = "2018-07-10 04:34:43 +0000";
layers = (
{
anchors = (
{
name = btm;
position = "{1007, -200}";
},
{
name = top;
position = "{1040, 2000}";
}
);
layerId = "DD6F9F34-BC40-4E8F-B1D3-DF3B42A9710F";
paths = (
{
closed = 1;
nodes = (
"665 -18 LINE",
"991 1046 LINE",
"1345 -18 LINE",
"1468 -18 LINE",
"1841 1254 LINE SMOOTH",
"1868 1344 OFFCURVE",
"1943 1326 OFFCURVE",
"1992 1331 CURVE SMOOTH",
"2020 1334 OFFCURVE",
"2028 1338 OFFCURVE",
"2028 1368 CURVE SMOOTH",
"2028 1383 OFFCURVE",
"2016 1419 OFFCURVE",
"1994 1419 CURVE SMOOTH",
"1549 1419 LINE SMOOTH",
"1526 1419 OFFCURVE",
"1515 1383 OFFCURVE",
"1515 1368 CURVE SMOOTH",
"1515 1347 OFFCURVE",
"1522 1334 OFFCURVE",
"1548 1331 CURVE",
"1639 1326 OFFCURVE",
"1736 1335 OFFCURVE",
"1723 1287 CURVE SMOOTH",
"1454 282 LINE",
"1099 1399 LINE",
"991 1399 LINE",
"654 286 LINE",
"378 1287 LINE",
"361 1334 OFFCURVE",
"445 1326 OFFCURVE",
"536 1331 CURVE",
"562 1334 OFFCURVE",
"569 1347 OFFCURVE",
"569 1368 CURVE SMOOTH",
"569 1383 OFFCURVE",
"558 1419 OFFCURVE",
"535 1419 CURVE SMOOTH",
"20 1419 LINE SMOOTH",
"-2 1419 OFFCURVE",
"-14 1383 OFFCURVE",
"-14 1368 CURVE SMOOTH",
"-14 1338 OFFCURVE",
"-6 1334 OFFCURVE",
"22 1331 CURVE SMOOTH",
"71 1326 OFFCURVE",
"140 1342 OFFCURVE",
"173 1254 CURVE",
"542 -18 LINE"
);
}
);
width = 1998;
},
{
anchors = (
{
name = btm;
position = "{1223, -200}";
},
{
name = top;
position = "{1235, 2000}";
}
);
layerId = "62CA62AF-CD91-478A-AB8B-28A62CC47DA0";
paths = (
{
closed = 1;
nodes = (
"783 -18 LINE",
"1122 987 LINE",
"1534 -18 LINE",
"1657 -18 LINE",
"2107 1180 LINE SMOOTH",
"2139 1269 OFFCURVE",
"2164 1331 OFFCURVE",
"2305 1331 CURVE SMOOTH",
"2333 1331 OFFCURVE",
"2341 1338 OFFCURVE",
"2341 1368 CURVE SMOOTH",
"2341 1383 OFFCURVE",
"2329 1419 OFFCURVE",
"2307 1419 CURVE SMOOTH",
"1822 1419 LINE SMOOTH",
"1799 1419 OFFCURVE",
"1788 1383 OFFCURVE",
"1788 1368 CURVE SMOOTH",
"1788 1347 OFFCURVE",
"1795 1334 OFFCURVE",
"1821 1331 CURVE",
"2004 1331 OFFCURVE",
"2017 1280 OFFCURVE",
"2000 1233 CURVE SMOOTH",
"1708 448 LINE",
"1323 1389 LINE",
"1149 1389 LINE",
"824 418 LINE",
"509 1230 LINE SMOOTH",
"492 1277 OFFCURVE",
"508 1331 OFFCURVE",
"650 1331 CURVE",
"676 1334 OFFCURVE",
"683 1347 OFFCURVE",
"683 1368 CURVE SMOOTH",
"683 1383 OFFCURVE",
"672 1419 OFFCURVE",
"649 1419 CURVE SMOOTH",
"-1 1419 LINE SMOOTH",
"-23 1419 OFFCURVE",
"-35 1383 OFFCURVE",
"-35 1368 CURVE SMOOTH",
"-35 1338 OFFCURVE",
"-27 1335 OFFCURVE",
"1 1331 CURVE SMOOTH",
"93 1317 OFFCURVE",
"124 1293 OFFCURVE",
"158 1205 CURVE SMOOTH",
"660 -18 LINE {name = hr00;}"
);
}
);
width = 2306;
}
);
leftKerningGroup = W;
rightKerningGroup = W;
unicode = 0057;
},
{
color = 4;
glyphname = X;
lastChange = "2018-07-10 04:35:32 +0000";
layers = (
{
anchors = (
{
name = btm;
position = "{719, -200}";
},
{
name = top;
position = "{719, 2000}";
}
);
layerId = "DD6F9F34-BC40-4E8F-B1D3-DF3B42A9710F";
paths = (
{
closed = 1;
nodes = (
"523 0 LINE SMOOTH",
"546 0 OFFCURVE",
"557 36 OFFCURVE",
"557 51 CURVE SMOOTH",
"557 72 OFFCURVE",
"550 85 OFFCURVE",
"524 88 CURVE",
"453 92 OFFCURVE",
"417 110 OFFCURVE",
"417 137 CURVE SMOOTH",
"417 144 OFFCURVE",
"420 153 OFFCURVE",
"426 162 CURVE",
"692 605 LINE",
"989 132 LINE SMOOTH",
"992 127 OFFCURVE",
"994 123 OFFCURVE",
"994 119 CURVE SMOOTH",
"994 91 OFFCURVE",
"911 92 OFFCURVE",
"831 88 CURVE",
"805 85 OFFCURVE",
"798 72 OFFCURVE",
"798 51 CURVE SMOOTH",
"798 36 OFFCURVE",
"809 0 OFFCURVE",
"832 0 CURVE SMOOTH",
"1377 0 LINE SMOOTH",
"1399 0 OFFCURVE",
"1411 36 OFFCURVE",
"1411 51 CURVE SMOOTH",
"1411 81 OFFCURVE",
"1403 85 OFFCURVE",
"1375 88 CURVE SMOOTH",
"1326 93 OFFCURVE",
"1245 86 OFFCURVE",
"1194 165 CURVE SMOOTH",
"811 766 LINE",
"1154 1254 LINE SMOOTH",
"1210 1330 OFFCURVE",
"1306 1326 OFFCURVE",
"1355 1331 CURVE SMOOTH",
"1383 1334 OFFCURVE",
"1391 1338 OFFCURVE",
"1391 1368 CURVE SMOOTH",
"1391 1383 OFFCURVE",
"1379 1419 OFFCURVE",
"1357 1419 CURVE SMOOTH",
"902 1419 LINE SMOOTH",
"879 1419 OFFCURVE",
"868 1383 OFFCURVE",
"868 1368 CURVE SMOOTH",
"868 1347 OFFCURVE",
"875 1334 OFFCURVE",
"901 1331 CURVE",
"976 1327 OFFCURVE",
"1026 1307 OFFCURVE",
"1026 1278 CURVE SMOOTH",
"1026 1271 OFFCURVE",
"1024 1264 OFFCURVE",
"1019 1257 CURVE SMOOTH",
"758 851 LINE",
"486 1287 LINE SMOOTH",
"483 1292 OFFCURVE",
"481 1297 OFFCURVE",
"481 1301 CURVE SMOOTH",
"481 1328 OFFCURVE",
"555 1327 OFFCURVE",
"634 1331 CURVE",
"660 1334 OFFCURVE",
"667 1347 OFFCURVE",
"667 1368 CURVE SMOOTH",
"667 1383 OFFCURVE",
"656 1419 OFFCURVE",
"633 1419 CURVE SMOOTH",
"108 1419 LINE SMOOTH",
"86 1419 OFFCURVE",
"74 1383 OFFCURVE",
"74 1368 CURVE SMOOTH",
"74 1338 OFFCURVE",
"82 1334 OFFCURVE",
"110 1331 CURVE SMOOTH",
"159 1326 OFFCURVE",
"230 1333 OFFCURVE",
"281 1254 CURVE SMOOTH",
"640 686 LINE",
"291 165 LINE SMOOTH",
"237 88 OFFCURVE",
"139 93 OFFCURVE",
"90 88 CURVE SMOOTH",
"62 85 OFFCURVE",
"54 81 OFFCURVE",
"54 51 CURVE SMOOTH",
"54 36 OFFCURVE",
"66 0 OFFCURVE",
"88 0 CURVE SMOOTH"
);
}
);
width = 1455;
},
{
anchors = (
{
name = btm;
position = "{776, -200}";
},
{
name = top;
position = "{776, 2000}";
}
);
layerId = "62CA62AF-CD91-478A-AB8B-28A62CC47DA0";
paths = (
{
closed = 1;
nodes = (
"558 0 LINE SMOOTH",
"581 0 OFFCURVE",
"592 36 OFFCURVE",
"592 51 CURVE SMOOTH",
"592 72 OFFCURVE",
"585 85 OFFCURVE",
"559 88 CURVE",
"481 92 OFFCURVE",
"415 113 OFFCURVE",
"415 145 CURVE SMOOTH",
"415 150 OFFCURVE",
"417 156 OFFCURVE",
"421 162 CURVE SMOOTH",
"742 580 LINE",
"1046 170 LINE",
"1061 148 OFFCURVE",
"1070 133 OFFCURVE",
"1070 119 CURVE SMOOTH",
"1070 97 OFFCURVE",
"1005 85 OFFCURVE",
"914 88 CURVE",
"888 85 OFFCURVE",
"881 72 OFFCURVE",
"881 51 CURVE SMOOTH",
"881 36 OFFCURVE",
"892 0 OFFCURVE",
"915 0 CURVE SMOOTH",
"1620 0 LINE SMOOTH",
"1642 0 OFFCURVE",
"1654 36 OFFCURVE",
"1654 51 CURVE SMOOTH",
"1654 81 OFFCURVE",
"1646 85 OFFCURVE",
"1618 88 CURVE SMOOTH",
"1569 93 OFFCURVE",
"1488 86 OFFCURVE",
"1437 165 CURVE",
"969 786 LINE",
"1357 1254 LINE",
"1414 1330 OFFCURVE",
"1490 1326 OFFCURVE",
"1538 1331 CURVE SMOOTH",
"1566 1334 OFFCURVE",
"1574 1338 OFFCURVE",
"1574 1368 CURVE SMOOTH",
"1574 1383 OFFCURVE",
"1562 1419 OFFCURVE",
"1540 1419 CURVE SMOOTH",
"1085 1419 LINE SMOOTH",
"1062 1419 OFFCURVE",
"1051 1383 OFFCURVE",
"1051 1368 CURVE SMOOTH",
"1051 1347 OFFCURVE",
"1058 1334 OFFCURVE",
"1084 1331 CURVE",
"1156 1327 OFFCURVE",
"1209 1307 OFFCURVE",
"1209 1277 CURVE SMOOTH",
"1209 1271 OFFCURVE",
"1207 1264 OFFCURVE",
"1202 1257 CURVE SMOOTH",
"909 871 LINE",
"615 1277 LINE SMOOTH",
"612 1282 OFFCURVE",
"610 1286 OFFCURVE",
"610 1290 CURVE SMOOTH",
"610 1318 OFFCURVE",
"639 1325 OFFCURVE",
"757 1331 CURVE",
"783 1334 OFFCURVE",
"790 1347 OFFCURVE",
"790 1368 CURVE SMOOTH",
"790 1383 OFFCURVE",
"779 1419 OFFCURVE",
"756 1419 CURVE SMOOTH",
"61 1419 LINE SMOOTH",
"39 1419 OFFCURVE",
"27 1383 OFFCURVE",
"27 1368 CURVE SMOOTH",
"27 1338 OFFCURVE",
"35 1334 OFFCURVE",
"63 1331 CURVE SMOOTH",
"112 1326 OFFCURVE",
"183 1333 OFFCURVE",
"234 1254 CURVE",
"685 657 LINE",
"264 165 LINE SMOOTH",
"208 99 OFFCURVE",
"132 93 OFFCURVE",
"83 88 CURVE SMOOTH",
"55 85 OFFCURVE",
"47 81 OFFCURVE",
"47 51 CURVE SMOOTH {name = hr00;}",
"47 36 OFFCURVE",
"59 0 OFFCURVE",
"81 0 CURVE SMOOTH"
);
}
);
width = 1657;
}
);
leftKerningGroup = X;
rightKerningGroup = X;
unicode = 0058;
},
{
color = 4;
glyphname = Y;
lastChange = "2018-05-24 17:10:36 +0000";
layers = (
{
anchors = (
{
name = btm;
position = "{639, -200}";
},
{
name = top;
position = "{639, 2000}";
}
);
layerId = "DD6F9F34-BC40-4E8F-B1D3-DF3B42A9710F";
paths = (
{
closed = 1;
nodes = (
"935 0 LINE SMOOTH",
"957 0 OFFCURVE",
"969 36 OFFCURVE",
"969 51 CURVE SMOOTH",
"969 81 OFFCURVE",
"951 85 OFFCURVE",
"923 88 CURVE SMOOTH",
"856 95 OFFCURVE",
"751 79 OFFCURVE",
"751 165 CURVE SMOOTH",
"751 567 LINE",
"1126 1254 LINE SMOOTH",
"1171 1336 OFFCURVE",
"1228 1336 OFFCURVE",
"1277 1341 CURVE SMOOTH",
"1305 1344 OFFCURVE",
"1313 1348 OFFCURVE",
"1313 1378 CURVE SMOOTH",
"1313 1393 OFFCURVE",
"1301 1419 OFFCURVE",
"1279 1419 CURVE SMOOTH",
"864 1419 LINE SMOOTH",
"841 1419 OFFCURVE",
"830 1393 OFFCURVE",
"830 1378 CURVE SMOOTH",
"830 1357 OFFCURVE",
"837 1344 OFFCURVE",
"863 1341 CURVE",
"941 1337 OFFCURVE",
"1011 1332 OFFCURVE",
"1015 1303 CURVE SMOOTH",
"1015 1299 OFFCURVE",
"1014 1293 OFFCURVE",
"1011 1287 CURVE SMOOTH",
"669 599 LINE",
"709 599 LINE",
"368 1287 LINE SMOOTH",
"365 1293 OFFCURVE",
"364 1298 OFFCURVE",
"364 1302 CURVE SMOOTH",
"366 1333 OFFCURVE",
"437 1337 OFFCURVE",
"516 1341 CURVE",
"542 1344 OFFCURVE",
"549 1357 OFFCURVE",
"549 1378 CURVE SMOOTH",
"549 1393 OFFCURVE",
"538 1419 OFFCURVE",
"515 1419 CURVE SMOOTH",
"0 1419 LINE SMOOTH",
"-22 1419 OFFCURVE",
"-34 1393 OFFCURVE",
"-34 1378 CURVE SMOOTH",
"-34 1348 OFFCURVE",
"-26 1344 OFFCURVE",
"2 1341 CURVE SMOOTH",
"51 1336 OFFCURVE",
"108 1337 OFFCURVE",
"153 1254 CURVE SMOOTH",
"544 534 LINE",
"544 152 LINE SMOOTH",
"544 81 OFFCURVE",
"446 93 OFFCURVE",
"379 88 CURVE",
"354 85 OFFCURVE",
"336 72 OFFCURVE",
"336 51 CURVE SMOOTH",
"336 36 OFFCURVE",
"347 0 OFFCURVE",
"370 0 CURVE SMOOTH"
);
}
);
width = 1260;
},
{
anchors = (
{
name = btm;
position = "{761, -200}";
},
{
name = top;
position = "{850, 2000}";
}
);
layerId = "62CA62AF-CD91-478A-AB8B-28A62CC47DA0";
paths = (
{
closed = 1;
nodes = (
"1120 0 LINE SMOOTH",
"1142 0 OFFCURVE",
"1154 36 OFFCURVE",
"1154 51 CURVE SMOOTH",
"1154 81 OFFCURVE",
"1136 85 OFFCURVE",
"1108 88 CURVE",
"1041 93 OFFCURVE",
"936 79 OFFCURVE",
"936 165 CURVE SMOOTH",
"936 535 LINE",
"1341 1254 LINE SMOOTH",
"1386 1335 OFFCURVE",
"1442 1336 OFFCURVE",
"1492 1341 CURVE SMOOTH",
"1520 1344 OFFCURVE",
"1528 1348 OFFCURVE",
"1528 1378 CURVE SMOOTH",
"1528 1393 OFFCURVE",
"1516 1419 OFFCURVE",
"1494 1419 CURVE SMOOTH",
"1079 1419 LINE SMOOTH",
"1056 1419 OFFCURVE",
"1045 1393 OFFCURVE",
"1045 1378 CURVE SMOOTH",
"1045 1357 OFFCURVE",
"1052 1343 OFFCURVE",
"1078 1341 CURVE SMOOTH",
"1172 1333 OFFCURVE",
"1229 1324 OFFCURVE",
"1229 1299 CURVE SMOOTH",
"1229 1295 OFFCURVE",
"1227 1288 OFFCURVE",
"1221 1277 CURVE SMOOTH",
"857 619 LINE",
"900 618 LINE",
"553 1287 LINE SMOOTH",
"551 1291 OFFCURVE",
"548 1297 OFFCURVE",
"548 1301 CURVE SMOOTH",
"548 1334 OFFCURVE",
"597 1334 OFFCURVE",
"701 1341 CURVE",
"727 1344 OFFCURVE",
"734 1357 OFFCURVE",
"734 1378 CURVE SMOOTH",
"734 1393 OFFCURVE",
"723 1419 OFFCURVE",
"700 1419 CURVE SMOOTH",
"-5 1419 LINE SMOOTH",
"-27 1419 OFFCURVE",
"-39 1393 OFFCURVE",
"-39 1378 CURVE SMOOTH",
"-39 1348 OFFCURVE",
"-31 1344 OFFCURVE",
"-3 1341 CURVE SMOOTH",
"46 1336 OFFCURVE",
"98 1334 OFFCURVE",
"148 1254 CURVE SMOOTH",
"599 525 LINE",
"599 152 LINE SMOOTH",
"599 81 OFFCURVE",
"501 93 OFFCURVE",
"434 88 CURVE",
"409 85 OFFCURVE",
"391 72 OFFCURVE",
"391 51 CURVE SMOOTH {name = hr00;}",
"391 36 OFFCURVE",
"402 0 OFFCURVE",
"425 0 CURVE SMOOTH"
);
}
);
width = 1499;
}
);
leftKerningGroup = Y;
rightKerningGroup = Y;
unicode = 0059;
},
{
color = 4;
glyphname = Z;
lastChange = "2018-05-24 17:08:38 +0000";
layers = (
{
anchors = (
{
name = btm;
position = "{618, -200}";
},
{
name = top;
position = "{618, 2000}";
}
);
layerId = "DD6F9F34-BC40-4E8F-B1D3-DF3B42A9710F";
paths = (
{
closed = 1;
nodes = (
"1079 0 LINE",
"1099 1 OFFCURVE",
"1114 14 OFFCURVE",
"1126 41 CURVE",
"1176 429 LINE SMOOTH",
"1176 452 OFFCURVE",
"1150 463 OFFCURVE",
"1135 463 CURVE SMOOTH",
"1114 463 OFFCURVE",
"1101 456 OFFCURVE",
"1098 430 CURVE SMOOTH",
"1093 381 OFFCURVE",
"928 83 OFFCURVE",
"840 83 CURVE SMOOTH",
"235 83 LINE",
"294 26 LINE",
"437 248 LINE",
"1136 1340 LINE SMOOTH",
"1142 1350 OFFCURVE",
"1146 1357 OFFCURVE",
"1146 1368 CURVE SMOOTH",
"1146 1395 LINE SMOOTH",
"1146 1414 OFFCURVE",
"1138 1419 OFFCURVE",
"1122 1419 CURVE SMOOTH",
"190 1419 LINE",
"170 1418 OFFCURVE",
"155 1405 OFFCURVE",
"143 1378 CURVE",
"114 1020 LINE SMOOTH",
"114 997 OFFCURVE",
"130 986 OFFCURVE",
"145 986 CURVE SMOOTH",
"166 986 OFFCURVE",
"179 993 OFFCURVE",
"182 1019 CURVE SMOOTH",
"187 1068 OFFCURVE",
"301 1336 OFFCURVE",
"389 1336 CURVE SMOOTH",
"951 1336 LINE",
"895 1367 LINE",
"789 1201 LINE",
"102 123 LINE SMOOTH",
"66 69 OFFCURVE",
"60 53 OFFCURVE",
"60 40 CURVE SMOOTH",
"60 24 LINE SMOOTH",
"60 5 OFFCURVE",
"68 0 OFFCURVE",
"84 0 CURVE SMOOTH"
);
}
);
width = 1232;
},
{
anchors = (
{
name = btm;
position = "{649, -200}";
},
{
name = top;
position = "{723, 2000}";
}
);
layerId = "62CA62AF-CD91-478A-AB8B-28A62CC47DA0";
paths = (
{
closed = 1;
nodes = (
"1242 0 LINE",
"1262 1 OFFCURVE",
"1277 14 OFFCURVE",
"1289 41 CURVE",
"1339 429 LINE",
"1339 452 OFFCURVE",
"1283 463 OFFCURVE",
"1268 463 CURVE SMOOTH",
"1247 463 OFFCURVE",
"1234 456 OFFCURVE",
"1231 430 CURVE",
"1183 254 OFFCURVE",
"1062 83 OFFCURVE",
"973 83 CURVE SMOOTH",
"434 83 LINE",
"452 47 LINE",
"577 214 LINE",
"1299 1340 LINE SMOOTH",
"1305 1350 OFFCURVE",
"1309 1366 OFFCURVE",
"1309 1377 CURVE SMOOTH",
"1309 1393 LINE SMOOTH",
"1309 1412 OFFCURVE",
"1290 1419 OFFCURVE",
"1275 1419 CURVE SMOOTH",
"213 1419 LINE",
"193 1418 OFFCURVE",
"178 1405 OFFCURVE",
"166 1378 CURVE",
"137 1020 LINE",
"137 997 OFFCURVE",
"183 986 OFFCURVE",
"198 986 CURVE SMOOTH",
"219 986 OFFCURVE",
"229 994 OFFCURVE",
"235 1019 CURVE SMOOTH",
"272 1165 OFFCURVE",
"354 1336 OFFCURVE",
"442 1336 CURVE SMOOTH",
"949 1336 LINE",
"931 1372 LINE",
"805 1205 LINE",
"115 123 LINE",
"79 69 OFFCURVE",
"73 49 OFFCURVE",
"73 36 CURVE SMOOTH",
"73 30 LINE SMOOTH {name = hr00;}",
"73 21 OFFCURVE",
"77 0 OFFCURVE",
"107 0 CURVE SMOOTH"
);
}
);
width = 1411;
}
);
leftKerningGroup = Z;
rightKerningGroup = Z;
unicode = 005A;
},
{
color = 4;
glyphname = a;
lastChange = "2018-05-24 15:57:52 +0000";
layers = (
{
anchors = (
{
name = btm;
position = "{550, -200}";
},
{
name = top;
position = "{510, 2000}";
}
);
background = {
paths = (
{
closed = 1;
nodes = (
"905 -25 OFFCURVE",
"981 22 OFFCURVE",
"994 37 CURVE",
"1010 50 OFFCURVE",
"991 105 OFFCURVE",
"960 96 CURVE SMOOTH",
"936 89 OFFCURVE",
"921 88 OFFCURVE",
"902 88 CURVE SMOOTH",
"880 88 OFFCURVE",
"864 140 OFFCURVE",
"864 210 CURVE SMOOTH",
"864 736 LINE SMOOTH",
"864 895 OFFCURVE",
"762 1014 OFFCURVE",
"520 1014 CURVE SMOOTH",
"434 1014 OFFCURVE",
"292 997 OFFCURVE",
"196 909 CURVE SMOOTH",
"77 799 OFFCURVE",
"148 665 OFFCURVE",
"203 665 CURVE SMOOTH",
"243 665 OFFCURVE",
"270 678 OFFCURVE",
"284 702 CURVE SMOOTH",
"309 744 OFFCURVE",
"359 877 OFFCURVE",
"378 907 CURVE",
"378 907 OFFCURVE",
"430 928 OFFCURVE",
"487 924 CURVE SMOOTH",
"617 914 OFFCURVE",
"677 860 OFFCURVE",
"677 753 CURVE SMOOTH",
"677 599 LINE",
"648 561 OFFCURVE",
"649 549 OFFCURVE",
"676 528 CURVE",
"676 162 LINE",
"678 149 OFFCURVE",
"695 125 OFFCURVE",
"695 109 CURVE",
"694 87 OFFCURVE",
"684 -25 OFFCURVE",
"797 -25 CURVE SMOOTH"
);
},
{
closed = 1;
nodes = (
"102 48 OFFCURVE",
"259 -24 OFFCURVE",
"371 -24 CURVE SMOOTH",
"539 -24 OFFCURVE",
"656 40 OFFCURVE",
"741 170 CURVE",
"707 219 LINE",
"707 219 OFFCURVE",
"648 90 OFFCURVE",
"443 90 CURVE SMOOTH",
"355 90 OFFCURVE",
"308 175 OFFCURVE",
"308 252 CURVE SMOOTH",
"308 464 OFFCURVE",
"496 509 OFFCURVE",
"676 528 CURVE",
"677 599 LINE",
"413 571 OFFCURVE",
"92 509 OFFCURVE",
"98 235 CURVE SMOOTH"
);
}
);
};
layerId = "DD6F9F34-BC40-4E8F-B1D3-DF3B42A9710F";
paths = (
{
closed = 1;
nodes = (
"103 48 OFFCURVE",
"259 -21 OFFCURVE",
"379 -21 CURVE SMOOTH",
"519 -21 OFFCURVE",
"608 18 OFFCURVE",
"695 109 CURVE",
"695 99 LINE SMOOTH",
"695 -28 OFFCURVE",
"767 -19 OFFCURVE",
"819 -19 CURVE SMOOTH",
"880 -19 OFFCURVE",
"962 13 OFFCURVE",
"994 43 CURVE",
"1010 56 OFFCURVE",
"991 111 OFFCURVE",
"960 102 CURVE SMOOTH",
"936 95 OFFCURVE",
"921 94 OFFCURVE",
"902 94 CURVE SMOOTH",
"880 94 OFFCURVE",
"864 149 OFFCURVE",
"864 201 CURVE SMOOTH",
"864 689 LINE SMOOTH",
"864 848 OFFCURVE",
"821 1014 OFFCURVE",
"520 1014 CURVE SMOOTH",
"290 1014 OFFCURVE",
"131 900 OFFCURVE",
"131 781 CURVE SMOOTH",
"131 703 OFFCURVE",
"173 665 OFFCURVE",
"212 665 CURVE SMOOTH",
"253 665 OFFCURVE",
"271 684 OFFCURVE",
"289 712 CURVE SMOOTH",
"314 751 OFFCURVE",
"359 877 OFFCURVE",
"378 907 CURVE",
"378 907 OFFCURVE",
"414 924 OFFCURVE",
"476 924 CURVE SMOOTH",
"635 924 OFFCURVE",
"677 827 OFFCURVE",
"677 753 CURVE SMOOTH",
"677 728 OFFCURVE",
"677 677 OFFCURVE",
"677 599 CURVE",
"406 571 OFFCURVE",
"93 507 OFFCURVE",
"99 235 CURVE SMOOTH {name = hr00;}"
);
},
{
closed = 1;
nodes = (
"308 456 OFFCURVE",
"452 495 OFFCURVE",
"676 528 CURVE",
"676 176 LINE",
"636 136 OFFCURVE",
"561 90 OFFCURVE",
"451 90 CURVE SMOOTH",
"363 90 OFFCURVE",
"308 164 OFFCURVE",
"308 248 CURVE SMOOTH"
);
}
);
width = 1032;
},
{
anchors = (
{
name = btm;
position = "{622, -200}";
},
{
name = top;
position = "{590, 2000}";
}
);
layerId = "62CA62AF-CD91-478A-AB8B-28A62CC47DA0";
paths = (
{
closed = 1;
nodes = (
"85 48 OFFCURVE",
"259 -24 OFFCURVE",
"379 -24 CURVE SMOOTH",
"519 -24 OFFCURVE",
"644 21 OFFCURVE",
"731 112 CURVE",
"731 109 LINE SMOOTH",
"730 87 OFFCURVE",
"715 -25 OFFCURVE",
"883 -25 CURVE SMOOTH",
"1046 -25 OFFCURVE",
"1148 22 OFFCURVE",
"1170 37 CURVE",
"1186 50 OFFCURVE",
"1167 118 OFFCURVE",
"1136 109 CURVE SMOOTH",
"1112 102 OFFCURVE",
"1097 101 OFFCURVE",
"1078 101 CURVE SMOOTH",
"1056 101 OFFCURVE",
"1040 141 OFFCURVE",
"1040 193 CURVE SMOOTH",
"1040 736 LINE SMOOTH",
"1040 895 OFFCURVE",
"911 1014 OFFCURVE",
"606 1014 CURVE SMOOTH",
"454 1014 OFFCURVE",
"131 944 OFFCURVE",
"131 781 CURVE SMOOTH",
"131 703 OFFCURVE",
"199 645 OFFCURVE",
"268 645 CURVE SMOOTH",
"312 645 OFFCURVE",
"328 674 OFFCURVE",
"346 702 CURVE SMOOTH",
"371 741 OFFCURVE",
"427 870 OFFCURVE",
"446 900 CURVE",
"446 900 OFFCURVE",
"478 919 OFFCURVE",
"563 919 CURVE SMOOTH",
"652 919 OFFCURVE",
"713 890 OFFCURVE",
"713 763 CURVE SMOOTH",
"713 738 OFFCURVE",
"712 676 OFFCURVE",
"712 598 CURVE",
"441 570 OFFCURVE",
"75 507 OFFCURVE",
"81 235 CURVE SMOOTH {name = hr00;}"
);
},
{
closed = 1;
nodes = (
"420 460 OFFCURVE",
"577 498 OFFCURVE",
"712 518 CURVE",
"712 196 LINE",
"686 164 OFFCURVE",
"636 120 OFFCURVE",
"551 120 CURVE SMOOTH",
"463 120 OFFCURVE",
"420 185 OFFCURVE",
"420 252 CURVE SMOOTH"
);
}
);
width = 1221;
}
);
leftKerningGroup = a;
rightKerningGroup = n;
unicode = 0061;
},
{
glyphname = aogonek;
lastChange = "2018-05-24 13:54:47 +0000";
layers = (
{
components = (
{
name = a;
}
);
layerId = "DD6F9F34-BC40-4E8F-B1D3-DF3B42A9710F";
paths = (
{
closed = 1;
nodes = (
"546 -105 OFFCURVE",
"664 0 OFFCURVE",
"783 16 CURVE",
"783 16 OFFCURVE",
"851 -21 OFFCURVE",
"851 -21 CURVE",
"737 -33 OFFCURVE",
"694 -116 OFFCURVE",
"694 -198 CURVE SMOOTH",
"694 -381 OFFCURVE",
"893 -346 OFFCURVE",
"941 -349 CURVE SMOOTH",
"958 -350 OFFCURVE",
"962 -367 OFFCURVE",
"957 -393 CURVE SMOOTH",
"954 -408 OFFCURVE",
"942 -418 OFFCURVE",
"927 -422 CURVE SMOOTH",
"870 -438 OFFCURVE",
"817 -448 OFFCURVE",
"766 -448 CURVE SMOOTH",
"639 -448 OFFCURVE",
"546 -345 OFFCURVE",
"546 -238 CURVE SMOOTH"
);
}
);
width = 1032;
},
{
layerId = "62CA62AF-CD91-478A-AB8B-28A62CC47DA0";
paths = (
{
closed = 1;
nodes = (
"85 48 OFFCURVE",
"259 -24 OFFCURVE",
"379 -24 CURVE SMOOTH",
"519 -24 OFFCURVE",
"644 21 OFFCURVE",
"731 112 CURVE",
"731 109 LINE SMOOTH",
"730 88 OFFCURVE",
"716 -11 OFFCURVE",
"854 -23 CURVE",
"746 -78 OFFCURVE",
"645 -161 OFFCURVE",
"645 -273 CURVE SMOOTH {name = hr02;}",
"645 -365 OFFCURVE",
"723 -452 OFFCURVE",
"875 -452 CURVE SMOOTH",
"950 -452 OFFCURVE",
"1047 -437 OFFCURVE",
"1131 -394 CURVE",
"1145 -383 OFFCURVE",
"1118 -298 OFFCURVE",
"1108 -304 CURVE",
"1082 -315 OFFCURVE",
"1036 -330 OFFCURVE",
"993 -330 CURVE SMOOTH",
"936 -330 OFFCURVE",
"883 -313 OFFCURVE",
"883 -228 CURVE SMOOTH",
"883 -161 OFFCURVE",
"940 -64 OFFCURVE",
"1092 3 CURVE",
"1089 3 LINE",
"1132 16 OFFCURVE",
"1159 30 OFFCURVE",
"1170 37 CURVE",
"1186 50 OFFCURVE",
"1167 118 OFFCURVE",
"1136 109 CURVE SMOOTH {name = hr03;}",
"1112 102 OFFCURVE",
"1097 101 OFFCURVE",
"1078 101 CURVE SMOOTH",
"1056 101 OFFCURVE",
"1040 141 OFFCURVE",
"1040 193 CURVE SMOOTH",
"1040 736 LINE SMOOTH",
"1040 895 OFFCURVE",
"911 1014 OFFCURVE",
"606 1014 CURVE SMOOTH",
"454 1014 OFFCURVE",
"131 944 OFFCURVE",
"131 781 CURVE SMOOTH",
"131 703 OFFCURVE",
"199 645 OFFCURVE",
"268 645 CURVE SMOOTH",
"312 645 OFFCURVE",
"328 674 OFFCURVE",
"346 702 CURVE SMOOTH",
"371 741 OFFCURVE",
"427 870 OFFCURVE",
"446 900 CURVE",
"446 900 OFFCURVE",
"478 919 OFFCURVE",
"563 919 CURVE SMOOTH",
"652 919 OFFCURVE",
"713 890 OFFCURVE",
"713 763 CURVE SMOOTH",
"713 738 OFFCURVE",
"712 676 OFFCURVE",
"712 598 CURVE",
"441 570 OFFCURVE",
"75 507 OFFCURVE",
"81 235 CURVE SMOOTH {name = hr01;}"
);
},
{
closed = 1;
nodes = (
"420 460 OFFCURVE",
"577 498 OFFCURVE",
"712 518 CURVE",
"712 196 LINE",
"686 164 OFFCURVE",
"636 120 OFFCURVE",
"551 120 CURVE SMOOTH",
"463 120 OFFCURVE",
"420 185 OFFCURVE",
"420 252 CURVE SMOOTH"
);
}
);
width = 1221;
}
);
leftKerningGroup = a;
rightKerningGroup = n;
unicode = 0105;
},
{
color = 4;
glyphname = ae;
lastChange = "2018-07-10 04:38:09 +0000";
layers = (
{
anchors = (
{
name = top;
position = "{772, 2000}";
}
);
layerId = "DD6F9F34-BC40-4E8F-B1D3-DF3B42A9710F";
paths = (
{
closed = 1;
nodes = (
"519 -24 OFFCURVE",
"627 26 OFFCURVE",
"709 126 CURVE",
"782 25 OFFCURVE",
"896 -29 OFFCURVE",
"1050 -29 CURVE SMOOTH",
"1220 -29 OFFCURVE",
"1327 54 OFFCURVE",
"1384 173 CURVE SMOOTH",
"1388 181 OFFCURVE",
"1397 194 OFFCURVE",
"1379 201 CURVE",
"1329 224 LINE",
"1316 227 OFFCURVE",
"1314 216 OFFCURVE",
"1310 208 CURVE SMOOTH",
"1264 123 OFFCURVE",
"1177 75 OFFCURVE",
"1076 75 CURVE SMOOTH",
"954 75 OFFCURVE",
"820 186 OFFCURVE",
"818 503 CURVE",
"1440 503 LINE",
"1440 546 OFFCURVE",
"1438 587 OFFCURVE",
"1435 627 CURVE SMOOTH",
"1412 856 OFFCURVE",
"1317 1014 OFFCURVE",
"1048 1014 CURVE SMOOTH",
"944 1014 OFFCURVE",
"844 976 OFFCURVE",
"766 904 CURVE",
"716 971 OFFCURVE",
"632 1013 OFFCURVE",
"520 1013 CURVE SMOOTH",
"434 1013 OFFCURVE",
"295 997 OFFCURVE",
"199 909 CURVE SMOOTH",
"80 799 OFFCURVE",
"142 694 OFFCURVE",
"197 694 CURVE SMOOTH",
"254 694 OFFCURVE",
"268 701 OFFCURVE",
"291 744 CURVE SMOOTH",
"315 786 OFFCURVE",
"354 863 OFFCURVE",
"373 893 CURVE",
"373 893 OFFCURVE",
"430 923 OFFCURVE",
"487 919 CURVE",
"590 919 OFFCURVE",
"634 861 OFFCURVE",
"634 758 CURVE SMOOTH",
"634 599 LINE",
"380 568 OFFCURVE",
"92 492 OFFCURVE",
"98 235 CURVE SMOOTH",
"102 48 OFFCURVE",
"259 -24 OFFCURVE",
"371 -24 CURVE SMOOTH"
);
},
{
closed = 1;
nodes = (
"832 873 OFFCURVE",
"917 918 OFFCURVE",
"1047 918 CURVE SMOOTH",
"1149 918 OFFCURVE",
"1218 827 OFFCURVE",
"1218 595 CURVE",
"820 589 LINE"
);
},
{
closed = 1;
nodes = (
"355 90 OFFCURVE",
"308 175 OFFCURVE",
"308 252 CURVE SMOOTH",
"308 444 OFFCURVE",
"469 500 OFFCURVE",
"634 523 CURVE",
"633 141 LINE",
"592 114 OFFCURVE",
"531 90 OFFCURVE",
"443 90 CURVE SMOOTH"
);
}
);
width = 1509;
},
{
anchors = (
{
name = top;
position = "{919, 2000}";
}
);
layerId = "62CA62AF-CD91-478A-AB8B-28A62CC47DA0";
paths = (
{
closed = 1;
nodes = (
"595 -24 OFFCURVE",
"718 35 OFFCURVE",
"807 147 CURVE",
"890 33 OFFCURVE",
"1032 -29 OFFCURVE",
"1243 -29 CURVE SMOOTH {name = hr03;}",
"1459 -29 OFFCURVE",
"1600 52 OFFCURVE",
"1667 173 CURVE SMOOTH",
"1675 188 OFFCURVE",
"1676 196 OFFCURVE",
"1663 202 CURVE SMOOTH",
"1619 223 LINE",
"1606 226 OFFCURVE",
"1599 215 OFFCURVE",
"1593 208 CURVE SMOOTH",
"1529 131 OFFCURVE",
"1444 105 OFFCURVE",
"1319 105 CURVE SMOOTH",
"1193 105 OFFCURVE",
"1040 200 OFFCURVE",
"1040 509 CURVE",
"1714 509 LINE",
"1714 564 OFFCURVE",
"1714 626 OFFCURVE",
"1705 674 CURVE SMOOTH",
"1668 885 OFFCURVE",
"1543 1014 OFFCURVE",
"1227 1014 CURVE SMOOTH",
"1107 1014 OFFCURVE",
"996 981 OFFCURVE",
"908 919 CURVE",
"838 979 OFFCURVE",
"739 1014 OFFCURVE",
"606 1014 CURVE SMOOTH",
"454 1014 OFFCURVE",
"131 944 OFFCURVE",
"131 781 CURVE SMOOTH",
"131 703 OFFCURVE",
"199 645 OFFCURVE",
"268 645 CURVE SMOOTH",
"312 645 OFFCURVE",
"328 674 OFFCURVE",
"346 702 CURVE SMOOTH",
"371 741 OFFCURVE",
"427 870 OFFCURVE",
"446 900 CURVE {name = hr04;}",
"446 900 OFFCURVE",
"478 919 OFFCURVE",
"563 919 CURVE SMOOTH",
"652 919 OFFCURVE",
"712 890 OFFCURVE",
"712 763 CURVE SMOOTH",
"712 598 LINE",
"440 570 OFFCURVE",
"75 506 OFFCURVE",
"81 235 CURVE SMOOTH {name = hr01;}",
"85 48 OFFCURVE",
"259 -24 OFFCURVE",
"379 -24 CURVE SMOOTH {name = hr02;}"
);
},
{
closed = 1;
nodes = (
"1059 838 OFFCURVE",
"1138 929 OFFCURVE",
"1224 929 CURVE SMOOTH",
"1333 929 OFFCURVE",
"1381 833 OFFCURVE",
"1381 601 CURVE",
"1043 601 LINE"
);
},
{
closed = 1;
nodes = (
"463 120 OFFCURVE",
"420 185 OFFCURVE",
"420 252 CURVE SMOOTH {name = hr06;}",
"420 460 OFFCURVE",
"576 498 OFFCURVE",
"712 518 CURVE",
"712 171 LINE",
"678 145 OFFCURVE",
"626 120 OFFCURVE",
"551 120 CURVE SMOOTH"
);
}
);
width = 1755;
}
);
leftKerningGroup = a;
rightKerningGroup = e;
unicode = 00E6;
},
{
color = 4;
glyphname = b;
lastChange = "2018-07-10 04:42:30 +0000";
layers = (
{
anchors = (
{
name = btm;
position = "{536, -200}";
},
{
name = top;
position = "{680, 2000}";
}
);
layerId = "DD6F9F34-BC40-4E8F-B1D3-DF3B42A9710F";
paths = (
{
closed = 1;
nodes = (
"241 -32 OFFCURVE",
"296 20 OFFCURVE",
"330 74 CURVE",
"386 -5 OFFCURVE",
"499 -30 OFFCURVE",
"622 -30 CURVE SMOOTH",
"931 -30 OFFCURVE",
"1072 223 OFFCURVE",
"1072 492 CURVE SMOOTH",
"1072 762 OFFCURVE",
"952 1013 OFFCURVE",
"644 1013 CURVE SMOOTH",
"544 1013 OFFCURVE",
"418 958 OFFCURVE",
"350 875 CURVE",
"360 1104 LINE",
"360 1518 LINE",
"357 1550 OFFCURVE",
"341 1558 OFFCURVE",
"330 1558 CURVE SMOOTH",
"273 1557 OFFCURVE",
"148 1556 OFFCURVE",
"15 1548 CURVE SMOOTH",
"-1 1547 OFFCURVE",
"-9 1520 OFFCURVE",
"-9 1504 CURVE SMOOTH",
"-9 1479 OFFCURVE",
"1 1470 OFFCURVE",
"15 1464 CURVE",
"69 1450 OFFCURVE",
"174 1463 OFFCURVE",
"174 1339 CURVE SMOOTH",
"174 12 LINE SMOOTH",
"174 -17 OFFCURVE",
"181 -32 OFFCURVE",
"209 -32 CURVE SMOOTH"
);
},
{
closed = 1;
nodes = (
"474 65 OFFCURVE",
"398 99 OFFCURVE",
"360 170 CURVE",
"360 808 LINE",
"404 867 OFFCURVE",
"504 918 OFFCURVE",
"581 918 CURVE SMOOTH",
"796 918 OFFCURVE",
"865 732 OFFCURVE",
"865 492 CURVE SMOOTH",
"865 252 OFFCURVE",
"800 65 OFFCURVE",
"585 65 CURVE SMOOTH"
);
}
);
width = 1147;
},
{
anchors = (
{
name = btm;
position = "{597, -200}";
},
{
name = top;
position = "{850, 2000}";
}
);
layerId = "62CA62AF-CD91-478A-AB8B-28A62CC47DA0";
paths = (
{
closed = 1;
nodes = (
"250 -32 OFFCURVE",
"226 -23 OFFCURVE",
"328 40 CURVE",
"449 -21 OFFCURVE",
"618 -29 OFFCURVE",
"732 -29 CURVE SMOOTH",
"1076 -29 OFFCURVE",
"1242 224 OFFCURVE",
"1242 493 CURVE SMOOTH",
"1242 763 OFFCURVE",
"1123 1014 OFFCURVE",
"794 1014 CURVE SMOOTH",
"678 1014 OFFCURVE",
"534 970 OFFCURVE",
"466 877 CURVE",
"476 1015 LINE",
"476 1500 LINE",
"483 1510 OFFCURVE",
"467 1548 OFFCURVE",
"446 1548 CURVE SMOOTH",
"367 1547 OFFCURVE",
"195 1546 OFFCURVE",
"11 1538 CURVE SMOOTH",
"-5 1537 OFFCURVE",
"-13 1510 OFFCURVE",
"-13 1494 CURVE SMOOTH",
"-13 1469 OFFCURVE",
"-3 1460 OFFCURVE",
"11 1454 CURVE",
"62 1440 OFFCURVE",
"160 1453 OFFCURVE",
"160 1329 CURVE SMOOTH",
"160 25 LINE SMOOTH {name = hr00;}",
"160 -4 OFFCURVE",
"167 -32 OFFCURVE",
"195 -32 CURVE SMOOTH"
);
},
{
closed = 1;
nodes = (
"572 76 OFFCURVE",
"493 135 OFFCURVE",
"476 164 CURVE",
"476 776 LINE",
"510 838 OFFCURVE",
"590 869 OFFCURVE",
"651 869 CURVE SMOOTH",
"841 869 OFFCURVE",
"905 722 OFFCURVE",
"905 493 CURVE SMOOTH",
"905 235 OFFCURVE",
"841 76 OFFCURVE",
"635 76 CURVE SMOOTH"
);
}
);
width = 1323;
}
);
leftKerningGroup = h;
rightKerningGroup = o;
unicode = 0062;
userData = {
com.typemytype.robofont.mark = (
0.967,
0.6,
1,
1
);
};
},
{
glyphname = c;
lastChange = "2018-07-10 04:20:44 +0000";
layers = (
{
anchors = (
{
name = btm;
position = "{523, -200}";
},
{
name = top;
position = "{481, 2000}";
}
);
layerId = "DD6F9F34-BC40-4E8F-B1D3-DF3B42A9710F";
paths = (
{
closed = 1;
nodes = (
"680 -29 OFFCURVE",
"787 54 OFFCURVE",
"844 173 CURVE SMOOTH",
"848 181 OFFCURVE",
"857 194 OFFCURVE",
"839 201 CURVE SMOOTH",
"789 224 LINE SMOOTH",
"776 227 OFFCURVE",
"774 216 OFFCURVE",
"770 208 CURVE SMOOTH",
"724 123 OFFCURVE",
"637 75 OFFCURVE",
"536 75 CURVE SMOOTH",
"431 75 OFFCURVE",
"282 178 OFFCURVE",
"282 490 CURVE SMOOTH",
"282 815 OFFCURVE",
"392 918 OFFCURVE",
"554 918 CURVE SMOOTH",
"611 918 OFFCURVE",
"638 897 OFFCURVE",
"638 897 CURVE",
"722 710 LINE SMOOTH",
"742 666 OFFCURVE",
"765 662 OFFCURVE",
"804 662 CURVE SMOOTH",
"859 662 OFFCURVE",
"916 748 OFFCURVE",
"832 887 CURVE SMOOTH",
"770 989 OFFCURVE",
"653 1014 OFFCURVE",
"539 1014 CURVE SMOOTH",
"273 1014 OFFCURVE",
"67 834 OFFCURVE",
"67 500 CURVE SMOOTH",
"67 176 OFFCURVE",
"218 -29 OFFCURVE",
"510 -29 CURVE SMOOTH"
);
}
);
width = 930;
},
{
anchors = (
{
name = btm;
position = "{564, -200}";
},
{
name = top;
position = "{620, 2000}";
}
);
layerId = "62CA62AF-CD91-478A-AB8B-28A62CC47DA0";
paths = (
{
closed = 1;
nodes = (
"779 -29 OFFCURVE",
"956 52 OFFCURVE",
"1019 173 CURVE SMOOTH",
"1027 188 OFFCURVE",
"1028 196 OFFCURVE",
"1015 202 CURVE",
"971 223 LINE",
"958 226 OFFCURVE",
"951 215 OFFCURVE",
"945 208 CURVE SMOOTH",
"885 141 OFFCURVE",
"796 105 OFFCURVE",
"681 105 CURVE SMOOTH",
"554 105 OFFCURVE",
"407 224 OFFCURVE",
"407 490 CURVE SMOOTH",
"407 825 OFFCURVE",
"505 929 OFFCURVE",
"616 929 CURVE SMOOTH",
"694 929 OFFCURVE",
"686 912 OFFCURVE",
"686 912 CURVE",
"803 670 LINE SMOOTH",
"814 646 OFFCURVE",
"854 613 OFFCURVE",
"900 613 CURVE SMOOTH",
"955 613 OFFCURVE",
"1074 670 OFFCURVE",
"1022 824 CURVE SMOOTH",
"975 963 OFFCURVE",
"859 1014 OFFCURVE",
"654 1014 CURVE SMOOTH",
"333 1014 OFFCURVE",
"62 834 OFFCURVE",
"62 500 CURVE SMOOTH {name = hr00;}",
"62 176 OFFCURVE",
"236 -29 OFFCURVE",
"655 -29 CURVE SMOOTH"
);
}
);
width = 1087;
}
);
leftKerningGroup = o;
rightKerningGroup = c;
unicode = 0063;
},
{
glyphname = ccedilla;
lastChange = "2018-05-24 13:54:47 +0000";
layers = (
{
components = (
{
name = c;
},
{
name = cedilla;
transform = "{1, 0, 0, 1, 92, 0}";
}
);
layerId = "DD6F9F34-BC40-4E8F-B1D3-DF3B42A9710F";
width = 930;
},
{
layerId = "62CA62AF-CD91-478A-AB8B-28A62CC47DA0";
paths = (
{
closed = 1;
nodes = (
"464 -144 LINE",
"466 -144 LINE",
"464 -145 LINE",
"585 -177 OFFCURVE",
"603 -214 OFFCURVE",
"603 -258 CURVE SMOOTH {name = hr02;}",
"603 -313 OFFCURVE",
"517 -333 OFFCURVE",
"373 -316 CURVE SMOOTH",
"346 -313 OFFCURVE",
"337 -354 OFFCURVE",
"337 -380 CURVE SMOOTH",
"337 -395 OFFCURVE",
"342 -403 OFFCURVE",
"357 -408 CURVE SMOOTH",
"393 -420 OFFCURVE",
"455 -438 OFFCURVE",
"564 -438 CURVE SMOOTH",
"757 -438 OFFCURVE",
"848 -368 OFFCURVE",
"848 -279 CURVE SMOOTH",
"848 -185 OFFCURVE",
"779 -114 OFFCURVE",
"631 -91 CURVE {name = hr03;}",
"631 -28 LINE",
"639 -28 OFFCURVE",
"647 -29 OFFCURVE",
"655 -29 CURVE SMOOTH",
"779 -29 OFFCURVE",
"956 52 OFFCURVE",
"1019 173 CURVE SMOOTH",
"1027 188 OFFCURVE",
"1028 196 OFFCURVE",
"1015 202 CURVE SMOOTH",
"971 223 LINE",
"958 226 OFFCURVE",
"951 215 OFFCURVE",
"945 208 CURVE SMOOTH",
"885 141 OFFCURVE",
"796 105 OFFCURVE",
"681 105 CURVE SMOOTH",
"554 105 OFFCURVE",
"407 224 OFFCURVE",
"407 490 CURVE SMOOTH",
"407 825 OFFCURVE",
"505 929 OFFCURVE",
"616 929 CURVE SMOOTH",
"694 929 OFFCURVE",
"686 912 OFFCURVE",
"686 912 CURVE",
"803 670 LINE SMOOTH",
"814 646 OFFCURVE",
"854 613 OFFCURVE",
"900 613 CURVE SMOOTH",
"955 613 OFFCURVE",
"1074 670 OFFCURVE",
"1022 824 CURVE SMOOTH",
"975 963 OFFCURVE",
"859 1014 OFFCURVE",
"654 1014 CURVE SMOOTH",
"333 1014 OFFCURVE",
"62 834 OFFCURVE",
"62 500 CURVE SMOOTH",
"62 228 OFFCURVE",
"184 40 OFFCURVE",
"472 -13 CURVE {name = hr01;}"
);
}
);
width = 1087;
}
);
leftKerningGroup = o;
rightKerningGroup = c;
unicode = 00E7;
},
{
color = 4;
glyphname = d;
lastChange = "2018-07-10 06:04:53 +0000";
layers = (
{
anchors = (
{
name = btm;
position = "{603, -200}";
},
{
name = top;
position = "{393, 2000}";
}
);
layerId = "DD6F9F34-BC40-4E8F-B1D3-DF3B42A9710F";
paths = (
{
closed = 1;
nodes = (
"603 -29 OFFCURVE",
"722 21 OFFCURVE",
"792 97 CURVE",
"791 34 OFFCURVE",
"793 0 OFFCURVE",
"868 0 CURVE SMOOTH",
"1092 0 LINE SMOOTH",
"1114 0 OFFCURVE",
"1126 26 OFFCURVE",
"1126 41 CURVE SMOOTH",
"1126 71 OFFCURVE",
"1118 75 OFFCURVE",
"1090 78 CURVE SMOOTH",
"1041 83 OFFCURVE",
"978 89 OFFCURVE",
"978 175 CURVE SMOOTH",
"978 1518 LINE",
"975 1550 OFFCURVE",
"959 1558 OFFCURVE",
"948 1558 CURVE SMOOTH",
"891 1557 OFFCURVE",
"736 1556 OFFCURVE",
"603 1548 CURVE SMOOTH",
"587 1547 OFFCURVE",
"579 1520 OFFCURVE",
"579 1504 CURVE SMOOTH",
"579 1479 OFFCURVE",
"589 1470 OFFCURVE",
"603 1464 CURVE",
"657 1450 OFFCURVE",
"792 1463 OFFCURVE",
"792 1339 CURVE SMOOTH",
"792 1104 LINE",
"802 934 LINE",
"741 994 OFFCURVE",
"639 1014 OFFCURVE",
"530 1014 CURVE SMOOTH",
"214 1014 OFFCURVE",
"80 761 OFFCURVE",
"80 492 CURVE SMOOTH",
"80 222 OFFCURVE",
"193 -29 OFFCURVE",
"508 -29 CURVE SMOOTH"
);
},
{
closed = 1;
nodes = (
"348 66 OFFCURVE",
"287 253 OFFCURVE",
"287 492 CURVE SMOOTH",
"287 736 OFFCURVE",
"344 919 OFFCURVE",
"567 919 CURVE SMOOTH",
"678 919 OFFCURVE",
"754 885 OFFCURVE",
"792 814 CURVE",
"792 176 LINE",
"748 117 OFFCURVE",
"648 66 OFFCURVE",
"571 66 CURVE SMOOTH"
);
}
);
width = 1176;
},
{
anchors = (
{
name = btm;
position = "{676, -200}";
},
{
name = top;
position = "{408, 2000}";
}
);
layerId = "62CA62AF-CD91-478A-AB8B-28A62CC47DA0";
paths = (
{
closed = 1;
nodes = (
"645 -29 OFFCURVE",
"790 15 OFFCURVE",
"858 108 CURVE",
"857 37 OFFCURVE",
"854 0 OFFCURVE",
"934 0 CURVE SMOOTH {name = hr02;}",
"1278 0 LINE SMOOTH",
"1300 0 OFFCURVE",
"1312 26 OFFCURVE",
"1312 41 CURVE SMOOTH",
"1312 71 OFFCURVE",
"1304 75 OFFCURVE",
"1276 78 CURVE SMOOTH",
"1227 83 OFFCURVE",
"1164 89 OFFCURVE",
"1164 175 CURVE SMOOTH",
"1164 1508 LINE SMOOTH",
"1164 1540 OFFCURVE",
"1145 1548 OFFCURVE",
"1134 1548 CURVE SMOOTH",
"1054 1547 OFFCURVE",
"836 1546 OFFCURVE",
"649 1538 CURVE SMOOTH",
"634 1537 OFFCURVE",
"625 1510 OFFCURVE",
"625 1494 CURVE SMOOTH",
"625 1469 OFFCURVE",
"635 1460 OFFCURVE",
"649 1454 CURVE",
"761 1446 OFFCURVE",
"848 1425 OFFCURVE",
"848 1329 CURVE SMOOTH",
"848 1105 LINE",
"857 948 LINE",
"768 1002 OFFCURVE",
"699 1014 OFFCURVE",
"592 1014 CURVE SMOOTH",
"248 1014 OFFCURVE",
"82 761 OFFCURVE",
"82 492 CURVE SMOOTH {name = hr01;}",
"82 222 OFFCURVE",
"201 -29 OFFCURVE",
"530 -29 CURVE SMOOTH"
);
},
{
closed = 1;
nodes = (
"483 116 OFFCURVE",
"419 273 OFFCURVE",
"419 492 CURVE SMOOTH",
"419 740 OFFCURVE",
"483 909 OFFCURVE",
"689 909 CURVE SMOOTH",
"752 909 OFFCURVE",
"831 850 OFFCURVE",
"848 801 CURVE",
"848 209 LINE",
"813 147 OFFCURVE",
"734 116 OFFCURVE",
"673 116 CURVE SMOOTH"
);
}
);
width = 1358;
}
);
leftKerningGroup = o;
rightKerningGroup = l;
unicode = 0064;
userData = {
com.typemytype.robofont.mark = (
0.967,
0.6,
1,
1
);
};
},
{
color = 4;
glyphname = eth;
lastChange = "2018-07-10 04:38:46 +0000";
layers = (
{
background = {
paths = (
{
closed = 1;
nodes = (
"772 914 OFFCURVE",
"668 994 OFFCURVE",
"507 994 CURVE SMOOTH",
"260 994 OFFCURVE",
"80 781 OFFCURVE",
"80 462 CURVE SMOOTH",
"80 191 OFFCURVE",
"257 -29 OFFCURVE",
"557 -29 CURVE SMOOTH",
"856 -29 OFFCURVE",
"1006 260 OFFCURVE",
"1006 592 CURVE SMOOTH",
"1006 945 OFFCURVE",
"848 1448 OFFCURVE",
"198 1579 CURVE",
"187 1487 LINE",
"776 1359 OFFCURVE",
"794 807 OFFCURVE",
"794 572 CURVE SMOOTH",
"794 262 OFFCURVE",
"756 66 OFFCURVE",
"554 66 CURVE SMOOTH",
"353 66 OFFCURVE",
"297 218 OFFCURVE",
"297 462 CURVE SMOOTH",
"297 731 OFFCURVE",
"366 877 OFFCURVE",
"523 877 CURVE SMOOTH",
"658 877 OFFCURVE",
"749 839 OFFCURVE",
"802 729 CURVE",
"830 806 LINE"
);
},
{
closed = 1;
nodes = (
"274 1255 LINE",
"362 1195 LINE",
"640 1619 LINE",
"554 1685 LINE"
);
}
);
};
layerId = "DD6F9F34-BC40-4E8F-B1D3-DF3B42A9710F";
paths = (
{
closed = 1;
nodes = (
"89 179 OFFCURVE",
"275 -20 OFFCURVE",
"557 -20 CURVE SMOOTH",
"878 -20 OFFCURVE",
"1021 267 OFFCURVE",
"1021 611 CURVE SMOOTH",
"1021 869 OFFCURVE",
"890 1222 OFFCURVE",
"641 1451 CURVE",
"810 1581 LINE",
"816 1594 OFFCURVE",
"808 1625 OFFCURVE",
"797 1646 CURVE SMOOTH",
"790 1659 OFFCURVE",
"777 1667 OFFCURVE",
"765 1658 CURVE SMOOTH",
"566 1502 LINE",
"474 1557 OFFCURVE",
"368 1592 OFFCURVE",
"249 1602 CURVE",
"233 1602 OFFCURVE",
"227 1587 OFFCURVE",
"220 1562 CURVE SMOOTH",
"212 1533 OFFCURVE",
"219 1493 OFFCURVE",
"232 1491 CURVE SMOOTH",
"320 1477 OFFCURVE",
"395 1446 OFFCURVE",
"460 1401 CURVE",
"284 1261 LINE",
"278 1248 OFFCURVE",
"282 1226 OFFCURVE",
"294 1204 CURVE SMOOTH",
"301 1192 OFFCURVE",
"317 1176 OFFCURVE",
"328 1184 CURVE",
"528 1344 LINE",
"632 1241 OFFCURVE",
"755 1063 OFFCURVE",
"790 889 CURVE",
"742 945 OFFCURVE",
"615 980 OFFCURVE",
"540 980 CURVE SMOOTH",
"261 980 OFFCURVE",
"89 791 OFFCURVE",
"89 460 CURVE SMOOTH {name = hr00;}"
);
},
{
closed = 1;
nodes = (
"297 699 OFFCURVE",
"366 877 OFFCURVE",
"553 880 CURVE SMOOTH",
"755 883 OFFCURVE",
"793 794 OFFCURVE",
"793 590 CURVE SMOOTH",
"793 585 LINE SMOOTH",
"793 315 OFFCURVE",
"779 75 OFFCURVE",
"554 75 CURVE SMOOTH",
"396 75 OFFCURVE",
"297 218 OFFCURVE",
"297 462 CURVE SMOOTH"
);
}
);
width = 1089;
},
{
layerId = "62CA62AF-CD91-478A-AB8B-28A62CC47DA0";
paths = (
{
closed = 1;
nodes = (
"76 170 OFFCURVE",
"305 -29 OFFCURVE",
"653 -29 CURVE SMOOTH",
"1050 -29 OFFCURVE",
"1226 258 OFFCURVE",
"1226 602 CURVE SMOOTH",
"1226 925 OFFCURVE",
"1064 1265 OFFCURVE",
"757 1455 CURVE",
"963 1615 LINE",
"970 1629 OFFCURVE",
"958 1659 OFFCURVE",
"941 1679 CURVE SMOOTH",
"931 1691 OFFCURVE",
"915 1699 OFFCURVE",
"901 1689 CURVE SMOOTH",
"665 1506 LINE",
"551 1561 OFFCURVE",
"420 1596 OFFCURVE",
"273 1606 CURVE",
"253 1606 OFFCURVE",
"246 1591 OFFCURVE",
"238 1566 CURVE SMOOTH",
"229 1537 OFFCURVE",
"236 1497 OFFCURVE",
"252 1495 CURVE SMOOTH",
"361 1481 OFFCURVE",
"454 1450 OFFCURVE",
"534 1405 CURVE",
"331 1247 LINE",
"325 1233 OFFCURVE",
"331 1211 OFFCURVE",
"348 1191 CURVE SMOOTH",
"358 1179 OFFCURVE",
"380 1164 OFFCURVE",
"393 1173 CURVE",
"618 1348 LINE",
"746 1245 OFFCURVE",
"828 1054 OFFCURVE",
"871 880 CURVE",
"811 936 OFFCURVE",
"725 971 OFFCURVE",
"633 971 CURVE SMOOTH",
"288 971 OFFCURVE",
"76 782 OFFCURVE",
"76 451 CURVE SMOOTH {name = hr00;}"
);
},
{
closed = 1;
nodes = (
"423 658 OFFCURVE",
"492 853 OFFCURVE",
"649 853 CURVE SMOOTH",
"827 853 OFFCURVE",
"874 785 OFFCURVE",
"874 581 CURVE SMOOTH",
"874 576 LINE SMOOTH",
"874 306 OFFCURVE",
"848 66 OFFCURVE",
"650 66 CURVE SMOOTH",
"489 66 OFFCURVE",
"423 177 OFFCURVE",
"423 421 CURVE SMOOTH"
);
}
);
width = 1307;
}
);
leftKerningGroup = eth;
rightKerningGroup = eth;
unicode = 00F0;
},
{
glyphname = dcaron;
lastChange = "2018-05-24 13:54:47 +0000";
layers = (
{
components = (
{
name = d;
}
);
layerId = "DD6F9F34-BC40-4E8F-B1D3-DF3B42A9710F";
paths = (
{
closed = 1;
nodes = (
"1204 1444 OFFCURVE",
"1113 1449 OFFCURVE",
"1113 1570 CURVE SMOOTH",
"1113 1648 OFFCURVE",
"1161 1696 OFFCURVE",
"1244 1696 CURVE SMOOTH",
"1302 1696 OFFCURVE",
"1362 1657 OFFCURVE",
"1362 1511 CURVE SMOOTH",
"1362 1329 OFFCURVE",
"1255 1138 OFFCURVE",
"1201 1091 CURVE SMOOTH",
"1168 1068 OFFCURVE",
"1092 1098 OFFCURVE",
"1153 1162 CURVE SMOOTH",
"1215 1262 OFFCURVE",
"1214 1388 OFFCURVE",
"1207 1432 CURVE SMOOTH"
);
}
);
width = 1362;
},
{
components = (
{
name = d;
},
{
name = caronvertical;
transform = "{1, 0, 0, 1, 1358, 0}";
}
);
layerId = "62CA62AF-CD91-478A-AB8B-28A62CC47DA0";
width = 1696;
}
);
leftKerningGroup = o;
rightKerningGroup = l;
unicode = 010F;
},
{
glyphname = dcroat;
lastChange = "2018-05-24 13:54:47 +0000";
layers = (
{
layerId = "DD6F9F34-BC40-4E8F-B1D3-DF3B42A9710F";
paths = (
{
closed = 1;
nodes = (
"880 102 LINE",
"978 165 LINE",
"978 1518 LINE",
"792 1349 LINE",
"792 132 LINE"
);
},
{
closed = 1;
nodes = (
"891 1557 OFFCURVE",
"746 1556 OFFCURVE",
"613 1548 CURVE SMOOTH",
"597 1547 OFFCURVE",
"589 1530 OFFCURVE",
"589 1514 CURVE SMOOTH",
"589 1489 OFFCURVE",
"599 1480 OFFCURVE",
"613 1474 CURVE",
"667 1460 OFFCURVE",
"792 1473 OFFCURVE",
"792 1349 CURVE SMOOTH",
"792 1348 OFFCURVE",
"792 1347 OFFCURVE",
"793 1347 CURVE SMOOTH",
"814 1347 OFFCURVE",
"978 1490 OFFCURVE",
"978 1518 CURVE",
"975 1550 OFFCURVE",
"959 1558 OFFCURVE",
"948 1558 CURVE SMOOTH"
);
},
{
closed = 1;
nodes = (
"1114 0 OFFCURVE",
"1126 16 OFFCURVE",
"1126 31 CURVE SMOOTH",
"1126 61 OFFCURVE",
"1118 65 OFFCURVE",
"1090 68 CURVE SMOOTH",
"1041 73 OFFCURVE",
"978 79 OFFCURVE",
"978 165 CURVE",
"792 132 LINE",
"792 46 OFFCURVE",
"780 0 OFFCURVE",
"868 0 CURVE SMOOTH",
"1092 0 LINE SMOOTH"
);
},
{
closed = 1;
nodes = (
"791 965 OFFCURVE",
"691 1013 OFFCURVE",
"551 1013 CURVE SMOOTH",
"231 1013 OFFCURVE",
"80 774 OFFCURVE",
"80 486 CURVE SMOOTH",
"80 198 OFFCURVE",
"199 -29 OFFCURVE",
"519 -29 CURVE SMOOTH",
"642 -29 OFFCURVE",
"769 37 OFFCURVE",
"827 134 CURVE",
"809 201 LINE",
"772 136 OFFCURVE",
"683 66 OFFCURVE",
"568 66 CURVE SMOOTH",
"353 66 OFFCURVE",
"297 230 OFFCURVE",
"297 492 CURVE SMOOTH",
"297 754 OFFCURVE",
"349 919 OFFCURVE",
"564 919 CURVE SMOOTH",
"696 919 OFFCURVE",
"782 873 OFFCURVE",
"813 804 CURVE",
"839 898 LINE"
);
},
{
closed = 1;
nodes = (
"1148 1190 LINE",
"1148 1276 LINE",
"494 1276 LINE",
"494 1190 LINE"
);
}
);
width = 1176;
},
{
layerId = "62CA62AF-CD91-478A-AB8B-28A62CC47DA0";
paths = (
{
closed = 1;
nodes = (
"82 222 OFFCURVE",
"201 -29 OFFCURVE",
"530 -29 CURVE SMOOTH",
"645 -29 OFFCURVE",
"790 15 OFFCURVE",
"858 108 CURVE",
"857 37 OFFCURVE",
"854 0 OFFCURVE",
"934 0 CURVE SMOOTH {name = hr02;}",
"1278 0 LINE SMOOTH",
"1300 0 OFFCURVE",
"1312 26 OFFCURVE",
"1312 41 CURVE SMOOTH",
"1312 71 OFFCURVE",
"1304 75 OFFCURVE",
"1276 78 CURVE SMOOTH",
"1227 83 OFFCURVE",
"1164 89 OFFCURVE",
"1164 175 CURVE SMOOTH",
"1164 1191 LINE",
"1306 1191 LINE",
"1320 1197 OFFCURVE",
"1330 1219 OFFCURVE",
"1330 1244 CURVE SMOOTH",
"1330 1260 OFFCURVE",
"1322 1287 OFFCURVE",
"1306 1288 CURVE",
"1164 1288 LINE",
"1164 1508 LINE SMOOTH",
"1164 1540 OFFCURVE",
"1145 1548 OFFCURVE",
"1134 1548 CURVE SMOOTH",
"1054 1547 OFFCURVE",
"836 1546 OFFCURVE",
"649 1538 CURVE SMOOTH",
"634 1537 OFFCURVE",
"625 1510 OFFCURVE",
"625 1494 CURVE SMOOTH",
"625 1469 OFFCURVE",
"635 1460 OFFCURVE",
"649 1454 CURVE",
"761 1446 OFFCURVE",
"848 1425 OFFCURVE",
"848 1329 CURVE SMOOTH",
"848 1288 LINE",
"537 1288 LINE",
"523 1282 OFFCURVE",
"513 1250 OFFCURVE",
"513 1225 CURVE SMOOTH",
"513 1209 OFFCURVE",
"521 1192 OFFCURVE",
"537 1191 CURVE",
"848 1191 LINE",
"848 1105 LINE",
"857 948 LINE",
"768 1002 OFFCURVE",
"699 1014 OFFCURVE",
"592 1014 CURVE SMOOTH",
"248 1014 OFFCURVE",
"82 761 OFFCURVE",
"82 492 CURVE SMOOTH {name = hr01;}"
);
},
{
closed = 1;
nodes = (
"419 740 OFFCURVE",
"483 909 OFFCURVE",
"689 909 CURVE SMOOTH",
"752 909 OFFCURVE",
"831 850 OFFCURVE",
"848 801 CURVE",
"848 209 LINE",
"813 147 OFFCURVE",
"734 116 OFFCURVE",
"673 116 CURVE SMOOTH",
"483 116 OFFCURVE",
"419 273 OFFCURVE",
"419 492 CURVE SMOOTH"
);
}
);
width = 1358;
}
);
leftKerningGroup = o;
rightKerningGroup = l;
unicode = 0111;
},
{
color = 4;
glyphname = e;
lastChange = "2018-07-10 06:04:51 +0000";
layers = (
{
anchors = (
{
name = btm;
position = "{497, -200}";
},
{
name = top;
position = "{526, 2000}";
}
);
layerId = "DD6F9F34-BC40-4E8F-B1D3-DF3B42A9710F";
paths = (
{
closed = 1;
nodes = (
"700 -29 OFFCURVE",
"807 54 OFFCURVE",
"864 173 CURVE SMOOTH",
"868 181 OFFCURVE",
"877 194 OFFCURVE",
"859 201 CURVE",
"809 224 LINE",
"796 227 OFFCURVE",
"794 216 OFFCURVE",
"790 208 CURVE SMOOTH",
"744 123 OFFCURVE",
"657 75 OFFCURVE",
"556 75 CURVE SMOOTH",
"424 75 OFFCURVE",
"284 186 OFFCURVE",
"282 503 CURVE",
"920 503 LINE",
"920 562 OFFCURVE",
"917 618 OFFCURVE",
"908 669 CURVE SMOOTH",
"876 876 OFFCURVE",
"770 1014 OFFCURVE",
"518 1014 CURVE SMOOTH",
"279 1014 OFFCURVE",
"67 834 OFFCURVE",
"67 500 CURVE SMOOTH",
"67 166 OFFCURVE",
"224 -29 OFFCURVE",
"530 -29 CURVE SMOOTH"
);
},
{
closed = 1;
nodes = (
"295 873 OFFCURVE",
"374 918 OFFCURVE",
"517 918 CURVE SMOOTH",
"619 918 OFFCURVE",
"698 827 OFFCURVE",
"698 595 CURVE",
"284 589 LINE"
);
}
);
width = 990;
},
{
anchors = (
{
name = btm;
position = "{590, -200}";
},
{
name = top;
position = "{620, 2000}";
}
);
layerId = "62CA62AF-CD91-478A-AB8B-28A62CC47DA0";
paths = (
{
closed = 1;
nodes = (
"856 -29 OFFCURVE",
"994 52 OFFCURVE",
"1059 173 CURVE SMOOTH",
"1067 188 OFFCURVE",
"1068 196 OFFCURVE",
"1055 202 CURVE SMOOTH",
"1011 223 LINE",
"998 226 OFFCURVE",
"991 215 OFFCURVE",
"985 208 CURVE SMOOTH",
"923 131 OFFCURVE",
"841 105 OFFCURVE",
"721 105 CURVE SMOOTH",
"581 105 OFFCURVE",
"412 200 OFFCURVE",
"412 508 CURVE",
"1106 509 LINE",
"1106 564 OFFCURVE",
"1105 626 OFFCURVE",
"1097 674 CURVE SMOOTH",
"1061 885 OFFCURVE",
"938 1014 OFFCURVE",
"629 1014 CURVE SMOOTH",
"332 1014 OFFCURVE",
"72 836 OFFCURVE",
"72 502 CURVE SMOOTH {name = hr01;}",
"72 168 OFFCURVE",
"249 -29 OFFCURVE",
"645 -29 CURVE SMOOTH"
);
},
{
closed = 1;
nodes = (
"434 838 OFFCURVE",
"527 929 OFFCURVE",
"626 929 CURVE SMOOTH",
"728 929 OFFCURVE",
"773 833 OFFCURVE",
"773 601 CURVE",
"415 601 LINE"
);
}
);
width = 1171;
}
);
leftKerningGroup = o;
rightKerningGroup = e;
unicode = 0065;
},
{
glyphname = eogonek;
lastChange = "2018-05-24 13:54:47 +0000";
layers = (
{
components = (
{
name = e;
}
);
layerId = "DD6F9F34-BC40-4E8F-B1D3-DF3B42A9710F";
paths = (
{
closed = 1;
nodes = (
"469 -105 OFFCURVE",
"604 -9 OFFCURVE",
"674 14 CURVE",
"778 29 LINE",
"695 -11 OFFCURVE",
"617 -116 OFFCURVE",
"617 -198 CURVE SMOOTH",
"617 -381 OFFCURVE",
"816 -346 OFFCURVE",
"864 -349 CURVE SMOOTH",
"881 -350 OFFCURVE",
"885 -367 OFFCURVE",
"880 -393 CURVE SMOOTH",
"877 -408 OFFCURVE",
"865 -418 OFFCURVE",
"850 -422 CURVE SMOOTH",
"793 -438 OFFCURVE",
"740 -448 OFFCURVE",
"689 -448 CURVE SMOOTH",
"562 -448 OFFCURVE",
"469 -345 OFFCURVE",
"469 -238 CURVE SMOOTH"
);
}
);
width = 990;
},
{
layerId = "62CA62AF-CD91-478A-AB8B-28A62CC47DA0";
paths = (
{
closed = 1;
nodes = (
"72 176 OFFCURVE",
"240 -19 OFFCURVE",
"615 -28 CURVE",
"518 -86 OFFCURVE",
"432 -171 OFFCURVE",
"432 -273 CURVE SMOOTH {name = hr02;}",
"432 -365 OFFCURVE",
"510 -452 OFFCURVE",
"662 -452 CURVE SMOOTH",
"737 -452 OFFCURVE",
"834 -437 OFFCURVE",
"918 -394 CURVE",
"932 -383 OFFCURVE",
"905 -298 OFFCURVE",
"895 -304 CURVE",
"869 -315 OFFCURVE",
"823 -330 OFFCURVE",
"780 -330 CURVE SMOOTH",
"723 -330 OFFCURVE",
"670 -313 OFFCURVE",
"670 -228 CURVE SMOOTH",
"670 -161 OFFCURVE",
"730 -52 OFFCURVE",
"882 15 CURVE SMOOTH",
"963 50 OFFCURVE",
"1022 105 OFFCURVE",
"1059 173 CURVE SMOOTH",
"1067 188 OFFCURVE",
"1068 196 OFFCURVE",
"1055 202 CURVE SMOOTH",
"1011 223 LINE",
"998 226 OFFCURVE",
"991 215 OFFCURVE",
"985 208 CURVE SMOOTH",
"923 131 OFFCURVE",
"841 105 OFFCURVE",
"721 105 CURVE SMOOTH",
"581 105 OFFCURVE",
"412 200 OFFCURVE",
"412 508 CURVE {name = hr03;}",
"412 509 LINE",
"1106 509 LINE",
"1106 564 OFFCURVE",
"1105 626 OFFCURVE",
"1097 674 CURVE SMOOTH",
"1061 885 OFFCURVE",
"938 1014 OFFCURVE",
"629 1014 CURVE SMOOTH",
"332 1014 OFFCURVE",
"72 836 OFFCURVE",
"72 502 CURVE SMOOTH {name = hr01;}"
);
},
{
closed = 1;
nodes = (
"434 838 OFFCURVE",
"527 929 OFFCURVE",
"626 929 CURVE SMOOTH",
"728 929 OFFCURVE",
"773 833 OFFCURVE",
"773 601 CURVE",
"415 601 LINE"
);
}
);
width = 1171;
}
);
leftKerningGroup = o;
rightKerningGroup = e;
unicode = 0119;
},
{
color = 4;
glyphname = f;
lastChange = "2018-07-10 06:06:16 +0000";
layers = (
{
anchors = (
{
name = btm;
position = "{429, -200}";
},
{
name = top;
position = "{263, 2271}";
}
);
layerId = "DD6F9F34-BC40-4E8F-B1D3-DF3B42A9710F";
paths = (
{
closed = 1;
nodes = (
"569 0 LINE SMOOTH",
"592 0 OFFCURVE",
"603 26 OFFCURVE",
"603 41 CURVE SMOOTH",
"603 71 OFFCURVE",
"595 75 OFFCURVE",
"567 78 CURVE SMOOTH",
"502 83 OFFCURVE",
"405 89 OFFCURVE",
"405 175 CURVE SMOOTH",
"405 907 LINE",
"615 907 LINE",
"629 913 OFFCURVE",
"639 935 OFFCURVE",
"639 960 CURVE SMOOTH",
"639 976 OFFCURVE",
"631 993 OFFCURVE",
"615 994 CURVE",
"405 994 LINE",
"405 1107 LINE SMOOTH",
"405 1421 OFFCURVE",
"480 1463 OFFCURVE",
"554 1475 CURVE",
"663 1312 LINE",
"665 1310 OFFCURVE",
"669 1309 OFFCURVE",
"674 1309 CURVE SMOOTH",
"709 1308 OFFCURVE",
"801 1362 OFFCURVE",
"792 1441 CURVE SMOOTH",
"784 1509 OFFCURVE",
"718 1573 OFFCURVE",
"590 1573 CURVE SMOOTH",
"348 1573 OFFCURVE",
"219 1330 OFFCURVE",
"219 1075 CURVE SMOOTH",
"218 994 LINE",
"96 984 LINE",
"82 978 OFFCURVE",
"72 966 OFFCURVE",
"72 941 CURVE SMOOTH",
"72 925 OFFCURVE",
"80 908 OFFCURVE",
"96 907 CURVE",
"219 907 LINE",
"219 142 LINE SMOOTH",
"219 98 OFFCURVE",
"152 83 OFFCURVE",
"103 78 CURVE SMOOTH",
"77 75 OFFCURVE",
"70 62 OFFCURVE",
"70 41 CURVE SMOOTH",
"70 26 OFFCURVE",
"81 0 OFFCURVE",
"104 0 CURVE SMOOTH"
);
}
);
width = 666;
},
{
anchors = (
{
name = btm;
position = "{422, -200}";
},
{
name = top;
position = "{206, 2322}";
}
);
layerId = "62CA62AF-CD91-478A-AB8B-28A62CC47DA0";
paths = (
{
closed = 1;
nodes = (
"688 0 LINE SMOOTH",
"711 0 OFFCURVE",
"722 26 OFFCURVE",
"722 41 CURVE SMOOTH",
"722 71 OFFCURVE",
"714 75 OFFCURVE",
"686 78 CURVE",
"621 82 OFFCURVE",
"524 88 OFFCURVE",
"524 165 CURVE SMOOTH",
"524 887 LINE",
"756 887 LINE",
"770 893 OFFCURVE",
"780 935 OFFCURVE",
"780 960 CURVE SMOOTH",
"780 976 OFFCURVE",
"772 993 OFFCURVE",
"756 994 CURVE",
"524 994 LINE",
"524 1107 LINE SMOOTH",
"524 1396 OFFCURVE",
"561 1449 OFFCURVE",
"614 1449 CURVE",
"762 1278 LINE",
"762 1276 OFFCURVE",
"773 1275 OFFCURVE",
"773 1275 CURVE",
"838 1274 OFFCURVE",
"891 1334 OFFCURVE",
"891 1416 CURVE SMOOTH",
"891 1494 OFFCURVE",
"825 1563 OFFCURVE",
"642 1563 CURVE SMOOTH",
"348 1563 OFFCURVE",
"208 1331 OFFCURVE",
"208 1076 CURVE SMOOTH",
"208 994 LINE",
"55 977 LINE",
"41 971 OFFCURVE",
"30 956 OFFCURVE",
"30 931 CURVE SMOOTH",
"30 915 OFFCURVE",
"38 888 OFFCURVE",
"54 887 CURVE",
"208 887 LINE",
"208 132 LINE SMOOTH",
"208 95 OFFCURVE",
"141 82 OFFCURVE",
"92 78 CURVE",
"66 75 OFFCURVE",
"59 62 OFFCURVE",
"59 41 CURVE SMOOTH {name = hr00;}",
"59 26 OFFCURVE",
"70 0 OFFCURVE",
"93 0 CURVE SMOOTH"
);
}
);
width = 805;
}
);
leftKerningGroup = f;
rightKerningGroup = f;
unicode = 0066;
},
{
color = 4;
glyphname = g;
lastChange = "2018-07-10 06:07:09 +0000";
layers = (
{
anchors = (
{
name = btm;
position = "{570, -200}";
},
{
name = top;
position = "{509, 2000}";
}
);
layerId = "DD6F9F34-BC40-4E8F-B1D3-DF3B42A9710F";
paths = (
{
closed = 1;
nodes = (
"765 -451 OFFCURVE",
"948 -275 OFFCURVE",
"949 -108 CURVE SMOOTH",
"951 123 OFFCURVE",
"832 194 OFFCURVE",
"620 194 CURVE SMOOTH",
"359 194 LINE SMOOTH",
"279 194 OFFCURVE",
"221 230 OFFCURVE",
"221 300 CURVE SMOOTH",
"221 338 OFFCURVE",
"249 382 OFFCURVE",
"287 408 CURVE",
"338 383 OFFCURVE",
"399 369 OFFCURVE",
"469 369 CURVE SMOOTH",
"695 369 OFFCURVE",
"831 517 OFFCURVE",
"831 694 CURVE SMOOTH",
"831 763 OFFCURVE",
"812 826 OFFCURVE",
"775 878 CURVE",
"826 937 OFFCURVE",
"828 918 OFFCURVE",
"852 935 CURVE",
"925 790 OFFCURVE",
"924 776 OFFCURVE",
"957 776 CURVE SMOOTH",
"1006 776 OFFCURVE",
"1059 840 OFFCURVE",
"1019 942 CURVE SMOOTH",
"1003 984 OFFCURVE",
"971 1022 OFFCURVE",
"897 1022 CURVE SMOOTH",
"827 1022 OFFCURVE",
"769 982 OFFCURVE",
"734 924 CURVE",
"673 980 OFFCURVE",
"586 1014 OFFCURVE",
"475 1014 CURVE SMOOTH",
"249 1014 OFFCURVE",
"112 872 OFFCURVE",
"112 694 CURVE SMOOTH",
"112 597 OFFCURVE",
"151 510 OFFCURVE",
"223 450 CURVE",
"161 418 OFFCURVE",
"80 350 OFFCURVE",
"80 243 CURVE SMOOTH",
"80 163 OFFCURVE",
"113 94 OFFCURVE",
"176 51 CURVE",
"117 21 OFFCURVE",
"41 -26 OFFCURVE",
"41 -145 CURVE SMOOTH",
"41 -316 OFFCURVE",
"201 -451 OFFCURVE",
"467 -451 CURVE SMOOTH"
);
},
{
closed = 1;
nodes = (
"343 -355 OFFCURVE",
"223 -288 OFFCURVE",
"223 -126 CURVE SMOOTH",
"223 -52 OFFCURVE",
"236 -9 OFFCURVE",
"244 18 CURVE",
"274 8 OFFCURVE",
"307 2 OFFCURVE",
"344 1 CURVE SMOOTH",
"611 1 LINE SMOOTH",
"723 1 OFFCURVE",
"818 -33 OFFCURVE",
"818 -139 CURVE SMOOTH",
"818 -313 OFFCURVE",
"593 -355 OFFCURVE",
"487 -355 CURVE SMOOTH"
);
},
{
closed = 1;
nodes = (
"334 464 OFFCURVE",
"295 569 OFFCURVE",
"295 694 CURVE SMOOTH",
"295 820 OFFCURVE",
"332 918 OFFCURVE",
"469 918 CURVE SMOOTH",
"605 918 OFFCURVE",
"646 820 OFFCURVE",
"646 694 CURVE SMOOTH",
"646 569 OFFCURVE",
"609 464 OFFCURVE",
"473 464 CURVE SMOOTH"
);
}
);
width = 1043;
},
{
anchors = (
{
name = btm;
position = "{625, -200}";
},
{
name = top;
position = "{554, 2000}";
}
);
layerId = "62CA62AF-CD91-478A-AB8B-28A62CC47DA0";
paths = (
{
closed = 1;
nodes = (
"961 -448 OFFCURVE",
"1144 -281 OFFCURVE",
"1146 -114 CURVE SMOOTH",
"1148 93 OFFCURVE",
"1056 158 OFFCURVE",
"806 182 CURVE SMOOTH",
"491 212 LINE SMOOTH",
"393 221 OFFCURVE",
"323 234 OFFCURVE",
"323 288 CURVE SMOOTH {name = hr02;}",
"323 324 OFFCURVE",
"344 362 OFFCURVE",
"374 387 CURVE",
"424 375 OFFCURVE",
"482 369 OFFCURVE",
"549 369 CURVE SMOOTH",
"868 369 OFFCURVE",
"985 507 OFFCURVE",
"985 694 CURVE SMOOTH",
"985 766 OFFCURVE",
"967 830 OFFCURVE",
"928 881 CURVE",
"956 894 OFFCURVE",
"988 900 OFFCURVE",
"997 896 CURVE",
"1080 811 OFFCURVE",
"1101 785 OFFCURVE",
"1136 785 CURVE SMOOTH",
"1177 785 OFFCURVE",
"1221 817 OFFCURVE",
"1221 890 CURVE SMOOTH",
"1221 969 OFFCURVE",
"1156 1014 OFFCURVE",
"1095 1014 CURVE SMOOTH",
"994 1014 OFFCURVE",
"919 973 OFFCURVE",
"875 933 CURVE",
"806 984 OFFCURVE",
"700 1014 OFFCURVE",
"549 1014 CURVE SMOOTH",
"238 1014 OFFCURVE",
"106 882 OFFCURVE",
"106 694 CURVE SMOOTH {name = hr03;}",
"106 578 OFFCURVE",
"156 481 OFFCURVE",
"268 424 CURVE",
"202 393 OFFCURVE",
"112 322 OFFCURVE",
"112 223 CURVE SMOOTH {name = hr04;}",
"112 136 OFFCURVE",
"130 78 OFFCURVE",
"203 42 CURVE",
"124 8 OFFCURVE",
"58 -54 OFFCURVE",
"58 -164 CURVE SMOOTH {name = hr01;}",
"58 -335 OFFCURVE",
"218 -448 OFFCURVE",
"569 -448 CURVE SMOOTH"
);
},
{
closed = 1;
nodes = (
"447 -352 OFFCURVE",
"330 -317 OFFCURVE",
"330 -155 CURVE SMOOTH",
"330 -82 OFFCURVE",
"346 -31 OFFCURVE",
"359 3 CURVE {name = hr07;}",
"364 2 OFFCURVE",
"370 1 OFFCURVE",
"376 1 CURVE",
"654 -29 LINE SMOOTH",
"790 -44 OFFCURVE",
"870 -69 OFFCURVE",
"870 -139 CURVE SMOOTH",
"870 -313 OFFCURVE",
"705 -352 OFFCURVE",
"579 -352 CURVE SMOOTH"
);
},
{
closed = 1;
nodes = (
"438 454 OFFCURVE",
"404 565 OFFCURVE",
"404 690 CURVE SMOOTH",
"404 816 OFFCURVE",
"439 928 OFFCURVE",
"549 928 CURVE SMOOTH",
"659 928 OFFCURVE",
"705 824 OFFCURVE",
"705 698 CURVE SMOOTH",
"705 573 OFFCURVE",
"659 454 OFFCURVE",
"549 454 CURVE SMOOTH {name = hr06;}"
);
}
);
width = 1182;
}
);
leftKerningGroup = o;
rightKerningGroup = g;
unicode = 0067;
},
{
color = 4;
glyphname = h;
lastChange = "2018-05-24 16:58:49 +0000";
layers = (
{
anchors = (
{
name = btm;
position = "{593, -200}";
},
{
name = top;
position = "{720, 2000}";
}
);
layerId = "DD6F9F34-BC40-4E8F-B1D3-DF3B42A9710F";
paths = (
{
closed = 1;
nodes = (
"499 0 LINE SMOOTH",
"521 0 OFFCURVE",
"533 26 OFFCURVE",
"533 41 CURVE SMOOTH",
"533 71 OFFCURVE",
"525 75 OFFCURVE",
"497 78 CURVE SMOOTH",
"448 83 OFFCURVE",
"385 89 OFFCURVE",
"385 175 CURVE SMOOTH",
"385 771 LINE",
"440 822 OFFCURVE",
"558 896 OFFCURVE",
"683 896 CURVE SMOOTH",
"801 896 OFFCURVE",
"812 829 OFFCURVE",
"812 795 CURVE SMOOTH",
"812 142 LINE SMOOTH",
"812 104 OFFCURVE",
"748 82 OFFCURVE",
"706 78 CURVE SMOOTH",
"680 75 OFFCURVE",
"675 62 OFFCURVE",
"675 41 CURVE SMOOTH",
"675 26 OFFCURVE",
"686 0 OFFCURVE",
"709 0 CURVE SMOOTH",
"1136 0 LINE SMOOTH",
"1159 0 OFFCURVE",
"1170 26 OFFCURVE",
"1170 41 CURVE SMOOTH",
"1170 70 OFFCURVE",
"1159 75 OFFCURVE",
"1137 78 CURVE SMOOTH",
"1087 85 OFFCURVE",
"1000 79 OFFCURVE",
"1000 175 CURVE SMOOTH",
"1000 766 LINE SMOOTH",
"1000 974 OFFCURVE",
"869 1014 OFFCURVE",
"724 1014 CURVE SMOOTH",
"561 1014 OFFCURVE",
"410 880 OFFCURVE",
"375 845 CURVE",
"385 1104 LINE",
"385 1518 LINE",
"382 1550 OFFCURVE",
"366 1558 OFFCURVE",
"355 1558 CURVE SMOOTH",
"298 1557 OFFCURVE",
"183 1556 OFFCURVE",
"50 1548 CURVE SMOOTH",
"34 1547 OFFCURVE",
"26 1520 OFFCURVE",
"26 1504 CURVE SMOOTH",
"26 1479 OFFCURVE",
"36 1470 OFFCURVE",
"50 1464 CURVE",
"104 1450 OFFCURVE",
"199 1463 OFFCURVE",
"199 1339 CURVE SMOOTH",
"199 142 LINE SMOOTH",
"199 98 OFFCURVE",
"132 83 OFFCURVE",
"83 78 CURVE SMOOTH",
"57 75 OFFCURVE",
"50 62 OFFCURVE",
"50 41 CURVE SMOOTH",
"50 26 OFFCURVE",
"61 0 OFFCURVE",
"84 0 CURVE SMOOTH"
);
}
);
width = 1192;
},
{
anchors = (
{
name = btm;
position = "{685, -200}";
},
{
name = top;
position = "{685, 2000}";
}
);
layerId = "62CA62AF-CD91-478A-AB8B-28A62CC47DA0";
paths = (
{
closed = 1;
nodes = (
"617 0 LINE SMOOTH",
"639 0 OFFCURVE",
"651 26 OFFCURVE",
"651 41 CURVE SMOOTH",
"651 71 OFFCURVE",
"643 75 OFFCURVE",
"615 78 CURVE SMOOTH",
"566 82 OFFCURVE",
"503 88 OFFCURVE",
"503 165 CURVE SMOOTH",
"503 727 LINE",
"550 778 OFFCURVE",
"675 852 OFFCURVE",
"783 852 CURVE SMOOTH",
"902 852 OFFCURVE",
"902 764 OFFCURVE",
"902 721 CURVE SMOOTH",
"902 132 LINE SMOOTH",
"902 100 OFFCURVE",
"838 81 OFFCURVE",
"796 78 CURVE",
"769 75 OFFCURVE",
"765 62 OFFCURVE",
"765 41 CURVE SMOOTH",
"765 26 OFFCURVE",
"776 0 OFFCURVE",
"799 0 CURVE SMOOTH",
"1346 0 LINE SMOOTH",
"1369 0 OFFCURVE",
"1380 26 OFFCURVE",
"1380 41 CURVE SMOOTH",
"1380 70 OFFCURVE",
"1369 75 OFFCURVE",
"1347 78 CURVE SMOOTH",
"1297 84 OFFCURVE",
"1210 79 OFFCURVE",
"1210 165 CURVE SMOOTH",
"1210 736 LINE SMOOTH",
"1210 968 OFFCURVE",
"1069 1014 OFFCURVE",
"919 1014 CURVE SMOOTH",
"726 1014 OFFCURVE",
"534 890 OFFCURVE",
"493 845 CURVE",
"503 992 LINE",
"503 1508 LINE",
"500 1540 OFFCURVE",
"484 1548 OFFCURVE",
"473 1548 CURVE SMOOTH",
"392 1547 OFFCURVE",
"228 1542 OFFCURVE",
"38 1534 CURVE SMOOTH",
"22 1533 OFFCURVE",
"14 1506 OFFCURVE",
"14 1490 CURVE SMOOTH",
"14 1465 OFFCURVE",
"24 1456 OFFCURVE",
"38 1450 CURVE",
"92 1436 OFFCURVE",
"187 1453 OFFCURVE",
"187 1329 CURVE SMOOTH",
"187 132 LINE SMOOTH",
"187 95 OFFCURVE",
"120 82 OFFCURVE",
"71 78 CURVE",
"45 75 OFFCURVE",
"38 62 OFFCURVE",
"38 41 CURVE SMOOTH {name = hr00;}",
"38 26 OFFCURVE",
"49 0 OFFCURVE",
"72 0 CURVE SMOOTH"
);
}
);
width = 1393;
}
);
leftKerningGroup = h;
rightKerningGroup = n;
unicode = 0068;
userData = {
com.typemytype.robofont.mark = (
0.967,
0.6,
1,
1
);
};
},
{
glyphname = hbar;
lastChange = "2018-05-24 13:54:47 +0000";
layers = (
{
layerId = "DD6F9F34-BC40-4E8F-B1D3-DF3B42A9710F";
paths = (
{
closed = 1;
nodes = (
"287 102 LINE",
"385 165 LINE",
"385 1518 LINE",
"199 1349 LINE",
"199 132 LINE"
);
},
{
closed = 1;
nodes = (
"298 1557 OFFCURVE",
"183 1556 OFFCURVE",
"50 1548 CURVE SMOOTH",
"34 1547 OFFCURVE",
"26 1530 OFFCURVE",
"26 1514 CURVE SMOOTH",
"26 1489 OFFCURVE",
"36 1480 OFFCURVE",
"50 1474 CURVE",
"104 1460 OFFCURVE",
"199 1473 OFFCURVE",
"199 1349 CURVE SMOOTH",
"199 1348 OFFCURVE",
"199 1347 OFFCURVE",
"200 1347 CURVE SMOOTH",
"221 1347 OFFCURVE",
"385 1490 OFFCURVE",
"385 1518 CURVE",
"382 1550 OFFCURVE",
"366 1558 OFFCURVE",
"355 1558 CURVE SMOOTH"
);
},
{
closed = 1;
nodes = (
"521 0 OFFCURVE",
"533 16 OFFCURVE",
"533 31 CURVE SMOOTH",
"533 61 OFFCURVE",
"525 65 OFFCURVE",
"497 68 CURVE SMOOTH",
"448 73 OFFCURVE",
"385 79 OFFCURVE",
"385 165 CURVE",
"199 132 LINE",
"199 88 OFFCURVE",
"142 73 OFFCURVE",
"93 68 CURVE SMOOTH",
"67 65 OFFCURVE",
"60 52 OFFCURVE",
"60 31 CURVE SMOOTH",
"60 16 OFFCURVE",
"71 0 OFFCURVE",
"94 0 CURVE SMOOTH",
"499 0 LINE SMOOTH"
);
},
{
closed = 1;
nodes = (
"440 822 OFFCURVE",
"558 896 OFFCURVE",
"683 896 CURVE SMOOTH",
"801 896 OFFCURVE",
"812 829 OFFCURVE",
"812 795 CURVE SMOOTH",
"812 710 OFFCURVE",
"812 132 OFFCURVE",
"812 132 CURVE",
"900 110 LINE",
"1000 165 LINE",
"1000 165 OFFCURVE",
"1000 685 OFFCURVE",
"1000 766 CURVE SMOOTH",
"1000 974 OFFCURVE",
"869 1013 OFFCURVE",
"724 1013 CURVE SMOOTH",
"561 1013 OFFCURVE",
"420 890 OFFCURVE",
"385 855 CURVE",
"370 804 LINE",
"385 771 LINE"
);
},
{
closed = 1;
nodes = (
"1149 0 OFFCURVE",
"1160 16 OFFCURVE",
"1160 31 CURVE SMOOTH",
"1160 60 OFFCURVE",
"1149 65 OFFCURVE",
"1127 68 CURVE SMOOTH",
"1077 75 OFFCURVE",
"1000 69 OFFCURVE",
"1000 165 CURVE",
"812 132 LINE",
"812 94 OFFCURVE",
"748 72 OFFCURVE",
"706 68 CURVE SMOOTH",
"680 65 OFFCURVE",
"675 52 OFFCURVE",
"675 31 CURVE SMOOTH",
"675 16 OFFCURVE",
"686 0 OFFCURVE",
"709 0 CURVE SMOOTH",
"1126 0 LINE SMOOTH"
);
},
{
closed = 1;
nodes = (
"676 1190 LINE",
"676 1276 LINE",
"22 1276 LINE",
"22 1190 LINE"
);
}
);
width = 1192;
},
{
layerId = "62CA62AF-CD91-478A-AB8B-28A62CC47DA0";
paths = (
{
closed = 1;
nodes = (
"37 26 OFFCURVE",
"48 0 OFFCURVE",
"71 0 CURVE SMOOTH",
"616 0 LINE SMOOTH",
"638 0 OFFCURVE",
"650 26 OFFCURVE",
"650 41 CURVE SMOOTH",
"650 71 OFFCURVE",
"642 75 OFFCURVE",
"614 78 CURVE SMOOTH",
"565 82 OFFCURVE",
"502 88 OFFCURVE",
"502 165 CURVE SMOOTH",
"502 727 LINE",
"549 778 OFFCURVE",
"674 852 OFFCURVE",
"782 852 CURVE SMOOTH",
"901 852 OFFCURVE",
"901 764 OFFCURVE",
"901 721 CURVE SMOOTH",
"901 132 LINE SMOOTH",
"901 100 OFFCURVE",
"837 81 OFFCURVE",
"795 78 CURVE",
"768 75 OFFCURVE",
"764 62 OFFCURVE",
"764 41 CURVE SMOOTH",
"764 26 OFFCURVE",
"775 0 OFFCURVE",
"798 0 CURVE SMOOTH",
"1345 0 LINE SMOOTH",
"1368 0 OFFCURVE",
"1379 26 OFFCURVE",
"1379 41 CURVE SMOOTH",
"1379 70 OFFCURVE",
"1368 75 OFFCURVE",
"1346 78 CURVE SMOOTH",
"1296 84 OFFCURVE",
"1209 79 OFFCURVE",
"1209 165 CURVE SMOOTH",
"1209 736 LINE SMOOTH",
"1209 968 OFFCURVE",
"1068 1014 OFFCURVE",
"918 1014 CURVE SMOOTH",
"725 1014 OFFCURVE",
"533 890 OFFCURVE",
"492 845 CURVE",
"502 992 LINE",
"502 1191 LINE",
"815 1191 LINE",
"829 1197 OFFCURVE",
"839 1219 OFFCURVE",
"839 1244 CURVE SMOOTH",
"839 1260 OFFCURVE",
"831 1287 OFFCURVE",
"815 1288 CURVE",
"502 1288 LINE",
"502 1508 LINE",
"499 1540 OFFCURVE",
"483 1548 OFFCURVE",
"472 1548 CURVE SMOOTH",
"391 1547 OFFCURVE",
"227 1542 OFFCURVE",
"37 1534 CURVE SMOOTH",
"21 1533 OFFCURVE",
"13 1506 OFFCURVE",
"13 1490 CURVE SMOOTH",
"13 1465 OFFCURVE",
"23 1456 OFFCURVE",
"37 1450 CURVE",
"91 1436 OFFCURVE",
"186 1453 OFFCURVE",
"186 1329 CURVE SMOOTH",
"186 1288 LINE",
"46 1288 LINE",
"32 1282 OFFCURVE",
"22 1250 OFFCURVE",
"22 1225 CURVE SMOOTH",
"22 1209 OFFCURVE",
"30 1192 OFFCURVE",
"46 1191 CURVE",
"186 1191 LINE",
"186 132 LINE SMOOTH",
"186 95 OFFCURVE",
"119 82 OFFCURVE",
"70 78 CURVE",
"44 75 OFFCURVE",
"37 62 OFFCURVE",
"37 41 CURVE SMOOTH {name = hr00;}"
);
}
);
width = 1393;
}
);
leftKerningGroup = h;
rightKerningGroup = n;
unicode = 0127;
},
{
color = 4;
glyphname = idotless;
lastChange = "2018-05-24 16:54:20 +0000";
layers = (
{
anchors = (
{
name = btm;
position = "{297, -200}";
},
{
name = top;
position = "{297, 2000}";
}
);
layerId = "DD6F9F34-BC40-4E8F-B1D3-DF3B42A9710F";
paths = (
{
closed = 1;
nodes = (
"527 0 LINE SMOOTH",
"549 0 OFFCURVE",
"561 26 OFFCURVE",
"561 41 CURVE SMOOTH",
"561 71 OFFCURVE",
"553 75 OFFCURVE",
"525 78 CURVE SMOOTH",
"476 83 OFFCURVE",
"403 89 OFFCURVE",
"403 175 CURVE SMOOTH",
"403 957 LINE",
"400 989 OFFCURVE",
"384 997 OFFCURVE",
"373 997 CURVE SMOOTH",
"316 996 OFFCURVE",
"201 995 OFFCURVE",
"68 987 CURVE SMOOTH",
"52 986 OFFCURVE",
"44 959 OFFCURVE",
"44 943 CURVE SMOOTH",
"44 918 OFFCURVE",
"54 909 OFFCURVE",
"68 903 CURVE",
"122 889 OFFCURVE",
"217 902 OFFCURVE",
"217 778 CURVE SMOOTH",
"216 142 LINE SMOOTH",
"216 98 OFFCURVE",
"150 83 OFFCURVE",
"101 78 CURVE SMOOTH",
"75 75 OFFCURVE",
"68 62 OFFCURVE",
"68 41 CURVE SMOOTH",
"68 26 OFFCURVE",
"79 0 OFFCURVE",
"102 0 CURVE SMOOTH"
);
}
);
width = 600;
},
{
anchors = (
{
name = btm;
position = "{356, -200}";
},
{
name = top;
position = "{351, 2000}";
}
);
layerId = "62CA62AF-CD91-478A-AB8B-28A62CC47DA0";
paths = (
{
closed = 1;
nodes = (
"657 0 LINE SMOOTH",
"679 0 OFFCURVE",
"691 26 OFFCURVE",
"691 41 CURVE SMOOTH",
"691 71 OFFCURVE",
"683 75 OFFCURVE",
"655 78 CURVE SMOOTH",
"606 82 OFFCURVE",
"533 88 OFFCURVE",
"533 165 CURVE SMOOTH",
"533 957 LINE SMOOTH",
"533 989 OFFCURVE",
"514 997 OFFCURVE",
"503 997 CURVE SMOOTH",
"422 996 OFFCURVE",
"258 991 OFFCURVE",
"68 983 CURVE SMOOTH",
"52 982 OFFCURVE",
"44 955 OFFCURVE",
"44 939 CURVE SMOOTH",
"44 914 OFFCURVE",
"54 905 OFFCURVE",
"68 899 CURVE",
"122 885 OFFCURVE",
"217 902 OFFCURVE",
"217 778 CURVE SMOOTH",
"216 132 LINE SMOOTH",
"216 95 OFFCURVE",
"150 82 OFFCURVE",
"101 78 CURVE SMOOTH",
"75 75 OFFCURVE",
"68 62 OFFCURVE",
"68 41 CURVE SMOOTH {name = hr00;}",
"68 26 OFFCURVE",
"79 0 OFFCURVE",
"102 0 CURVE SMOOTH"
);
}
);
width = 725;
}
);
leftKerningGroup = idotless;
rightKerningGroup = idotless;
unicode = 0131;
},
{
glyphname = idieresis;
lastChange = "2018-05-24 13:54:47 +0000";
layers = (
{
components = (
{
name = idotless;
},
{
name = dieresis;
transform = "{1, 0, 0, 1, -217, 0}";
}
);
layerId = "DD6F9F34-BC40-4E8F-B1D3-DF3B42A9710F";
width = 600;
},
{
components = (
{
name = idotless;
}
);
layerId = "62CA62AF-CD91-478A-AB8B-28A62CC47DA0";
paths = (
{
closed = 1;
nodes = (
"673 1180 OFFCURVE",
"740 1263 OFFCURVE",
"740 1363 CURVE SMOOTH",
"740 1464 OFFCURVE",
"673 1547 OFFCURVE",
"571 1547 CURVE SMOOTH",
"468 1547 OFFCURVE",
"403 1464 OFFCURVE",
"403 1363 CURVE SMOOTH",
"403 1263 OFFCURVE",
"468 1180 OFFCURVE",
"571 1180 CURVE SMOOTH {name = hr00;}"
);
},
{
closed = 1;
nodes = (
"236 1180 OFFCURVE",
"303 1263 OFFCURVE",
"303 1363 CURVE SMOOTH",
"303 1464 OFFCURVE",
"236 1547 OFFCURVE",
"134 1547 CURVE SMOOTH",
"31 1547 OFFCURVE",
"-34 1464 OFFCURVE",
"-34 1363 CURVE SMOOTH",
"-34 1263 OFFCURVE",
"31 1180 OFFCURVE",
"134 1180 CURVE SMOOTH"
);
}
);
width = 725;
}
);
unicode = 00EF;
},
{
glyphname = iogonek;
lastChange = "2018-05-24 13:54:47 +0000";
layers = (
{
components = (
{
name = i;
}
);
layerId = "DD6F9F34-BC40-4E8F-B1D3-DF3B42A9710F";
paths = (
{
closed = 1;
nodes = (
"122 -95 OFFCURVE",
"240 19 OFFCURVE",
"359 37 CURVE",
"359 37 OFFCURVE",
"427 0 OFFCURVE",
"427 0 CURVE",
"313 -14 OFFCURVE",
"270 -106 OFFCURVE",
"270 -198 CURVE SMOOTH",
"270 -381 OFFCURVE",
"469 -346 OFFCURVE",
"517 -349 CURVE SMOOTH",
"534 -350 OFFCURVE",
"538 -367 OFFCURVE",
"533 -393 CURVE SMOOTH",
"530 -408 OFFCURVE",
"518 -418 OFFCURVE",
"503 -422 CURVE SMOOTH",
"446 -438 OFFCURVE",
"393 -448 OFFCURVE",
"342 -448 CURVE SMOOTH",
"215 -448 OFFCURVE",
"122 -345 OFFCURVE",
"122 -238 CURVE SMOOTH"
);
}
);
width = 600;
},
{
layerId = "62CA62AF-CD91-478A-AB8B-28A62CC47DA0";
paths = (
{
closed = 1;
nodes = (
"485 1180 OFFCURVE",
"560 1263 OFFCURVE",
"560 1363 CURVE SMOOTH",
"560 1464 OFFCURVE",
"485 1547 OFFCURVE",
"371 1547 CURVE SMOOTH",
"256 1547 OFFCURVE",
"183 1464 OFFCURVE",
"183 1363 CURVE SMOOTH",
"183 1263 OFFCURVE",
"256 1180 OFFCURVE",
"371 1180 CURVE SMOOTH {name = hr01;}"
);
},
{
closed = 1;
nodes = (
"68 26 OFFCURVE",
"79 0 OFFCURVE",
"102 0 CURVE SMOOTH",
"327 0 LINE",
"203 -53 OFFCURVE",
"68 -143 OFFCURVE",
"68 -273 CURVE SMOOTH {name = hr02;}",
"68 -365 OFFCURVE",
"146 -452 OFFCURVE",
"298 -452 CURVE SMOOTH",
"373 -452 OFFCURVE",
"470 -437 OFFCURVE",
"554 -394 CURVE",
"568 -383 OFFCURVE",
"541 -298 OFFCURVE",
"531 -304 CURVE",
"505 -315 OFFCURVE",
"459 -330 OFFCURVE",
"416 -330 CURVE SMOOTH",
"359 -330 OFFCURVE",
"306 -313 OFFCURVE",
"306 -228 CURVE SMOOTH",
"306 -162 OFFCURVE",
"361 -67 OFFCURVE",
"508 0 CURVE",
"657 0 LINE SMOOTH",
"679 0 OFFCURVE",
"691 26 OFFCURVE",
"691 41 CURVE SMOOTH",
"691 71 OFFCURVE",
"683 75 OFFCURVE",
"655 78 CURVE SMOOTH",
"606 82 OFFCURVE",
"533 88 OFFCURVE",
"533 165 CURVE SMOOTH {name = hr03;}",
"533 957 LINE SMOOTH",
"533 989 OFFCURVE",
"514 997 OFFCURVE",
"503 997 CURVE SMOOTH",
"422 996 OFFCURVE",
"258 991 OFFCURVE",
"68 983 CURVE SMOOTH",
"52 982 OFFCURVE",
"44 955 OFFCURVE",
"44 939 CURVE SMOOTH",
"44 914 OFFCURVE",
"54 905 OFFCURVE",
"68 899 CURVE",
"122 885 OFFCURVE",
"217 902 OFFCURVE",
"217 778 CURVE SMOOTH",
"216 132 LINE SMOOTH",
"216 95 OFFCURVE",
"150 82 OFFCURVE",
"101 78 CURVE",
"75 75 OFFCURVE",
"68 62 OFFCURVE",
"68 41 CURVE SMOOTH"
);
}
);
width = 725;
}
);
leftKerningGroup = i;
rightKerningGroup = i;
unicode = 012F;
},
{
glyphname = jdotless;
lastChange = "2018-05-24 17:01:09 +0000";
layers = (
{
anchors = (
{
name = btm;
position = "{168, -200}";
},
{
name = top;
position = "{340, 2000}";
}
);
layerId = "DD6F9F34-BC40-4E8F-B1D3-DF3B42A9710F";
paths = (
{
closed = 1;
nodes = (
"308 -449 OFFCURVE",
"431 -187 OFFCURVE",
"431 88 CURVE SMOOTH",
"432 957 LINE",
"429 989 OFFCURVE",
"413 997 OFFCURVE",
"402 997 CURVE SMOOTH",
"345 996 OFFCURVE",
"220 995 OFFCURVE",
"87 987 CURVE SMOOTH",
"71 986 OFFCURVE",
"63 959 OFFCURVE",
"63 943 CURVE SMOOTH",
"63 918 OFFCURVE",
"73 909 OFFCURVE",
"87 903 CURVE",
"141 889 OFFCURVE",
"246 902 OFFCURVE",
"246 778 CURVE SMOOTH",
"245 56 LINE SMOOTH",
"245 -306 OFFCURVE",
"182 -343 OFFCURVE",
"115 -347 CURVE",
"61 -247 OFFCURVE",
"59 -199 OFFCURVE",
"19 -199 CURVE SMOOTH",
"-19 -200 OFFCURVE",
"-96 -235 OFFCURVE",
"-96 -310 CURVE SMOOTH",
"-96 -379 OFFCURVE",
"-48 -449 OFFCURVE",
"80 -449 CURVE SMOOTH"
);
}
);
width = 598;
},
{
anchors = (
{
name = btm;
position = "{168, -200}";
},
{
name = top;
position = "{340, 2000}";
}
);
layerId = "62CA62AF-CD91-478A-AB8B-28A62CC47DA0";
paths = (
{
closed = 1;
nodes = (
"506 -449 OFFCURVE",
"564 -187 OFFCURVE",
"564 88 CURVE SMOOTH",
"565 957 LINE SMOOTH",
"565 989 OFFCURVE",
"546 997 OFFCURVE",
"535 997 CURVE SMOOTH",
"454 996 OFFCURVE",
"278 991 OFFCURVE",
"90 983 CURVE SMOOTH",
"74 982 OFFCURVE",
"66 955 OFFCURVE",
"66 939 CURVE SMOOTH",
"66 914 OFFCURVE",
"76 905 OFFCURVE",
"90 899 CURVE",
"144 885 OFFCURVE",
"249 902 OFFCURVE",
"249 778 CURVE SMOOTH",
"248 -57 LINE SMOOTH",
"248 -268 OFFCURVE",
"208 -347 OFFCURVE",
"158 -347 CURVE",
"38 -140 OFFCURVE",
"33 -116 OFFCURVE",
"-27 -116 CURVE SMOOTH {name = hr00;}",
"-96 -116 OFFCURVE",
"-155 -180 OFFCURVE",
"-155 -254 CURVE SMOOTH",
"-155 -336 OFFCURVE",
"-53 -449 OFFCURVE",
"120 -449 CURVE SMOOTH"
);
}
);
width = 600;
}
);
leftKerningGroup = j;
rightKerningGroup = j;
unicode = 0237;
},
{
color = 4;
glyphname = k;
lastChange = "2018-05-24 16:53:33 +0000";
layers = (
{
anchors = (
{
name = btm;
position = "{576, -200}";
},
{
name = top;
position = "{576, 2000}";
}
);
layerId = "DD6F9F34-BC40-4E8F-B1D3-DF3B42A9710F";
paths = (
{
closed = 1;
nodes = (
"499 0 LINE SMOOTH",
"521 0 OFFCURVE",
"533 26 OFFCURVE",
"533 41 CURVE SMOOTH",
"533 71 OFFCURVE",
"525 75 OFFCURVE",
"497 78 CURVE SMOOTH",
"448 83 OFFCURVE",
"385 89 OFFCURVE",
"385 175 CURVE SMOOTH",
"385 416 LINE",
"474 496 LINE",
"580 388 OFFCURVE",
"729 137 OFFCURVE",
"809 0 CURVE",
"1093 0 LINE SMOOTH",
"1116 0 OFFCURVE",
"1127 26 OFFCURVE",
"1127 41 CURVE SMOOTH",
"1127 70 OFFCURVE",
"1116 75 OFFCURVE",
"1094 78 CURVE SMOOTH",
"1044 85 OFFCURVE",
"992 116 OFFCURVE",
"941 175 CURVE SMOOTH",
"824 312 OFFCURVE",
"686 519 OFFCURVE",
"590 601 CURVE",
"833 819 LINE",
"883 858 OFFCURVE",
"955 906 OFFCURVE",
"1020 906 CURVE SMOOTH",
"1042 906 OFFCURVE",
"1053 925 OFFCURVE",
"1053 949 CURVE SMOOTH",
"1053 964 OFFCURVE",
"1042 994 OFFCURVE",
"1019 994 CURVE SMOOTH",
"612 994 LINE SMOOTH",
"589 994 OFFCURVE",
"578 964 OFFCURVE",
"578 949 CURVE SMOOTH",
"578 928 OFFCURVE",
"583 909 OFFCURVE",
"609 906 CURVE",
"671 902 OFFCURVE",
"793 885 OFFCURVE",
"735 842 CURVE",
"385 523 LINE",
"385 1518 LINE",
"382 1550 OFFCURVE",
"366 1558 OFFCURVE",
"355 1558 CURVE SMOOTH",
"298 1557 OFFCURVE",
"183 1556 OFFCURVE",
"50 1548 CURVE SMOOTH",
"34 1547 OFFCURVE",
"26 1520 OFFCURVE",
"26 1504 CURVE SMOOTH",
"26 1479 OFFCURVE",
"36 1470 OFFCURVE",
"50 1464 CURVE",
"104 1450 OFFCURVE",
"199 1463 OFFCURVE",
"199 1339 CURVE SMOOTH",
"199 142 LINE SMOOTH",
"199 98 OFFCURVE",
"132 83 OFFCURVE",
"83 78 CURVE SMOOTH",
"57 75 OFFCURVE",
"50 62 OFFCURVE",
"50 41 CURVE SMOOTH",
"50 26 OFFCURVE",
"61 0 OFFCURVE",
"84 0 CURVE SMOOTH"
);
}
);
width = 1097;
},
{
anchors = (
{
name = btm;
position = "{657, -200}";
},
{
name = top;
position = "{657, 2000}";
}
);
layerId = "62CA62AF-CD91-478A-AB8B-28A62CC47DA0";
paths = (
{
closed = 1;
nodes = (
"596 0 LINE SMOOTH",
"619 0 OFFCURVE",
"630 26 OFFCURVE",
"630 41 CURVE SMOOTH",
"630 71 OFFCURVE",
"622 75 OFFCURVE",
"594 78 CURVE SMOOTH",
"545 82 OFFCURVE",
"502 88 OFFCURVE",
"502 165 CURVE SMOOTH",
"502 374 LINE",
"590 452 LINE",
"688 355 OFFCURVE",
"831 0 OFFCURVE",
"943 0 CURVE SMOOTH",
"1269 0 LINE SMOOTH",
"1292 0 OFFCURVE",
"1303 26 OFFCURVE",
"1303 41 CURVE SMOOTH",
"1303 70 OFFCURVE",
"1292 75 OFFCURVE",
"1270 78 CURVE SMOOTH",
"1220 85 OFFCURVE",
"1177 143 OFFCURVE",
"1122 198 CURVE SMOOTH",
"999 321 OFFCURVE",
"878 550 OFFCURVE",
"783 621 CURVE",
"1029 837 LINE",
"1078 876 OFFCURVE",
"1153 906 OFFCURVE",
"1217 906 CURVE SMOOTH",
"1239 906 OFFCURVE",
"1250 925 OFFCURVE",
"1250 949 CURVE SMOOTH",
"1250 964 OFFCURVE",
"1239 994 OFFCURVE",
"1216 994 CURVE SMOOTH",
"759 994 LINE SMOOTH",
"736 994 OFFCURVE",
"725 964 OFFCURVE",
"725 949 CURVE SMOOTH",
"725 928 OFFCURVE",
"729 909 OFFCURVE",
"756 906 CURVE",
"819 902 OFFCURVE",
"921 876 OFFCURVE",
"881 842 CURVE",
"502 484 LINE",
"502 1508 LINE SMOOTH",
"502 1540 OFFCURVE",
"483 1548 OFFCURVE",
"472 1548 CURVE SMOOTH",
"390 1547 OFFCURVE",
"226 1542 OFFCURVE",
"37 1534 CURVE SMOOTH",
"21 1533 OFFCURVE",
"13 1506 OFFCURVE",
"13 1490 CURVE SMOOTH",
"13 1465 OFFCURVE",
"23 1456 OFFCURVE",
"37 1450 CURVE",
"91 1436 OFFCURVE",
"186 1453 OFFCURVE",
"186 1329 CURVE SMOOTH",
"186 132 LINE SMOOTH",
"186 95 OFFCURVE",
"119 82 OFFCURVE",
"70 78 CURVE",
"44 75 OFFCURVE",
"37 62 OFFCURVE",
"37 41 CURVE SMOOTH {name = hr00;}",
"37 26 OFFCURVE",
"48 0 OFFCURVE",
"71 0 CURVE SMOOTH"
);
}
);
width = 1294;
}
);
leftKerningGroup = h;
rightKerningGroup = k;
unicode = 006B;
},
{
color = 4;
glyphname = kgreenlandic;
lastChange = "2018-07-10 06:10:04 +0000";
layers = (
{
layerId = "DD6F9F34-BC40-4E8F-B1D3-DF3B42A9710F";
paths = (
{
closed = 1;
nodes = (
"517 0 LINE SMOOTH",
"539 0 OFFCURVE",
"551 16 OFFCURVE",
"551 31 CURVE SMOOTH",
"551 61 OFFCURVE",
"543 65 OFFCURVE",
"515 68 CURVE SMOOTH",
"466 73 OFFCURVE",
"403 79 OFFCURVE",
"403 165 CURVE SMOOTH",
"403 434 LINE",
"470 495 LINE",
"556 374 OFFCURVE",
"643 253 OFFCURVE",
"729 132 CURVE",
"738 121 OFFCURVE",
"742 113 OFFCURVE",
"742 105 CURVE SMOOTH",
"742 81 OFFCURVE",
"705 71 OFFCURVE",
"673 68 CURVE SMOOTH",
"647 65 OFFCURVE",
"642 52 OFFCURVE",
"642 31 CURVE SMOOTH",
"642 16 OFFCURVE",
"653 0 OFFCURVE",
"676 0 CURVE SMOOTH",
"1093 0 LINE SMOOTH",
"1116 0 OFFCURVE",
"1127 16 OFFCURVE",
"1127 31 CURVE SMOOTH",
"1127 60 OFFCURVE",
"1116 65 OFFCURVE",
"1094 68 CURVE SMOOTH",
"1044 75 OFFCURVE",
"977 105 OFFCURVE",
"927 165 CURVE",
"816 313 OFFCURVE",
"705 462 OFFCURVE",
"594 610 CURVE",
"823 821 LINE SMOOTH",
"858 853 OFFCURVE",
"942 918 OFFCURVE",
"1010 918 CURVE SMOOTH",
"1032 918 OFFCURVE",
"1043 931 OFFCURVE",
"1043 955 CURVE SMOOTH",
"1043 970 OFFCURVE",
"1032 986 OFFCURVE",
"1009 986 CURVE SMOOTH",
"632 986 LINE SMOOTH",
"609 986 OFFCURVE",
"598 970 OFFCURVE",
"598 955 CURVE SMOOTH",
"598 934 OFFCURVE",
"603 921 OFFCURVE",
"629 918 CURVE SMOOTH",
"664 915 OFFCURVE",
"734 895 OFFCURVE",
"734 864 CURVE SMOOTH",
"734 858 OFFCURVE",
"731 851 OFFCURVE",
"725 844 CURVE",
"403 541 LINE",
"403 947 LINE",
"400 979 OFFCURVE",
"384 987 OFFCURVE",
"373 987 CURVE SMOOTH",
"318 986 OFFCURVE",
"207 985 OFFCURVE",
"78 977 CURVE SMOOTH",
"62 976 OFFCURVE",
"54 959 OFFCURVE",
"54 943 CURVE SMOOTH",
"54 918 OFFCURVE",
"64 909 OFFCURVE",
"78 903 CURVE",
"128 889 OFFCURVE",
"217 902 OFFCURVE",
"217 778 CURVE SMOOTH",
"217 132 LINE SMOOTH",
"217 88 OFFCURVE",
"160 73 OFFCURVE",
"111 68 CURVE SMOOTH",
"85 65 OFFCURVE",
"78 52 OFFCURVE",
"78 31 CURVE SMOOTH",
"78 16 OFFCURVE",
"89 0 OFFCURVE",
"112 0 CURVE SMOOTH"
);
}
);
width = 1115;
},
{
layerId = "62CA62AF-CD91-478A-AB8B-28A62CC47DA0";
paths = (
{
closed = 1;
nodes = (
"626 0 LINE SMOOTH",
"648 0 OFFCURVE",
"660 16 OFFCURVE",
"660 31 CURVE SMOOTH",
"660 61 OFFCURVE",
"652 65 OFFCURVE",
"624 68 CURVE SMOOTH",
"575 73 OFFCURVE",
"532 79 OFFCURVE",
"532 165 CURVE SMOOTH",
"532 400 LINE",
"604 463 LINE",
"671 391 OFFCURVE",
"758 262 OFFCURVE",
"829 142 CURVE SMOOTH",
"836 130 OFFCURVE",
"839 119 OFFCURVE",
"839 110 CURVE SMOOTH",
"839 92 OFFCURVE",
"828 80 OFFCURVE",
"813 78 CURVE SMOOTH",
"787 75 OFFCURVE",
"782 62 OFFCURVE",
"782 41 CURVE SMOOTH",
"782 26 OFFCURVE",
"793 0 OFFCURVE",
"816 0 CURVE SMOOTH",
"1300 0 LINE SMOOTH",
"1323 0 OFFCURVE",
"1334 26 OFFCURVE",
"1334 41 CURVE SMOOTH",
"1334 70 OFFCURVE",
"1323 75 OFFCURVE",
"1301 78 CURVE SMOOTH",
"1251 85 OFFCURVE",
"1213 139 OFFCURVE",
"1158 194 CURVE SMOOTH",
"1044 308 OFFCURVE",
"895 548 OFFCURVE",
"812 641 CURVE",
"1039 837 LINE",
"1088 876 OFFCURVE",
"1163 906 OFFCURVE",
"1227 906 CURVE SMOOTH",
"1249 906 OFFCURVE",
"1260 925 OFFCURVE",
"1260 949 CURVE SMOOTH",
"1260 964 OFFCURVE",
"1249 994 OFFCURVE",
"1226 994 CURVE SMOOTH",
"769 994 LINE SMOOTH",
"746 994 OFFCURVE",
"735 964 OFFCURVE",
"735 949 CURVE SMOOTH",
"735 928 OFFCURVE",
"739 909 OFFCURVE",
"766 906 CURVE SMOOTH",
"870 896 OFFCURVE",
"899 883 OFFCURVE",
"899 857 CURVE SMOOTH",
"899 847 OFFCURVE",
"889 839 OFFCURVE",
"878 829 CURVE SMOOTH",
"532 511 LINE",
"532 947 LINE",
"529 979 OFFCURVE",
"513 987 OFFCURVE",
"502 987 CURVE SMOOTH",
"423 986 OFFCURVE",
"263 985 OFFCURVE",
"77 977 CURVE SMOOTH",
"61 976 OFFCURVE",
"53 959 OFFCURVE",
"53 943 CURVE SMOOTH",
"53 918 OFFCURVE",
"63 909 OFFCURVE",
"77 903 CURVE",
"127 889 OFFCURVE",
"216 902 OFFCURVE",
"216 778 CURVE SMOOTH",
"216 132 LINE SMOOTH",
"216 88 OFFCURVE",
"159 73 OFFCURVE",
"110 68 CURVE SMOOTH",
"84 65 OFFCURVE",
"77 52 OFFCURVE",
"77 31 CURVE SMOOTH {name = hr00;}",
"77 16 OFFCURVE",
"88 0 OFFCURVE",
"111 0 CURVE SMOOTH"
);
}
);
width = 1317;
}
);
leftKerningGroup = h;
rightKerningGroup = k;
unicode = 0138;
},
{
color = 4;
glyphname = l;
lastChange = "2018-05-24 16:52:55 +0000";
layers = (
{
anchors = (
{
name = btm;
position = "{280, -200}";
},
{
name = top;
position = "{280, 2000}";
}
);
layerId = "DD6F9F34-BC40-4E8F-B1D3-DF3B42A9710F";
paths = (
{
closed = 1;
nodes = (
"510 0 LINE SMOOTH",
"532 0 OFFCURVE",
"544 26 OFFCURVE",
"544 41 CURVE SMOOTH",
"544 71 OFFCURVE",
"536 75 OFFCURVE",
"508 78 CURVE SMOOTH",
"459 83 OFFCURVE",
"386 89 OFFCURVE",
"386 175 CURVE SMOOTH",
"386 1518 LINE",
"383 1550 OFFCURVE",
"367 1558 OFFCURVE",
"356 1558 CURVE SMOOTH",
"299 1557 OFFCURVE",
"174 1556 OFFCURVE",
"41 1548 CURVE SMOOTH",
"25 1547 OFFCURVE",
"17 1520 OFFCURVE",
"17 1504 CURVE SMOOTH",
"17 1479 OFFCURVE",
"27 1470 OFFCURVE",
"41 1464 CURVE",
"95 1450 OFFCURVE",
"200 1463 OFFCURVE",
"200 1339 CURVE SMOOTH",
"199 142 LINE SMOOTH",
"199 98 OFFCURVE",
"133 83 OFFCURVE",
"84 78 CURVE SMOOTH",
"58 75 OFFCURVE",
"51 62 OFFCURVE",
"51 41 CURVE SMOOTH",
"51 26 OFFCURVE",
"62 0 OFFCURVE",
"85 0 CURVE SMOOTH"
);
}
);
width = 586;
},
{
anchors = (
{
name = btm;
position = "{353, -200}";
},
{
name = top;
position = "{333, 2000}";
}
);
layerId = "62CA62AF-CD91-478A-AB8B-28A62CC47DA0";
paths = (
{
closed = 1;
nodes = (
"635 0 LINE SMOOTH",
"658 0 OFFCURVE",
"669 26 OFFCURVE",
"669 41 CURVE SMOOTH",
"669 71 OFFCURVE",
"661 75 OFFCURVE",
"633 78 CURVE SMOOTH",
"584 82 OFFCURVE",
"511 88 OFFCURVE",
"511 165 CURVE SMOOTH",
"511 1508 LINE SMOOTH",
"511 1540 OFFCURVE",
"492 1548 OFFCURVE",
"481 1548 CURVE SMOOTH",
"398 1547 OFFCURVE",
"221 1542 OFFCURVE",
"36 1534 CURVE SMOOTH",
"21 1533 OFFCURVE",
"12 1506 OFFCURVE",
"12 1490 CURVE SMOOTH",
"12 1465 OFFCURVE",
"22 1456 OFFCURVE",
"36 1450 CURVE",
"93 1436 OFFCURVE",
"205 1453 OFFCURVE",
"205 1328 CURVE",
"204 132 LINE SMOOTH",
"204 95 OFFCURVE",
"138 82 OFFCURVE",
"89 78 CURVE SMOOTH",
"63 75 OFFCURVE",
"56 62 OFFCURVE",
"56 41 CURVE SMOOTH {name = hr00;}",
"56 26 OFFCURVE",
"67 0 OFFCURVE",
"90 0 CURVE SMOOTH"
);
}
);
width = 705;
}
);
leftKerningGroup = h;
rightKerningGroup = l;
unicode = 006C;
},
{
glyphname = lacute;
lastChange = "2018-05-24 13:54:47 +0000";
layers = (
{
components = (
{
name = acute.cap;
transform = "{1, 0, 0, 1, 74, 0}";
}
);
layerId = "DD6F9F34-BC40-4E8F-B1D3-DF3B42A9710F";
paths = (
{
closed = 1;
nodes = (
"288 102 LINE",
"386 165 LINE",
"386 1379 LINE",
"200 1210 LINE",
"199 132 LINE"
);
},
{
closed = 1;
nodes = (
"299 1418 OFFCURVE",
"184 1417 OFFCURVE",
"51 1409 CURVE SMOOTH",
"35 1408 OFFCURVE",
"27 1391 OFFCURVE",
"27 1375 CURVE SMOOTH",
"27 1350 OFFCURVE",
"37 1341 OFFCURVE",
"51 1335 CURVE",
"105 1321 OFFCURVE",
"200 1334 OFFCURVE",
"200 1210 CURVE SMOOTH",
"200 1209 OFFCURVE",
"200 1208 OFFCURVE",
"201 1208 CURVE SMOOTH",
"222 1208 OFFCURVE",
"386 1351 OFFCURVE",
"386 1379 CURVE",
"383 1411 OFFCURVE",
"367 1419 OFFCURVE",
"356 1419 CURVE SMOOTH"
);
},
{
closed = 1;
nodes = (
"522 0 OFFCURVE",
"534 16 OFFCURVE",
"534 31 CURVE SMOOTH",
"534 61 OFFCURVE",
"526 65 OFFCURVE",
"498 68 CURVE SMOOTH",
"449 73 OFFCURVE",
"386 79 OFFCURVE",
"386 165 CURVE",
"199 132 LINE",
"199 88 OFFCURVE",
"143 73 OFFCURVE",
"94 68 CURVE SMOOTH",
"68 65 OFFCURVE",
"61 52 OFFCURVE",
"61 31 CURVE SMOOTH",
"61 16 OFFCURVE",
"72 0 OFFCURVE",
"95 0 CURVE SMOOTH",
"500 0 LINE SMOOTH"
);
}
);
width = 586;
},
{
components = (
{
name = acute.cap;
transform = "{1, 0, 0, 1, 147, 0}";
}
);
layerId = "62CA62AF-CD91-478A-AB8B-28A62CC47DA0";
paths = (
{
closed = 1;
nodes = (
"50 26 OFFCURVE",
"61 0 OFFCURVE",
"84 0 CURVE SMOOTH",
"629 0 LINE SMOOTH",
"652 0 OFFCURVE",
"663 26 OFFCURVE",
"663 41 CURVE SMOOTH",
"663 71 OFFCURVE",
"655 75 OFFCURVE",
"627 78 CURVE SMOOTH",
"578 83 OFFCURVE",
"505 89 OFFCURVE",
"505 175 CURVE SMOOTH",
"505 1378 LINE",
"502 1410 OFFCURVE",
"486 1418 OFFCURVE",
"475 1418 CURVE SMOOTH",
"392 1417 OFFCURVE",
"215 1416 OFFCURVE",
"30 1408 CURVE SMOOTH",
"15 1407 OFFCURVE",
"6 1380 OFFCURVE",
"6 1364 CURVE SMOOTH",
"6 1339 OFFCURVE",
"16 1330 OFFCURVE",
"30 1324 CURVE",
"87 1310 OFFCURVE",
"199 1323 OFFCURVE",
"199 1199 CURVE SMOOTH",
"198 142 LINE SMOOTH",
"198 98 OFFCURVE",
"132 83 OFFCURVE",
"83 78 CURVE SMOOTH",
"57 75 OFFCURVE",
"50 62 OFFCURVE",
"50 41 CURVE SMOOTH {name = hr00;}"
);
}
);
width = 705;
}
);
unicode = 013A;
},
